<?xml version="1.0" encoding="utf-8"?>
<!-- Generator: Adobe Illustrator 16.0.0, SVG Export Plug-In . SVG Version: 6.00 Build 0)  -->
<!DOCTYPE svg PUBLIC "-//W3C//DTD SVG 1.1//EN" "http://www.w3.org/Graphics/SVG/1.1/DTD/svg11.dtd">
<svg version="1.1" id="Layer_1" xmlns="http://www.w3.org/2000/svg" xmlns:xlink="http://www.w3.org/1999/xlink" x="0px" y="0px"
	 width="191.977px" height="195.5px" viewBox="0 6.5 191.977 195.5" enable-background="new 0 6.5 191.977 195.5"
	 xml:space="preserve">
<g>
	<path fill="none" d="M80.204,25.552C44.622,25.333,15.506,54.46,15.495,89.963c-0.011,35.485,28.796,64.328,64.262,64.341
		c35.435,0.762,64.44-29.411,64.69-63.888C144.682,57.792,118.376,25.788,80.204,25.552z M51.344,129.641
		c-4.857,0.158-9.726,0.164-14.582,0.005c-2.724-0.089-4.296-1.587-4.271-4.565c0.06-7.355,0.048-14.709,0.005-22.064
		c-0.017-2.932,1.261-4.396,4.259-4.369c4.86,0.045,9.723,0.038,14.584,0.009c2.845-0.016,4.047,1.419,4.016,4.173
		c-0.043,3.74-0.011,7.48-0.012,11.219c0,3.742-0.044,7.48,0.015,11.219C55.401,128.051,53.938,129.556,51.344,129.641z
		 M87.478,101.729c0.001,7.485,0.019,14.972-0.006,22.457c-0.014,4.247-1.258,5.467-5.613,5.512
		c-3.992,0.04-7.985,0.052-11.976-0.004c-4.029-0.056-5.227-1.166-5.237-5.06c-0.039-15.096,0.027-30.191-0.047-45.286
		c-0.016-3.316,1.279-4.812,4.654-4.723c4.488,0.118,8.984,0.122,13.472-0.001c3.595-0.099,4.844,1.597,4.789,5.024
		c-0.03,1.84-0.046,3.68-0.056,5.519C87.432,90.688,87.478,96.208,87.478,101.729z M119.677,123.59
		c-0.014,4.834-1.327,6.091-6.284,6.115c-3.619,0.018-7.238,0.019-10.854-0.002c-4.932-0.024-6.234-1.287-6.243-6.15
		c-0.021-11.228-0.006-22.456-0.006-33.685c0-11.103-0.014-22.206,0.006-33.309c0.009-4.916,0.979-5.873,5.906-5.903
		c3.992-0.024,7.984-0.034,11.977,0.005c4.405,0.042,5.487,1.108,5.495,5.562c0.027,14.596,0.011,29.192,0.011,43.789
		C119.686,107.871,119.702,115.731,119.677,123.59z"/>
	<path fill="#FFFFFF" d="M190.066,198.157c-1.374,1.77-3.245,3.043-5.59,3.843c2.5,0,5,0,7.5,0c0-2.5,0-5,0-7.5
		C191.517,195.896,190.877,197.112,190.066,198.157z"/>
	<path d="M190.066,198.157c0.811-1.044,1.449-2.261,1.908-3.657c0-0.5,0-1,0-1.5c-2.33-2.873-4.439-5.963-7.029-8.582
		c-13.605-13.762-27.303-27.434-41.053-41.052c-1.914-1.895-2.336-3.157-0.521-5.556c11.832-15.628,17.31-33.403,15.979-52.893
		c-2.67-39.187-32.067-67.669-65.87-73.194c-3.416-0.559-6.829-1.133-10.244-1.7c-2,0-4,0-5.999,0
		c-4.89,0.819-9.814,1.472-14.664,2.483C31.672,18.953,6.75,45.241,1.686,76.63C1.114,80.173,0.562,83.719,0,87.264
		c0,2,0,3.999,0,5.999c0.839,4.884,1.491,9.809,2.549,14.646c6.803,31.077,33.815,56.258,65.298,60.73
		c21.879,3.109,41.877-1.833,59.641-15.035c2.688-1.997,4.008-1.591,6.133,0.561c13.51,13.683,27.107,27.277,40.779,40.795
		c2.619,2.59,5.705,4.705,8.576,7.041c0.5,0,1,0,1.5,0C186.821,201.2,188.692,199.927,190.066,198.157z M79.757,154.305
		c-35.466-0.014-64.273-28.856-64.262-64.341c0.011-35.503,29.127-64.63,64.709-64.411c38.172,0.235,64.478,32.24,64.243,64.864
		C144.197,124.894,115.191,155.066,79.757,154.305z"/>
	<path d="M119.673,56.224c-0.008-4.454-1.09-5.52-5.495-5.562c-3.992-0.039-7.984-0.029-11.977-0.005
		c-4.927,0.03-5.897,0.987-5.906,5.903c-0.02,11.103-0.006,22.206-0.006,33.309c0,11.229-0.015,22.457,0.006,33.685
		c0.009,4.863,1.311,6.126,6.243,6.15c3.616,0.021,7.235,0.02,10.854,0.002c4.957-0.024,6.271-1.281,6.284-6.115
		c0.025-7.858,0.009-15.719,0.007-23.577C119.684,85.416,119.7,70.819,119.673,56.224z"/>
	<path d="M82.725,74.625c-4.488,0.123-8.984,0.119-13.472,0.001c-3.375-0.089-4.67,1.407-4.654,4.723
		c0.074,15.095,0.008,30.19,0.047,45.286c0.01,3.894,1.208,5.004,5.237,5.06c3.991,0.056,7.984,0.044,11.976,0.004
		c4.355-0.045,5.599-1.265,5.613-5.512c0.025-7.485,0.007-14.972,0.006-22.457c0-5.521-0.046-11.042-0.02-16.562
		c0.01-1.839,0.026-3.679,0.056-5.519C87.569,76.222,86.32,74.525,82.725,74.625z"/>
	<path d="M55.343,114.047c0.001-3.738-0.031-7.479,0.012-11.219c0.031-2.754-1.171-4.188-4.016-4.173
		c-4.861,0.029-9.724,0.036-14.584-0.009c-2.998-0.027-4.276,1.437-4.259,4.369c0.043,7.355,0.055,14.709-0.005,22.064
		c-0.025,2.979,1.547,4.477,4.271,4.565c4.856,0.159,9.725,0.153,14.582-0.005c2.594-0.085,4.057-1.59,4.014-4.375
		C55.299,121.527,55.343,117.789,55.343,114.047z"/>
</g>
</svg>
