<?xml version="1.0" encoding="utf-8"?>
<!-- Generator: Adobe Illustrator 16.0.0, SVG Export Plug-In . SVG Version: 6.00 Build 0)  -->
<!DOCTYPE svg PUBLIC "-//W3C//DTD SVG 1.1//EN" "http://www.w3.org/Graphics/SVG/1.1/DTD/svg11.dtd">
<svg version="1.1" id="Layer_1" xmlns="http://www.w3.org/2000/svg" xmlns:xlink="http://www.w3.org/1999/xlink" x="0px" y="0px"
	 width="188.696px" height="154.194px" viewBox="0 0 188.696 154.194" enable-background="new 0 0 188.696 154.194"
	 xml:space="preserve">
<path fill-rule="evenodd" clip-rule="evenodd" d="M72.332,144.372C47.914,119.964,23.822,95.881,0,72.069
	C23.889,48.196,47.979,24.124,72.118,0c0.046,0.544,0.201,1.54,0.203,2.536c0.018,11.119,0.077,22.238-0.031,33.357
	c-0.029,3.031,0.491,4.51,4.102,5.098c23.661,3.859,45.419,12.335,64.142,27.713c21.43,17.602,34.977,40.385,43.439,66.449
	c1.994,6.14,3.557,12.42,4.724,19.041c-1.002-1.25-2.008-2.496-3.005-3.748c-19.777-24.844-45.539-39.651-76.691-44.846
	c-10.774-1.796-21.797-2.081-32.698-3.148c-3.197-0.313-4.055,1.034-4.02,4.06c0.131,11.367,0.051,22.737,0.05,34.106
	C72.332,141.835,72.332,143.052,72.332,144.372z"/>
</svg>
