<?xml version="1.0" encoding="utf-8"?>
<!-- Generator: Adobe Illustrator 16.0.0, SVG Export Plug-In . SVG Version: 6.00 Build 0)  -->
<!DOCTYPE svg PUBLIC "-//W3C//DTD SVG 1.1//EN" "http://www.w3.org/Graphics/SVG/1.1/DTD/svg11.dtd">
<svg version="1.1" id="Layer_1" xmlns="http://www.w3.org/2000/svg" xmlns:xlink="http://www.w3.org/1999/xlink" x="0px" y="0px"
	 width="179.156px" height="163.839px" viewBox="0 0 179.156 163.839" enable-background="new 0 0 179.156 163.839"
	 xml:space="preserve">
<path fill-rule="evenodd" clip-rule="evenodd" d="M24.801,163.839c0-11.215-0.065-21.575,0.045-31.933
	c0.028-2.602-0.649-3.739-3.467-4.032C9.603,126.65,0.212,116.536,0.134,104.565C-0.042,77.584-0.045,50.6,0.131,23.619
	C0.215,10.717,10.632,0.17,23.524,0.122c44.095-0.163,88.191-0.16,132.287-0.005c12.528,0.044,22.585,9.572,23.008,22.047
	c0.521,15.349,0.284,30.723,0.28,46.086c-0.002,12.739,0.201,25.492-0.316,38.214c-0.479,11.746-10.568,21.37-22.39,21.486
	c-24.981,0.245-49.967,0.165-74.95,0.089c-3.416-0.01-6.199,0.842-9.006,2.828c-14.678,10.384-29.478,20.594-44.243,30.855
	C27.312,162.336,26.369,162.865,24.801,163.839z M47.827,47.48c1.648,0,3.113,0,4.578,0c24.34,0,48.68,0.03,73.02-0.018
	c7.34-0.015,6.278,1.11,6.687-6.526c0.215-4.021-1.306-4.7-4.91-4.678c-23.465,0.145-46.932,0.074-70.398,0.074
	C46.594,36.333,46.594,36.333,47.827,47.48z M47.726,69.979c1.726,0,3.193,0,4.659,0c24.34,0,48.68,0.029,73.02-0.019
	c7.361-0.014,6.304,1.113,6.704-6.506c0.21-3.982-1.246-4.723-4.887-4.701c-25.088,0.147-50.177,0.074-75.266,0.086
	c-1.335,0-2.672,0.114-4.229,0.187C47.726,62.633,47.726,65.952,47.726,69.979z M47.715,92.476c1.771,0,3.236,0,4.702,0
	c24.34,0,48.68,0.029,73.02-0.018c7.328-0.015,6.333,1.113,6.654-6.54c0.148-3.543-0.843-4.692-4.526-4.671
	c-25.213,0.153-50.427,0.078-75.64,0.089c-1.333,0.001-2.667,0.121-4.209,0.197C47.715,85.154,47.715,88.473,47.715,92.476z"/>
</svg>
