<?xml version="1.0" encoding="utf-8"?>
<!-- Generator: Adobe Illustrator 16.0.0, SVG Export Plug-In . SVG Version: 6.00 Build 0)  -->
<!DOCTYPE svg PUBLIC "-//W3C//DTD SVG 1.1//EN" "http://www.w3.org/Graphics/SVG/1.1/DTD/svg11.dtd">
<svg version="1.1" id="Layer_1" xmlns="http://www.w3.org/2000/svg" xmlns:xlink="http://www.w3.org/1999/xlink" x="0px" y="0px"
	 width="191.765px" height="176.475px" viewBox="0 0 191.765 176.475" enable-background="new 0 0 191.765 176.475"
	 xml:space="preserve">
<g>
	<path fill-rule="evenodd" clip-rule="evenodd" d="M0,127.967c0.917-1.885,1.398-4.271,2.855-5.533
		c2.042-1.771,4.79-3.775,7.271-3.823c17.479-0.337,34.969-0.246,52.454-0.123c1.389,0.01,3.037,1.002,4.105,2.021
		c4.432,4.217,8.636,8.673,13.018,12.944c9.54,9.299,22.931,9.322,32.526,0.051c4.311-4.165,8.379-8.588,12.804-12.623
		c1.403-1.279,3.596-2.363,5.439-2.384c16.485-0.181,32.973-0.13,49.46-0.091c7.255,0.018,11.543,3.926,11.676,11.192
		c0.215,11.736,0.201,23.482,0.008,35.22c-0.122,7.464-4.689,11.598-12.235,11.599c-55.581,0.012-111.161-0.035-166.742,0.059
		C5.767,176.486,2.21,172.791,0,166.962C0,153.964,0,140.965,0,127.967z M169.909,162.583c4.08-0.055,7.89-4.016,7.766-8.073
		c-0.13-4.244-3.882-7.744-8.131-7.587c-4.04,0.15-7.637,3.816-7.62,7.766C161.942,158.712,165.912,162.638,169.909,162.583z
		 M148.011,154.71c0.009-4.396-3.427-7.813-7.809-7.771c-4.166,0.04-7.632,3.429-7.722,7.545c-0.089,4.15,3.555,7.984,7.692,8.094
		C144.258,162.685,148.003,158.926,148.011,154.71z"/>
	<path fill-rule="evenodd" clip-rule="evenodd" d="M74.442,31.501c0.003-7.872-0.03-15.745,0.015-23.617
		c0.03-5.139,2.697-7.819,7.842-7.848c9.123-0.048,18.245-0.048,27.367,0c5.145,0.027,7.838,2.709,7.851,7.839
		c0.038,15.62,0.09,31.241-0.039,46.86c-0.028,3.315,0.818,4.664,4.406,4.562c8.366-0.241,16.743-0.018,25.115-0.103
		c3.221-0.032,5.694,1.081,6.906,4.078c1.23,3.042,0.589,5.737-1.855,8.168c-16.835,16.743-33.582,33.574-50.403,50.33
		c-4.024,4.008-7.297,3.984-11.302-0.007C73.53,105.001,56.778,88.175,39.939,71.438c-2.444-2.431-3.128-5.106-1.878-8.155
		c1.223-2.982,3.679-4.122,6.906-4.088c8.372,0.088,16.75-0.137,25.115,0.102c3.574,0.102,4.496-1.219,4.416-4.553
		C74.312,46.999,74.439,39.249,74.442,31.501z"/>
</g>
</svg>
