<?xml version="1.0" encoding="utf-8"?>
<!-- Generator: Adobe Illustrator 16.0.0, SVG Export Plug-In . SVG Version: 6.00 Build 0)  -->
<!DOCTYPE svg PUBLIC "-//W3C//DTD SVG 1.1//EN" "http://www.w3.org/Graphics/SVG/1.1/DTD/svg11.dtd">
<svg version="1.1" id="Layer_1" xmlns="http://www.w3.org/2000/svg" xmlns:xlink="http://www.w3.org/1999/xlink" x="0px" y="0px"
	 width="191.976px" height="176.682px" viewBox="0 0 191.976 176.682" enable-background="new 0 0 191.976 176.682"
	 xml:space="preserve">
<g>
	<path fill-rule="evenodd" clip-rule="evenodd" d="M0,151.936c3.168-11.563,13.48-16.237,22.127-22.186
		c9.334-6.422,19.339-11.89,29.207-17.501c2.745-1.561,3.893-3.201,3.815-6.399c-0.216-8.867,0.025-17.744-0.166-26.612
		c-0.035-1.636-1.213-3.264-1.932-4.865c-1.551-3.455-4.401-6.854-4.5-10.339c-0.366-12.838-0.452-25.75,0.54-38.541
		C50.174,11.551,63.008,0.4,77.074,0.049c4.716-0.117,9.523-0.076,14.157,0.689c13.607,2.246,23.741,13.881,24.045,27.594
		c0.263,11.864,0.06,23.74,0.109,35.609c0.019,4.269-1.779,7.608-4.614,10.692c-1.13,1.229-2.027,3.178-2.064,4.821
		c-0.198,8.867-0.018,17.743-0.14,26.613c-0.039,2.859,0.999,4.485,3.56,5.87c7.571,4.095,14.952,8.543,22.447,12.783
		c2.277,1.288,3.764,2.584,2.576,5.597c-0.547,1.389-0.093,3.172-0.093,5.127c-4.061,0-7.765-0.081-11.463,0.017
		c-7.82,0.206-11.112,3.591-11.125,11.336c-0.015,8.747-0.09,17.495,0.048,26.241c0.041,2.642-0.825,3.502-3.439,3.412
		c-4.993-0.167-9.997-0.143-14.992-0.006c-2.2,0.061-3.134-0.85-3.563-2.879c-1.885-8.891-3.928-17.748-5.69-26.664
		c-0.273-1.385,0.43-3.069,0.993-4.49c1.278-3.221,3.098-6.264,4.054-9.565c1.115-3.849-0.719-6.962-4.322-8.454
		c-3.619-1.498-7.29-1.54-10.929-0.05c-3.75,1.537-5.595,4.84-4.45,8.763c0.828,2.839,1.907,5.747,3.547,8.17
		c1.719,2.541,1.916,4.846,1.246,7.679c-1.861,7.875-3.627,15.776-5.193,23.714c-0.563,2.855-1.733,3.821-4.707,3.803
		c-20.868-0.129-41.736-0.074-62.604-0.057c-1.489,0.002-2.978,0.175-4.466,0.268C0,168.434,0,160.184,0,151.936z"/>
	<path fill-rule="evenodd" clip-rule="evenodd" d="M191.976,114.44c-2.006,0.41-4.025,1.208-6.014,1.14
		c-3.075-0.104-4.096,0.877-4.071,4.028c0.134,16.992,0.064,33.987,0.062,50.98c-0.001,5.809-0.005,5.83-5.834,5.809
		c-10.268-0.036-9.334,1.206-9.339-9.504c-0.006-15.619-0.098-31.239,0.073-46.857c0.038-3.41-0.887-4.89-4.368-4.374
		c-0.855,0.127-1.971,0.337-2.567-0.072c-0.823-0.565-1.997-2.125-1.77-2.497c5.13-8.409,10.429-16.715,15.717-25.027
		c0.096-0.149,0.453-0.132,1.095-0.299c0.747,1.074,1.628,2.233,2.397,3.462c4.104,6.563,8.16,13.157,12.286,19.705
		c0.636,1.008,1.549,1.841,2.333,2.755C191.976,113.94,191.976,114.19,191.976,114.44z"/>
	<path fill-rule="evenodd" clip-rule="evenodd" d="M144.268,153.061c0-6.49,0.095-12.98-0.044-19.466
		c-0.06-2.825,0.802-4.216,3.815-4.049c2.737,0.151,5.489,0.075,8.234,0.035c2.186-0.032,3.176,0.957,3.171,3.161
		c-0.026,13.477,0.061,26.955-0.154,40.427c-0.017,1.088-2.008,2.148-3.094,3.209c-0.064,0.063-0.241,0.014-0.366,0.013
		c-13.539-0.175-11.397,1.833-11.555-10.976C144.224,161.297,144.267,157.178,144.268,153.061z"/>
	<path fill-rule="evenodd" clip-rule="evenodd" d="M136.928,159.59c-0.001,4.248-0.036,8.496,0.012,12.744
		c0.031,2.748-1.021,4.144-3.989,4.086c-13.194-0.254-11.022,1.801-11.186-10.973c-0.079-6.246,0.085-12.496-0.056-18.74
		c-0.063-2.762,1.039-3.866,3.707-3.858c13.875,0.039,11.263-1.248,11.507,10.745C136.964,155.592,136.929,157.592,136.928,159.59z"
		/>
</g>
</svg>
