<?xml version="1.0" encoding="utf-8"?>
<!-- Generator: Adobe Illustrator 16.0.0, SVG Export Plug-In . SVG Version: 6.00 Build 0)  -->
<!DOCTYPE svg PUBLIC "-//W3C//DTD SVG 1.1//EN" "http://www.w3.org/Graphics/SVG/1.1/DTD/svg11.dtd">
<svg version="1.1" id="Layer_1" xmlns="http://www.w3.org/2000/svg" xmlns:xlink="http://www.w3.org/1999/xlink" x="0px" y="0px"
	 width="409.636px" height="409.636px" viewBox="0 0 409.636 409.636" enable-background="new 0 0 409.636 409.636"
	 xml:space="preserve">
<g>
	<path fill-rule="evenodd" clip-rule="evenodd" d="M409.636,108.81c0,82.407,0,164.814,0,247.222
		c-2.273,4.271-5.877,5.756-10.588,5.356c-2.777-0.235-5.592,0.001-8.388-0.035c-2.102-0.027-2.661,0.969-2.619,2.991
		c0.246,11.575,0.225,23.157,0.602,34.728c0.154,4.726-1.083,8.33-5.409,10.564c-118.944,0-237.887,0-356.831,0
		c-3.276-1.92-5.464-4.387-5.373-8.562c0.267-12.24,0.315-24.485,0.558-36.727c0.04-2.023-0.504-3.021-2.608-2.995
		c-2.796,0.035-5.611-0.2-8.387,0.035C5.88,361.786,2.267,360.318,0,356.031c0-82.674,0-165.348,0-248.021
		c2.679-4.25,6.477-5.419,11.474-5.385c30.617,0.209,61.237,0.122,91.855,0.091c6.913-0.008,6.512,1.011,6.516-6.323
		c0.013-28.621,0.082-57.244-0.071-85.865C109.749,5.816,110.833,2.19,115.21,0c59.738,0,119.477,0,179.215,0
		c4.377,2.198,5.461,5.829,5.437,10.545c-0.152,29.048-0.001,58.098-0.163,87.146c-0.022,4.014,1.032,5.158,5.119,5.135
		c31.313-0.175,62.628-0.001,93.94-0.189C403.911,102.605,407.558,104.015,409.636,108.81z M182.654,305.016
		c-6.818-6.339-11.15-14.768-11.185-24.816c-0.035-10.021,3.363-18.897,11.18-25.534c13.198-11.207,31.064-11.162,44.356-0.027
		c5.638,4.724,8.909,10.94,10.371,18.028c2.674,12.956-1.642,23.811-10.359,32.385c6.822,6.598,13.328,12.888,19.674,19.024
		c4.021-3.359,8.445-6.93,12.654-10.736c0.498-0.451,0.23-2.513-0.371-3.297c-5.116-6.659-6.605-14.043-5.093-22.216
		c2.359-12.756,15.99-22.652,28.607-20.671c4.508,0.709,4.906,0.433,4.906-4.052c0.013-81.735-0.012-163.471,0.078-245.205
		c0.004-3.7-1.147-4.694-4.791-4.687c-51.869,0.11-103.736,0.117-155.604-0.008c-3.903-0.009-4.957,1.167-4.926,4.971
		c0.164,20.132,0.076,40.267,0.076,60.4c0,61.334,0.009,122.668-0.023,184.004c-0.001,3.114-0.027,5.463,4.437,4.749
		c11.056-1.768,19.682,2.852,25.671,11.79c5.818,8.683,5.543,18.094,0.879,27.351c-1.048,2.08-3.766,4.422-3.306,5.889
		c0.623,1.988,3.69,3.123,5.486,4.854c2.637,2.544,5.077,5.291,7.041,7.359C169.427,317.796,175.866,311.574,182.654,305.016z
		 M328.896,332.922c-12.922-17.155-6.74-31.158,1.732-38.943c9.387-8.623,24.114-8.776,34.234-0.768
		c4.771,3.777,7.885,8.642,9.223,14.567c2.109,9.344-0.469,17.569-6.338,24.657c3.93,3.64,8.387,6.538,11.113,10.6
		c3.428,5.108,7.536,6.24,13.124,5.913c3.47-0.202,4.442-1.237,4.438-4.703c-0.098-74.645-0.073-149.289-0.084-223.933
		c0-1.414-0.134-2.828-0.211-4.354c-1.165-0.109-1.941-0.246-2.718-0.246c-29.991-0.013-59.981,0.045-89.973-0.088
		c-3.692-0.017-3.671,1.908-3.669,4.511c0.025,50.785-0.002,101.569,0.095,152.354c0.004,1.975,0.711,4.217,1.792,5.876
		c6.963,10.688,6.93,20.851-0.641,31.164c-1.654,2.255-1.811,3.541,0.75,5.005c7.383,4.22,11.918,10.888,15.369,18.41
		c0.924,2.01,1.65,4.108,2.662,6.66C323.017,337.239,325.844,335.163,328.896,332.922z M89.517,339.423
		c0.581-0.742,0.922-1.009,1.038-1.351c3.39-9.996,8.639-18.582,18.056-24.059c2.229-1.296,1.316-2.628,0.151-4.226
		c-7.719-10.578-7.843-20.643-0.732-31.493c1.021-1.559,1.741-3.647,1.744-5.491c0.092-50.917,0.04-101.834,0.147-152.751
		c0.008-3.612-1.191-4.44-4.605-4.426c-29.19,0.122-58.381,0.066-87.572,0.079c-1.4,0.001-2.802,0.15-4.457,0.245
		c0,2.069,0,3.655,0,5.241c0,73.977,0,147.953,0,221.93c0,1.066-0.05,2.138,0.042,3.196c0.055,0.626,0.355,1.771,0.526,1.768
		c4.373-0.092,9.838,1.272,12.874-0.837c5.616-3.905,9.808-9.857,14.727-15.099c-9.081-15.903-8.491-28.432,2.124-37.95
		c9.173-8.226,23.305-9.065,33.319-1.976c5.351,3.788,8.728,9.059,10.39,15.233c2.55,9.473-0.672,17.775-6.632,25.376
		C83.781,335.156,86.525,337.197,89.517,339.423z M204.491,396.348c10.257,0,20.516-0.119,30.769,0.069
		c3.306,0.061,4.34-0.94,4.304-4.27c-0.159-14.651-0.145-29.305-0.044-43.957c0.067-9.753-3.514-17.889-10.329-24.703
		c-9.858-9.857-24.652-12.865-37.301-7.623c-13.164,5.455-21.679,17.792-21.731,31.674c-0.057,14.919,0.054,29.838-0.074,44.756
		c-0.026,3.068,0.795,4.188,4.039,4.126C184.242,396.224,194.368,396.348,204.491,396.348z M307.547,396.088
		c0-1.608,0.001-2.791,0-3.972c-0.001-14.931,0.044-29.861-0.018-44.792c-0.059-14.44-11.78-26.548-25.823-26.797
		c-16.521-0.293-29.316,10.656-29.656,25.982c-0.34,15.322-0.051,30.658-0.134,45.989c-0.016,2.867,0.917,3.936,3.939,3.911
		c16.13-0.133,32.26-0.061,48.39-0.073C305.153,396.336,306.06,396.204,307.547,396.088z M102.089,395.839
		c0.944,0.257,1.316,0.446,1.689,0.446c16.929,0.03,33.859-0.005,50.789,0.103c3.02,0.02,3.123-1.736,3.121-3.875
		c-0.014-15.33,0.187-30.664-0.096-45.99c-0.233-12.629-11.322-24.457-23.657-25.903c-14.495-1.699-27.635,6.3-30.736,19.64
		c-1.36,5.853-0.999,12.15-1.067,18.25C101.99,370.888,102.089,383.271,102.089,395.839z M89.117,396.066
		c0-9.679,0.041-18.867-0.009-28.055c-0.082-15.066-12.197-27.195-27.206-27.304c-15.33-0.109-28.184,12.129-28.402,27.169
		c-0.117,7.995,0.105,15.997-0.096,23.988c-0.086,3.446,0.957,4.604,4.529,4.562c15.726-0.182,31.455-0.073,47.182-0.089
		C86.279,396.336,87.443,396.184,89.117,396.066z M320.134,395.663c1.31,0.429,1.557,0.58,1.804,0.58
		c17.059,0.041,34.116,0.027,51.175,0.139c3.045,0.021,3.058-1.815,3.055-3.923c-0.01-8.265,0.096-16.529-0.041-24.79
		c-0.217-13.144-11.131-25.144-24.211-26.817c-13.746-1.759-28.051,6.933-30.25,20.318
		C319.81,372.461,320.544,384.177,320.134,395.663z M205.07,258.941c-11.979-0.045-21.239,8.917-21.304,20.619
		c-0.067,12.01,9.171,21.451,21.003,21.466c11.767,0.016,21.059-9.214,21.1-20.959C225.911,268.168,216.872,258.987,205.07,258.941z
		 M334.13,313.875c-0.041,8.136,5.877,14.311,13.804,14.4c8.012,0.092,14.565-6.334,14.55-14.266
		c-0.016-7.713-6.503-14.192-14.229-14.21C340.198,299.781,334.169,305.789,334.13,313.875z M61.477,328.275
		c8.06-0.019,14.014-6.029,14.03-14.161c0.016-8.269-6.105-14.391-14.312-14.314c-7.754,0.072-14.099,6.568-14.041,14.376
		C47.211,321.922,53.684,328.294,61.477,328.275z M293.934,293.71c0.029-8.121-5.95-14.283-13.896-14.32
		c-7.861-0.037-14.302,6.25-14.381,14.037c-0.081,7.932,6.069,14.084,14.113,14.117C288.139,307.579,293.903,301.947,293.934,293.71
		z M129.592,307.544c8.139,0.023,14.327-5.927,14.387-13.834c0.058-7.738-6.337-14.223-14.124-14.321
		c-7.955-0.1-14.127,6.028-14.154,14.055C115.673,301.733,121.374,307.521,129.592,307.544z"/>
	<path fill-rule="evenodd" clip-rule="evenodd" d="M204.828,94.967c-12.786,0-25.572,0.016-38.358-0.007
		c-6.526-0.012-8.743-2.141-8.758-8.538c-0.037-16.648-0.035-33.298-0.001-49.945c0.013-6.437,2.147-8.55,8.724-8.559
		c25.571-0.031,51.144-0.031,76.716,0c6.693,0.008,8.765,2.138,8.777,8.933c0.03,16.516,0.034,33.031-0.004,49.546
		c-0.014,6.409-2.234,8.552-8.737,8.563C230.4,94.983,217.615,94.967,204.828,94.967z M205.192,82.586
		c9.993,0,19.988-0.094,29.98,0.053c3.247,0.048,4.438-0.984,4.387-4.343c-0.17-11.19-0.174-22.386,0.002-33.576
		c0.053-3.348-1.058-4.298-4.338-4.277c-20.253,0.127-40.507,0.123-60.761,0.004c-3.213-0.02-4.449,0.805-4.392,4.222
		c0.186,11.189,0.169,22.386,0.008,33.576c-0.047,3.295,1.021,4.447,4.333,4.396C184.67,82.488,194.932,82.586,205.192,82.586z"/>
	<path fill-rule="evenodd" clip-rule="evenodd" d="M156.525,198.294c-0.063,7.212,0.719,6.135-6.981,6.194
		c-5.53,0.044-5.535,0.006-5.522-6.952c0.012-7.368-0.047-5.91,7.279-5.988C157.446,191.482,156.442,191.224,156.525,198.294z"/>
	<path fill-rule="evenodd" clip-rule="evenodd" d="M183.756,197.923c-0.066,7.526,0.756,6.538-6.586,6.56
		c-6.455,0.019-5.799,0.773-5.803-6.973c-0.004-7.195-0.38-5.881,7.212-5.966C183.754,191.485,183.755,191.536,183.756,197.923z"/>
	<path fill-rule="evenodd" clip-rule="evenodd" d="M211.003,198.037c-0.055,7.501,0.632,6.417-6.705,6.443
		c-6.463,0.024-5.633,0.704-5.653-7.084c-0.018-6.944-0.443-5.786,6.892-5.854C211.003,191.491,211.004,191.534,211.003,198.037z"/>
	<path fill-rule="evenodd" clip-rule="evenodd" d="M225.365,197.41c0.569-1.903,0.859-5.277,1.756-5.448
		c3.306-0.625,6.814-0.246,10.237-0.063c0.332,0.019,0.748,1.281,0.854,2.006c0.153,1.04,0.077,2.117,0.066,3.179
		c-0.088,8.734,0.87,7.063-7.371,7.499c-4.021,0.212-5.741-0.948-5.042-5.041c0.11-0.645,0.016-1.323,0.016-1.987
		C225.709,197.507,225.537,197.458,225.365,197.41z"/>
	<path fill-rule="evenodd" clip-rule="evenodd" d="M253.111,197.865c0.057-7.192-0.722-6.284,6.453-6.326
		c6.056-0.036,6.057-0.007,6.051,6.826c-0.005,7.491,0.053,6.042-7.15,6.116C252.246,204.546,253.182,204.868,253.111,197.865z"/>
	<path fill-rule="evenodd" clip-rule="evenodd" d="M183.756,225.181c-0.062,7.338,0.739,6.521-6.281,6.517
		c-6.66-0.005-6.093,0.916-6.116-6.71c-0.019-6.198-0.002-6.198,6.711-6.196C183.755,218.794,183.755,218.794,183.756,225.181z"/>
	<path fill-rule="evenodd" clip-rule="evenodd" d="M210.977,225.531c-0.002,1.331,0.215,2.712-0.08,3.975
		c-0.19,0.813-1.087,2.018-1.742,2.067c-2.91,0.224-6.009,0.634-8.693-0.175c-1.071-0.322-1.766-3.637-1.696-5.555
		c0.085-2.34-1.823-5.854,1.75-6.837c2.719-0.748,5.821-0.272,8.728-0.035c0.633,0.053,1.495,1.346,1.659,2.183
		C211.177,222.565,210.978,224.067,210.977,225.531z"/>
	<path fill-rule="evenodd" clip-rule="evenodd" d="M238.243,225.485c0,1.332,0.215,2.713-0.077,3.978
		c-0.19,0.822-1.071,2.054-1.721,2.105c-2.911,0.229-5.903,0.404-8.745-0.092c-0.814-0.142-1.877-2.695-1.687-3.976
		c0.427-2.883-2.206-6.922,1.73-8.453c2.542-0.989,5.794-0.316,8.703-0.082c0.651,0.053,1.551,1.313,1.719,2.142
		C238.45,222.515,238.244,224.021,238.243,225.485z"/>
	<path fill-rule="evenodd" clip-rule="evenodd" d="M266.06,225.574c-0.5,1.962-0.721,5.465-1.55,5.615
		c-3.431,0.623-7.049,0.282-10.59,0.121c-0.296-0.015-0.705-1.319-0.761-2.047c-0.12-1.579-0.048-3.174-0.048-4.762
		c0.001-5.709,0.002-5.709,5.893-5.71C265.619,218.79,265.619,218.79,266.06,225.574z"/>
	<path fill-rule="evenodd" clip-rule="evenodd" d="M156.525,225.513c-0.052,7.065,0.688,6.15-6.528,6.193
		c-5.982,0.035-5.982,0.006-5.977-6.846c0.005-6.077,0.005-6.077,7.218-6.069C156.526,218.798,156.526,218.798,156.525,225.513z"/>
	<path fill-rule="evenodd" clip-rule="evenodd" d="M238.28,170.462c0,6.452,0,6.452-6.154,6.455
		c-6.251,0.003-6.262,0.003-6.242-7.11c0.018-6.508-0.375-5.423,6.904-5.483C238.28,164.277,238.281,164.317,238.28,170.462z"/>
	<path fill-rule="evenodd" clip-rule="evenodd" d="M204.924,164.313c6.625,0.066,6.054-0.806,6.075,6.332
		c0.018,6.274,0.002,6.274-6.291,6.271c-6.08-0.003-6.08-0.003-6.075-6.891C198.636,164.313,198.636,164.313,204.924,164.313z"/>
	<path fill-rule="evenodd" clip-rule="evenodd" d="M177.705,164.313c6.742,0.058,6.015-0.725,6.045,6.35
		c0.026,6.258,0.004,6.258-6.298,6.254c-6.103-0.004-6.103-0.004-6.096-6.912C171.362,164.313,171.362,164.313,177.705,164.313z"/>
	<path fill-rule="evenodd" clip-rule="evenodd" d="M150.581,164.313c6.833,0.052,5.888-0.656,5.936,6.773
		c0.038,5.835,0.004,5.835-6.24,5.83c-6.262-0.004-6.262-0.004-6.256-6.741C144.025,164.313,144.025,164.313,150.581,164.313z"/>
	<path fill-rule="evenodd" clip-rule="evenodd" d="M259.488,137.088c6.132,0.002,6.132,0.002,6.127,6.36
		c-0.004,6.085-0.004,6.099-6.488,6.08c-7.248-0.021-5.918,0.257-6.003-7.232C253.064,137.087,253.117,137.087,259.488,137.088z"/>
	<path fill-rule="evenodd" clip-rule="evenodd" d="M225.881,143.132c0.058-6.941-0.637-5.985,6.719-6.035
		c5.684-0.039,5.684-0.006,5.681,6.317c-0.002,6.127-0.002,6.127-6.764,6.118C225.88,149.523,225.88,149.523,225.881,143.132z"/>
	<path fill-rule="evenodd" clip-rule="evenodd" d="M183.755,116.324c-0.052,6.508,0.675,5.873-6.473,5.9
		c-5.932,0.021-5.944,0.001-5.924-6.491c0.021-6.9-0.344-5.81,6.912-5.873C183.758,109.813,183.758,109.856,183.755,116.324z"/>
	<path fill-rule="evenodd" clip-rule="evenodd" d="M211.003,143.361c0,6.172,0,6.18-6.274,6.168
		c-7.082-0.012-6.056,0.26-6.081-6.743c-0.024-6.733-0.453-5.621,7.054-5.688C211.004,137.052,211.004,137.094,211.003,143.361z"/>
	<path fill-rule="evenodd" clip-rule="evenodd" d="M177.863,137.088c6.673,0.044,5.847-0.601,5.886,6.47
		c0.033,5.979,0.005,5.979-6.458,5.975c-5.938-0.006-5.944-0.006-5.934-6.548C171.368,136.073,171.109,137.187,177.863,137.088z"/>
	<path fill-rule="evenodd" clip-rule="evenodd" d="M156.525,143.371c-0.001,6.163-0.001,6.163-6.298,6.161
		c-6.208-0.003-6.213-0.003-6.206-6.363c0.009-7.356-0.092-5.984,7.202-6.067C156.525,137.04,156.526,137.094,156.525,143.371z"/>
	<path fill-rule="evenodd" clip-rule="evenodd" d="M225.881,115.646c0.042-6.575-0.558-5.751,6.561-5.789
		c5.845-0.031,5.845-0.004,5.84,6.554c-0.005,5.829-0.005,5.829-7.004,5.817C225.878,122.221,225.878,122.221,225.881,115.646z"/>
	<path fill-rule="evenodd" clip-rule="evenodd" d="M198.633,115.831c0.054-6.872-0.56-5.938,6.782-5.967
		c6.405-0.024,5.536-0.482,5.58,6.762c0.035,5.61,0.002,5.611-6.773,5.603C198.63,122.223,198.63,122.223,198.633,115.831z"/>
	<path fill-rule="evenodd" clip-rule="evenodd" d="M253.111,170.269c0.051-6.876-0.625-5.896,6.762-5.947
		c5.746-0.039,5.746-0.005,5.742,6.275c-0.003,6.328-0.003,6.328-6.678,6.32C253.109,176.909,253.109,176.909,253.111,170.269z"/>
	<path fill-rule="evenodd" clip-rule="evenodd" d="M334.122,211.607c0,16.53-0.104,33.061,0.08,49.588
		c0.041,3.611-1.161,4.57-4.58,4.479c-9.836-0.259-8.385,0.917-8.4-8.212c-0.055-31.46-0.022-62.92-0.02-94.38
		c0-5.377,0.006-5.41,5.559-5.38c8.728,0.049,7.303-0.771,7.34,7.515C334.173,180.681,334.122,196.144,334.122,211.607z"/>
	<path fill-rule="evenodd" clip-rule="evenodd" d="M374.957,211.571c0,16.514-0.095,33.028,0.075,49.541
		c0.036,3.493-0.954,4.673-4.492,4.569c-9.21-0.271-7.997,0.751-8.009-7.83c-0.045-31.695,0.054-63.393-0.104-95.087
		c-0.021-4.064,1.148-5.31,5.186-5.152c8.596,0.336,7.296-0.604,7.327,7.214C375.001,180.408,374.957,195.99,374.957,211.571z"/>
	<path fill-rule="evenodd" clip-rule="evenodd" d="M75.514,211.629c0-16.396,0.099-32.794-0.077-49.188
		c-0.039-3.578,0.824-4.949,4.621-4.819c9.78,0.334,8.339-1.02,8.355,8.24c0.056,31.46,0.023,62.92,0.021,94.38
		c0,5.352-0.007,5.388-5.202,5.366c-9.171-0.038-7.656,0.729-7.697-7.589C75.46,242.555,75.514,227.092,75.514,211.629z"/>
	<path fill-rule="evenodd" clip-rule="evenodd" d="M34.68,211.483c0-16.514,0.083-33.028-0.069-49.541
		c-0.031-3.338,1.011-4.396,4.309-4.304c9.479,0.265,8.168-0.935,8.183,8.011c0.051,31.562,0.023,63.125,0.016,94.688
		c-0.001,5.255-0.02,5.255-5.316,5.278c-0.666,0.003-1.343-0.08-1.996,0.014c-3.9,0.557-5.295-0.806-5.231-5.005
		C34.829,244.247,34.679,227.864,34.68,211.483z"/>
</g>
</svg>
