<?xml version="1.0" encoding="utf-8"?>
<!-- Generator: Adobe Illustrator 16.0.0, SVG Export Plug-In . SVG Version: 6.00 Build 0)  -->
<!DOCTYPE svg PUBLIC "-//W3C//DTD SVG 1.1//EN" "http://www.w3.org/Graphics/SVG/1.1/DTD/svg11.dtd">
<svg version="1.1" id="Layer_1" xmlns="http://www.w3.org/2000/svg" xmlns:xlink="http://www.w3.org/1999/xlink" x="0px" y="0px"
	 width="191.763px" height="191.976px" viewBox="0 0 191.763 191.976" enable-background="new 0 0 191.763 191.976"
	 xml:space="preserve">
<g>
	<path fill-rule="evenodd" clip-rule="evenodd" d="M128.983,0c4.016,2.087,5.105,5.376,5.061,9.838
		c-0.207,20.867-0.067,41.738-0.154,62.607c-0.005,1.246-0.631,3.305-1.438,3.573c-2.131,0.708-4.104,0.473-4.017-2.882
		c0.19-7.243,0.057-14.494,0.057-21.743c0-13.746-0.077-27.492,0.058-41.237c0.031-3.129-0.7-4.435-4.139-4.42
		C96.919,5.852,69.427,5.84,41.935,5.746c-3.127-0.011-4.112,1.028-4.028,4.108c0.188,6.868,0.082,13.745,0.049,20.618
		c-0.025,5.225-2.294,7.463-7.573,7.486c-6.873,0.029-13.75,0.152-20.617-0.054c-3.195-0.096-4.019,1.105-4.015,4.12
		c0.069,46.611,0.06,93.224,0.016,139.835c-0.003,2.766,0.375,4.435,3.826,4.414c3.297-0.02,3.57-1.617,3.549-4.196
		c-0.028-3.35-0.796-7.376,0.762-9.842c1.276-2.018,5.492-2.178,8.881-3.322c0-0.752-0.004-1.98,0.001-3.21
		c0.025-5.851,0.031-5.949-5.822-6.193c-2.557-0.106-3.738-1.382-3.796-3.659c-0.121-4.745-0.113-9.497-0.003-14.242
		c0.069-2.992,2.104-3.476,4.674-3.46c4.936,0.029,4.937-0.065,4.947-4.886c0.003-1.5,0-2.999,0-4.499
		c0.002-6.434,0.181-6.612,6.812-6.621c5.749-0.008,11.497,0.018,17.245-0.02c1.32-0.009,2.639-0.22,5.096-0.44
		c-10.515-8.712-14.42-19.234-12.502-31.562c1.21-7.779,5.367-14.159,11.64-19.06c12.851-10.039,31.219-8.426,42.473,3.519
		c10.078,10.695,13.185,31.566-2.683,45.619c0.487,4.079,0.988,7.455,1.262,10.849c0.18,2.234,0.042,4.496,0.032,6.745
		c-0.027,5.398-0.429,5.805-5.682,5.896c-0.989,0.017-1.977,0.095-3.272,0.16c0,3.256,0,6.416,0,9.778
		c0.631,0.127,1.21,0.321,1.798,0.35c7.157,0.354,7.157,0.349,7.158,7.707c0.001,3-0.166,6.01,0.038,8.995
		c0.247,3.622-1.261,4.936-4.811,4.751c-1.422-0.074-4.072,0.638-4.139,1.226c-0.335,2.909-0.08,5.905,0.23,8.843
		c0.034,0.316,1.762,0.618,2.711,0.643c3.122,0.084,6.247,0.038,9.372,0.039c5.932,0.002,5.932,0.001,6.425,5.798
		c-33.947,0-67.893,0-101.987,0c0-52.493,0-104.987,0-157.48C11.499,22.997,22.997,11.498,34.496,0C65.992,0,97.487,0,128.983,0z
		 M70.275,70.09c-14.411,0.083-26.041,11.663-26.022,25.908c0.02,14.395,11.873,26,26.437,25.882
		c14.681-0.118,25.669-11.486,25.594-26.479C96.213,81.236,84.676,70.008,70.275,70.09z M48,186.179c7.492,0,14.982,0,22.474-0.001
		c7.213,0,7.135,0.001,6.975-7.188c-0.055-2.455-0.764-3.67-3.427-3.661c-17.355,0.057-34.71,0.047-52.064,0.009
		c-2.332-0.005-3.531,0.847-3.379,3.292c0.069,1.118,0.113,2.259-0.017,3.367c-0.393,3.355,1.151,4.301,4.345,4.236
		C31.267,186.064,39.634,186.177,48,186.179z M57.622,138.183c8.23,0,16.46,0.012,24.69-0.005c4.573-0.009,4.676-0.151,4.683-5.35
		c0.007-5.278-0.111-5.46-4.599-5.465c-15.836-0.021-31.673-0.01-47.509-0.009c-6.728,0-6.551,0.006-6.707,6.696
		c-0.08,3.405,1.222,4.252,4.379,4.189C40.91,138.072,49.267,138.182,57.622,138.183z M57.4,170.121
		c8.617,0,17.235-0.052,25.852,0.031c2.677,0.025,3.991-0.936,3.749-3.715c-0.086-0.991-0.093-2.005,0.005-2.994
		c0.31-3.117-1.063-4.096-4.136-4.031c-8.239,0.175-16.484,0.059-24.727,0.059c-8.742,0.001-17.485,0.082-26.227-0.044
		c-2.736-0.038-3.98,0.853-3.675,3.648c0.094,0.864,0.123,1.763-0.007,2.618c-0.538,3.534,1.119,4.544,4.439,4.482
		C40.913,170.027,49.157,170.127,57.4,170.121z M48.337,143.681c-8.485,0-16.976,0.183-25.452-0.085
		c-3.61-0.115-4.715,1.218-4.32,4.506c0.088,0.738,0.075,1.501,0.006,2.243c-0.25,2.685,0.794,3.731,3.624,3.715
		c17.219-0.103,34.438-0.088,51.657-0.012c2.522,0.012,3.775-0.743,3.563-3.39c-0.09-1.116-0.1-2.253,0.006-3.367
		c0.259-2.727-0.812-3.717-3.631-3.666C65.309,143.782,56.822,143.682,48.337,143.681z M32.47,12.316
		c-6.708,6.686-13.534,13.489-20.203,20.136c5.569,0,11.888,0.066,18.202-0.094c0.684-0.018,1.895-1.333,1.913-2.07
		C32.536,24.067,32.47,17.839,32.47,12.316z"/>
	<path fill-rule="evenodd" clip-rule="evenodd" d="M117.735,191.976c-7.129-2.125-8.77-7.34-8.725-14.156
		c0.181-27.104,0.071-54.212,0.077-81.318c0.002-9.791,3.204-12.966,13.039-12.967c19.237-0.001,38.473-0.007,57.71,0.003
		c8.225,0.005,11.83,3.618,11.833,11.901c0.014,27.481-0.119,54.963,0.093,82.442c0.053,6.884-1.699,11.981-8.786,14.095
		C161.229,191.976,139.482,191.976,117.735,191.976z M150.352,122.127c10.62,0,21.24-0.034,31.859,0.023
		c2.698,0.015,4.103-0.688,4.026-3.822c-0.19-7.866-0.025-15.741-0.079-23.612c-0.028-4.275-1.387-5.678-5.577-5.685
		c-20.115-0.034-40.23-0.033-60.345-0.002c-4.218,0.006-5.612,1.394-5.647,5.625c-0.064,7.746,0.125,15.496-0.089,23.237
		c-0.094,3.379,1.229,4.317,4.368,4.283C129.361,122.062,139.857,122.133,150.352,122.127z M169.459,154.005
		c4.495,0,8.992-0.063,13.485,0.027c2.133,0.042,3.263-0.586,3.24-2.936c-0.066-6.868-0.06-13.736,0.003-20.603
		c0.021-2.243-0.95-3.147-3.141-3.139c-8.991,0.037-17.981,0.034-26.972,0.006c-1.994-0.007-3.057,0.811-3.057,2.86
		c0,6.992,0.004,13.984-0.013,20.977c-0.005,2.018,0.873,2.884,2.967,2.837C160.467,153.934,164.964,154.004,169.459,154.005z
		 M168.678,186.167c4.117,0,8.232,0.002,12.349-0.001c3.347-0.003,5.119-1.647,5.131-5.028c0.021-6.112-0.071-12.226,0.047-18.335
		c0.052-2.693-1.155-3.391-3.625-3.364c-8.73,0.093-17.463,0.097-26.193-0.003c-2.39-0.026-3.428,0.817-3.411,3.215
		c0.049,6.735,0.061,13.471,0.002,20.205c-0.023,2.648,1.265,3.428,3.725,3.351C160.692,186.082,164.687,186.173,168.678,186.167z
		 M131.127,154.005c4.497,0,8.995-0.08,13.489,0.034c2.243,0.057,3.194-0.811,3.181-3.029c-0.039-6.869-0.031-13.739-0.011-20.608
		c0.006-2.253-1.149-3.056-3.284-3.047c-8.868,0.036-17.736,0.045-26.604-0.01c-2.368-0.015-3.377,0.929-3.35,3.339
		c0.076,6.619,0.09,13.24-0.009,19.858c-0.038,2.535,0.819,3.606,3.474,3.51C122.38,153.89,126.756,154.007,131.127,154.005z
		 M131.368,159.477c-4.493,0-8.989,0.086-13.479-0.034c-2.421-0.064-3.366,0.886-3.336,3.28c0.076,6.115,0.012,12.231,0.034,18.348
		c0.012,3.346,1.699,5.09,5.081,5.093c8.238,0.008,16.476-0.043,24.713,0.039c2.36,0.022,3.447-0.827,3.428-3.247
		c-0.053-6.74-0.051-13.48,0-20.22c0.018-2.347-0.877-3.373-3.336-3.297C140.108,159.573,135.737,159.477,131.368,159.477z"/>
	<path fill-rule="evenodd" clip-rule="evenodd" d="M163.479,0c0.779,1.723,1.949,3.383,2.24,5.185
		c0.389,2.407,0.096,4.925,0.096,7.396c0.333-0.204,0.665-0.407,0.998-0.611c2.011,1.379,3.895,3.039,6.079,4.043
		c1.485,0.683,3.388,0.548,5.11,0.604c5.103,0.167,6.974,1.969,6.986,7.063c0.029,12.115-0.014,24.229,0.034,36.344
		c0.008,2.118-0.152,3.583-2.94,3.522c-2.721-0.059-2.572-1.661-2.569-3.489c0.017-11.24-0.032-22.481,0.038-33.722
		c0.016-2.577,0.097-4.554-3.529-4.563c-3.729-0.01-3.84,1.956-3.825,4.76c0.077,15.362,0.009,30.724,0.065,46.086
		c0.008,2.295-0.186,3.84-3.154,3.679c-2.857-0.154-2.328-2.038-2.33-3.699c-0.019-16.111-0.011-32.222-0.012-48.334
		c-0.001-5.677-0.003-5.68-5.705-5.686c-3.372-0.003-6.755,0.171-10.113-0.047c-3.244-0.211-4.336,0.904-4.305,4.244
		c0.15,16.609,0.075,33.222,0.056,49.832c-0.001,1.665,0.523,3.634-2.343,3.673c-2.167,0.029-3.149-0.529-3.14-2.926
		c0.073-18.734,0.062-37.469,0.018-56.203c-0.006-2.482,1.144-3.929,3.471-3.943c2.593-0.016,3.204-1.277,3.107-3.494
		c-0.071-1.621-0.281-3.312,0.078-4.853c0.394-1.691,1.37-3.247,2.092-4.86C154.48,0,158.979,0,163.479,0z M156.965,12.998
		c3.013,0.793,3.666-0.882,3.689-3.659c0.024-2.822-1.208-3.547-3.831-3.607c-2.991-0.07-3.876,1.168-3.881,3.96
		C152.937,12.519,154.1,13.547,156.965,12.998z"/>
	<path fill-rule="evenodd" clip-rule="evenodd" d="M66.722,50.723c-16.486,0-32.971,0.013-49.457-0.018
		c-1.851-0.004-4.149,0.752-4.22-2.599c-0.068-3.222,1.983-2.844,3.999-2.844c33.471,0.005,66.941,0.002,100.412,0.007
		c1.837,0,3.753-0.447,3.81,2.613c0.061,3.265-1.967,2.843-3.963,2.842C100.442,50.722,83.582,50.723,66.722,50.723z"/>
	<path fill-rule="evenodd" clip-rule="evenodd" d="M74.905,31.366c-7.728,0-15.455-0.002-23.182,0.001
		c-1.8,0.001-3.507,0.148-3.474-2.584c0.031-2.676,1.72-2.624,3.522-2.625c15.455-0.006,30.909-0.001,46.363-0.008
		c1.985,0,3.765,0.023,3.667,2.873c-0.098,2.833-2.068,2.319-3.715,2.327C90.36,31.387,82.633,31.366,74.905,31.366z"/>
	<path fill-rule="evenodd" clip-rule="evenodd" d="M31.828,63.481c-5.241,0-10.482-0.048-15.722,0.024
		c-1.94,0.027-3.057-0.426-3.051-2.673c0.006-2.097,0.795-2.851,2.889-2.837C26.55,58.061,37.157,58.052,47.763,58
		c1.942-0.009,2.975,0.407,3.017,2.67c0.045,2.495-1.162,2.872-3.23,2.839C42.311,63.426,37.069,63.481,31.828,63.481z"/>
	<path fill-rule="evenodd" clip-rule="evenodd" d="M107.041,63.48c-3.608,0-7.218-0.059-10.825,0.023
		c-1.931,0.044-3.023-0.392-3.005-2.661c0.017-2.078,0.7-2.874,2.821-2.85c7.465,0.083,14.932,0.083,22.397,0
		c2.123-0.023,2.799,0.774,2.817,2.853c0.02,2.277-1.083,2.699-3.007,2.658C114.508,63.425,110.774,63.48,107.041,63.48z"/>
	<path fill-rule="evenodd" clip-rule="evenodd" d="M70.342,77.119c1.005,0.388,2.375,0.565,2.467,1.007
		c0.539,2.608,2.49,2.098,4.263,2.523c0.932,0.224,2.019,1.834,2.098,2.889c0.055,0.743-1.368,2.125-2.307,2.305
		c-1.93,0.369-4.125-0.329-5.931,0.266c-1.587,0.523-2.79,2.209-4.163,3.381c1.177,1.245,2.213,3.355,3.558,3.574
		c4.238,0.691,7.524,2.479,8.666,6.614c1.255,4.543-0.296,8.331-4.512,10.873c-0.616,0.372-0.962,1.324-1.253,2.077
		c-0.789,2.04-4.361,2.939-5.141,1.07c-0.922-2.213-2.313-2.331-4.092-2.206c-2.048,0.144-2.947-0.623-2.943-2.775
		c0.003-2.201,1.012-2.832,3.009-2.72c1.743,0.098,3.496,0.004,5.245,0.018c2.366,0.019,4.302-0.636,4.478-3.375
		c0.171-2.677-1.489-3.593-3.928-3.968c-6.076-0.937-9.272-5.034-8.151-10.705c0.361-1.827,1.661-3.517,2.727-5.141
		c1.023-1.561,2.217-3.033,3.501-4.387C68.53,77.81,69.519,77.552,70.342,77.119z"/>
	<path fill-rule="evenodd" clip-rule="evenodd" d="M150.239,114.561c-7.86,0.001-15.722-0.102-23.579,0.052
		c-3.186,0.063-4.637-1.054-4.529-4.292c0.108-3.241,0.049-6.487,0.024-9.731c-0.023-2.935,1.339-4.321,4.329-4.314
		c15.969,0.036,31.939,0.029,47.909,0.006c2.955-0.004,4.398,1.479,4.46,4.321c0.07,3.243,0.014,6.488,0.019,9.731
		c0.005,2.88-1.208,4.308-4.304,4.265C166.459,114.482,158.349,114.559,150.239,114.561z M150.377,109.081
		c6.609,0,13.221-0.083,19.828,0.042c2.522,0.048,3.283-1.018,3.208-3.338c-0.067-2.12-0.012-4.021-3.011-4.009
		c-13.344,0.054-26.688,0.055-40.032-0.002c-2.995-0.013-2.97,1.875-3.029,3.999c-0.063,2.295,0.667,3.401,3.207,3.351
		C137.156,108.995,143.768,109.081,150.377,109.081z"/>
	<path fill-rule="evenodd" clip-rule="evenodd" d="M169.785,143.679c-2.112,0-4.229-0.091-6.333,0.025
		c-2.094,0.116-2.861-0.726-2.869-2.812c-0.008-2.187,1.001-2.765,2.974-2.728c4.222,0.078,8.456-0.129,12.661,0.145
		c0.936,0.061,2.255,1.489,2.554,2.53c0.547,1.908-0.489,2.985-2.654,2.865C174.012,143.587,171.896,143.679,169.785,143.679z"/>
	<path fill-rule="evenodd" clip-rule="evenodd" d="M169.797,175.327c-2.247,0-4.531,0.237-6.721-0.114
		c-0.916-0.146-2.279-1.557-2.264-2.371c0.017-0.899,1.338-2.493,2.163-2.54c4.478-0.256,8.984-0.261,13.463-0.017
		c0.853,0.047,2.405,1.789,2.254,2.416c-0.245,1.023-1.522,2.323-2.554,2.521c-2.046,0.395-4.221,0.116-6.342,0.116
		C169.797,175.335,169.797,175.331,169.797,175.327z"/>
	<path fill-rule="evenodd" clip-rule="evenodd" d="M166.828,165.66c1.461-0.101,2.923-0.261,4.384-0.251
		c0.292,0.003,0.793,0.648,0.808,1.014c0.015,0.368-0.448,1.077-0.713,1.083c-1.484,0.031-2.971-0.105-4.457-0.185
		C166.842,166.768,166.835,166.214,166.828,165.66z"/>
	<path fill-rule="evenodd" clip-rule="evenodd" d="M167.202,177.864c1.621,0.355,3.241,0.71,4.861,1.065
		c-0.181,0.426-0.354,1.216-0.543,1.22c-1.589,0.029-3.181-0.085-4.771-0.156C166.899,179.283,167.05,178.574,167.202,177.864z"/>
	<path fill-rule="evenodd" clip-rule="evenodd" d="M134.664,143.85c-1.656,2.083,1.147,6.288-3.679,5.93
		c-2.171-0.161-2.176-0.104-2.785-5.697c-0.852-0.125-1.796-0.41-2.726-0.369c-2.051,0.091-3.371-0.359-3.332-2.822
		c0.035-2.187,1.12-2.884,3.065-2.704c2.735,0.254,3.524-1.184,3.293-3.626c-0.175-1.844,0.196-3.063,2.556-3.094
		c2.4-0.032,3.148,0.97,2.896,3.136c-0.288,2.469,0.568,3.858,3.287,3.583c2.027-0.205,2.938,0.636,2.937,2.778
		c-0.001,2.173-0.959,2.887-2.977,2.737C136.344,143.638,135.474,143.795,134.664,143.85z"/>
	<path fill-rule="evenodd" clip-rule="evenodd" d="M139.487,177.991c-1.198,1.166-2.311,2.249-3.529,3.436
		c-1.743-1.49-3.13-2.675-4.754-4.063c-1.466,1.264-2.843,2.452-4.539,3.916c-1.126-1.063-2.252-2.127-3.568-3.37
		c1.331-1.653,2.54-3.154,3.867-4.803c-1.291-1.511-2.475-2.895-4.107-4.805c1.195-1.145,2.312-2.213,3.537-3.386
		c1.805,1.525,3.198,2.701,4.793,4.049c1.489-1.263,2.88-2.444,4.568-3.876c1.167,1.114,2.291,2.187,3.608,3.445
		c-1.341,1.544-2.538,2.921-3.993,4.596C136.639,174.628,137.881,176.096,139.487,177.991z"/>
</g>
</svg>
