<?xml version="1.0" encoding="utf-8"?>
<!-- Generator: Adobe Illustrator 16.0.0, SVG Export Plug-In . SVG Version: 6.00 Build 0)  -->
<!DOCTYPE svg PUBLIC "-//W3C//DTD SVG 1.1//EN" "http://www.w3.org/Graphics/SVG/1.1/DTD/svg11.dtd">
<svg version="1.1" id="Layer_1" xmlns="http://www.w3.org/2000/svg" xmlns:xlink="http://www.w3.org/1999/xlink" x="0px" y="0px"
	 width="191.412px" height="183.471px" viewBox="0 0 191.412 183.471" enable-background="new 0 0 191.412 183.471"
	 xml:space="preserve">
<g>
	<path fill-rule="evenodd" clip-rule="evenodd" d="M0,17.478c2.252-2.031,4.198-4.652,6.803-6.003
		C31.846-1.51,58.049-3.036,84.854,4.687c7.967,2.295,15.634,5.729,23.279,9.01c4.781,2.053,6.895,5.934,6.686,11.405
		c-0.582,15.218-0.85,30.447-1.186,45.674c-0.048,2.176-1.076,3.109-2.988,4.105c-6.152,3.204-12.029,6.939-18.181,10.149
		c-2.901,1.514-6.101,2.759-9.307,3.341c-21.62,3.928-42.68,0.948-63.407-5.582c-1.763-0.556-3.548-1.044-6.066-1.781
		c0,4.55-0.098,8.686,0.1,12.807c0.031,0.659,1.301,1.408,2.137,1.856c14.698,7.877,30.299,12.135,47.063,11.208
		c4.688-0.26,9.334-1.259,14.408-1.977c-1.215,4.083-2.256,8.099-3.688,11.969c-0.293,0.792-2.011,1.341-3.141,1.495
		c-15.784,2.165-31.057-0.122-45.931-5.533c-3.382-1.229-6.688-2.671-10.017-4.009c-3.507,7.285-0.899,15.23,5.832,18.852
		c15.863,8.533,32.68,10.998,50.372,8.264c0.587-0.091,1.189-0.086,1.899-0.135c0.81,3.899,1.587,7.637,2.599,12.505
		c-7.843,0.29-15.419,1.257-22.884,0.707c-16.463-1.212-31.608-6.595-45.246-16.129c-3.864-2.702-5.581-5.809-5.505-10.6
		c0.229-14.365,0.164-28.738,0.015-43.105C1.519,62.193,1.16,45.207,0.812,28.222C0.774,26.385,0.281,24.559,0,22.727
		C0,20.978,0,19.227,0,17.478z M13.256,54.676c0,3.588,0.224,6.208-0.056,8.774c-0.367,3.366,1.102,4.832,4.174,5.869
		c14.824,5.003,29.929,8.63,45.625,8.862c12.449,0.186,24.544-2.038,35.949-7.269c0.998-0.457,2.355-1.527,2.416-2.393
		c0.266-3.789,0.114-7.608,0.114-12.043C71.721,69.507,42.704,69.235,13.256,54.676z M18.745,19.844
		c21.596,14.089,58.927,14.174,74.841,1.139C78.31,10.181,34.847,9.393,18.745,19.844z M13.214,31.592
		c-1.418,7.248-0.963,8.385,4.641,11.483c9.815,5.426,20.25,8.796,31.45,10.099c17.81,2.07,34.46-1.45,50.251-9.595
		c1.07-0.552,2.359-1.816,2.477-2.868c0.334-3.019,0.117-6.099,0.117-9.891C72.333,47.099,42.908,46.151,13.214,31.592z"/>
	<path fill-rule="evenodd" clip-rule="evenodd" d="M118.859,68.486c6.082,1.227,11.777,2.501,17.52,3.507
		c13.409,2.35,26.529,1.286,39.426-3.249c3.866-1.359,5.91-3.256,5.219-7.535c-0.25-1.551-0.04-3.177-0.04-5.358
		c-1.849,0.664-3.105,1.085-4.339,1.563c-17.184,6.67-34.664,7.677-52.443,2.729c-6.76-1.882-5.283-1.438-5.417-7.271
		c-0.028-1.229-0.005-2.461-0.005-4.131c4.979,1.329,9.535,2.814,14.201,3.742c15.852,3.15,31,0.755,45.439-6.353
		c3.096-1.523,3.93-5.275,2.314-10.353c-1.01,0.444-2.012,0.829-2.965,1.313c-16.663,8.435-34.037,9.818-51.987,5.171
		c-6.868-1.778-8.021-4.336-5.608-10.517c9.357,1.299,18.5,3.346,27.695,3.627c9.322,0.285,18.435-2.07,27.311-7.678
		c-9.152-4.178-17.94-6.681-27.17-6.667c-9.14,0.014-18.278,0.864-27.719,1.363c-0.522-1.833-1.297-4.55-2.24-7.86
		c2.404-0.605,4.947-1.375,7.541-1.876c19.93-3.851,38.953-0.371,57.292,7.562c8.106,3.507,8.846,6.125,8.442,14.92
		c-0.697,15.217-0.846,30.459-1.096,45.693c-0.143,8.743-0.031,17.492-0.037,26.238c-0.005,6.404-1.029,7.934-7.151,10.697
		c-4.087-6.246-1.383-13.479-2.625-20.74c-6.987,4.6-7.488-2.322-10.732-5.203c4.868-3.829,14.258-4.222,10.565-14.27
		c-5.115,1.23-10.279,2.428-15.418,3.725c-3.436,0.866-6.398,0.401-9.56-1.523c-11.029-6.718-23.073-9.07-36.079-7.203
		c-0.166-0.664-0.379-1.228-0.432-1.806C118.707,70.138,118.806,69.52,118.859,68.486z"/>
	<path fill-rule="evenodd" clip-rule="evenodd" d="M129.502,79.086c15.447,0.606,27.932,8.223,37.604,20.857
		c13.932,18.199,15.506,43.718,3.595,60.95c-8.929,12.916-29.286,25.826-49.882,21.842c-20.492-3.966-36.717-20.199-41.099-40.39
		c-6.36-29.297,13.695-58.7,42.974-62.889C124.66,79.177,126.676,79.229,129.502,79.086z M88.211,130.945
		c-0.068,7.524,1.744,14.637,5.506,21.085c8.582,14.715,21.43,23.364,38.557,21.316c16.061-1.92,28.857-10.422,34.595-26.574
		c7.427-20.91-5.596-48.251-26.438-55.727c-3.912-1.403-8.296-2.351-12.409-2.188C105.901,89.733,88.264,108.595,88.211,130.945z"/>
	<path fill-rule="evenodd" clip-rule="evenodd" d="M133.516,111.458c0.205,3.942,0.24,7.27,0.664,10.546
		c0.088,0.67,1.58,1.278,2.521,1.695c3.402,1.506,7.079,2.534,10.222,4.45c5.274,3.216,7.124,8.68,5.276,14.64
		c-2.346,7.562-6.568,13.375-14.938,15.15c-1.061,0.225-1.813,1.655-2.846,2.311c-1.458,0.925-3.145,2.421-4.547,2.236
		c-1.381-0.181-2.589-2.094-3.762-3.351c-1.172-1.255-2.006-2.9-3.338-3.914c-3.454-2.63-7.206-4.87-10.63-7.532
		c-2.138-1.663-2.569-4.082-0.647-6.236c1.998-2.239,4.332-2.088,6.622-0.214c2.087,1.708,4.21,3.37,7.263,5.809
		c0-5.76,0.146-10.399-0.143-15.012c-0.047-0.772-1.909-1.562-3.045-2.108c-2.771-1.332-5.969-2.056-8.338-3.879
		c-4.417-3.398-5.873-8.396-4.752-13.77c1.115-5.338,5.305-7.936,10.133-9.505c2.328-0.756,4.533-1.013,5.791-3.857
		c1.203-2.722,5.614-2.466,7.052,0.461c1.179,2.398,2.93,3.082,5.11,3.692c1.553,0.435,3.119,0.942,4.543,1.682
		c2.589,1.349,3.515,3.581,2.299,6.271c-1.16,2.565-3.37,2.592-5.744,1.804C136.924,112.376,135.529,112.032,133.516,111.458z
		 M134.709,148.778c5.208-0.845,9.604-5.786,9.404-9.84c-0.146-2.99-4.363-5.671-9.404-5.852
		C134.709,138.232,134.709,143.365,134.709,148.778z M124.482,111.407c-3.997-0.253-6.816,1.685-6.719,4.4
		c0.102,2.82,3.043,4.928,6.719,4.766C124.482,117.508,124.482,114.446,124.482,111.407z"/>
</g>
</svg>
