<?xml version="1.0" encoding="utf-8"?>
<!-- Generator: Adobe Illustrator 16.0.0, SVG Export Plug-In . SVG Version: 6.00 Build 0)  -->
<!DOCTYPE svg PUBLIC "-//W3C//DTD SVG 1.1//EN" "http://www.w3.org/Graphics/SVG/1.1/DTD/svg11.dtd">
<svg version="1.1" id="Layer_1" xmlns="http://www.w3.org/2000/svg" xmlns:xlink="http://www.w3.org/1999/xlink" x="0px" y="0px"
	 width="165.75px" height="166.399px" viewBox="0 0 165.75 166.399" enable-background="new 0 0 165.75 166.399"
	 xml:space="preserve">
<g>
	<path fill-rule="evenodd" clip-rule="evenodd" d="M32.285,82.673c0.017-27.57,23.039-50.726,50.684-50.456
		c27.143,0.264,50.386,20.787,50.483,50.532c0.092,28.063-21.25,50.478-50.36,50.569C53.695,133.409,32.828,110.511,32.285,82.673z
		 M128.279,82.777c-0.011-25.129-20.016-45.177-45.104-45.199c-25.2-0.023-45.467,20.2-45.453,45.353
		c0.014,24.925,20.291,45.19,45.232,45.206C108.274,128.152,128.291,108.121,128.279,82.777z"/>
	<path fill-rule="evenodd" clip-rule="evenodd" d="M0,72.986c4.126-27.14,17.447-47.887,40.73-62.079
		c6.044-3.685,6.104-3.587,5.389-10.265c7.28,0.95,14.455,1.886,22.614,2.951c-5.811,5.489-10.904,10.3-16.262,15.361
		c-0.524-1.027-0.806-1.549-1.062-2.084c-1.805-3.776-3.309-4.34-7.03-2.241c-13.748,7.754-24.53,18.542-31.232,32.825
		c-3.297,7.026-5.317,14.695-7.468,22.2C4.469,73.875,4.878,73.993,0,72.986z"/>
	<path fill-rule="evenodd" clip-rule="evenodd" d="M0.749,119.857c0.984-7.504,1.917-14.614,2.979-22.713
		c5.428,5.726,10.254,10.815,15.323,16.162c-0.998,0.575-1.59,0.977-2.231,1.275c-3.571,1.668-4.134,3.2-2.156,6.727
		c7,12.481,16.7,22.331,29.098,29.486c8.505,4.908,17.612,8.202,27.351,9.524c3.843,0.521,2.261,2.971,2.563,6.081
		c-7.006-1.883-13.58-3.115-19.76-5.411c-18.689-6.942-33.084-19.21-43.205-36.413C7.307,118.791,7.373,118.751,0.749,119.857z"/>
	<path fill-rule="evenodd" clip-rule="evenodd" d="M147.034,52.502c6.41-3.713,6.665-4.502,2.841-10.582
		c-12.81-20.368-31.106-32.608-54.854-36.5C90.968,4.757,92.516,2.417,92.577,0c13.489,1.544,25.589,6.064,36.638,13.411
		c10.666,7.093,19.26,16.187,25.759,27.236c3.503,5.955,3.487,5.964,10.215,5.389c-0.952,7.254-1.894,14.422-2.959,22.539
		C156.799,62.832,152.042,57.8,147.034,52.502z"/>
	<path fill-rule="evenodd" clip-rule="evenodd" d="M119.979,165.038c-7.498-0.962-14.608-1.874-22.718-2.914
		c5.74-5.435,10.833-10.256,16.126-15.267c0.468,0.737,0.765,1.108,0.96,1.526c2.076,4.435,3.422,4.898,7.784,2.399
		c12.183-6.983,21.782-16.576,28.824-28.727c4.735-8.171,8.017-16.929,9.32-26.245c0.552-3.946,2.264-4.037,5.476-3.311
		c-0.691,8.066-2.835,15.657-5.975,22.955c-7.339,17.055-19.07,30.289-35.082,39.697
		C118.928,158.539,118.907,158.502,119.979,165.038z"/>
	<path fill-rule="evenodd" clip-rule="evenodd" d="M82.88,121.132c-21.414-0.124-38.1-16.96-38.044-38.387
		c0.055-21.396,16.893-38.092,38.262-38.212c19.255-0.108,38.3,14.555,38.368,38.242C121.532,106.38,102.464,121.512,82.88,121.132z
		 M88.038,76.55c3.559,0.171,7.137,0.6,10.664,0.34c0.937-0.069,2.373-2.211,2.456-3.476c0.35-5.319-1.885-9.851-5.889-13.152
		c-2.299-1.896-3.274-3.78-3.022-6.645c0.247-2.808-1.252-4.122-4.063-4.063c-2.496,0.053-4.995,0.031-7.493,0.006
		c-2.572-0.025-4.172,1.117-3.951,3.783c0.201,2.409-0.988,3.445-2.902,4.561c-10.091,5.881-12.479,18.851-4.974,27.7
		c2.028,2.392,4.932,4.043,7.338,5.959c-2.45,0-5.072-0.002-7.694,0c-2.644,0.003-3.821,1.357-3.821,3.969
		c0.002,5.052,1.948,9.368,5.642,12.58c2.367,2.058,3.824,3.973,3.417,7.228c-0.299,2.392,1.068,3.756,3.534,3.789
		c2.747,0.036,5.494,0.02,8.242,0.01c2.412-0.008,3.925-1.194,3.699-3.639c-0.239-2.586,1.074-3.628,3.087-4.837
		c6.299-3.783,9.346-9.489,8.96-16.897c-0.362-6.958-3.832-11.949-9.819-15.312c-1.132-0.636-2.269-1.263-3.403-1.894L88.038,76.55z
		"/>
	<path fill-rule="evenodd" clip-rule="evenodd" d="M82.095,112.495c-1.029-5.526-5.623-7.94-8.713-11.439
		c-0.582-0.659-0.765-1.671-1.132-2.52c0.25-0.188,0.5-0.377,0.75-0.565c0.687,0.663,1.461,1.258,2.047,2
		c3.193,4.041,7.288,5.332,11.535,3.57c4.112-1.705,6.272-5.65,5.649-10.316c-0.563-4.217-3.833-7.066-8.811-7.679
		c-8.863-1.09-14.028-7.68-11.191-15.12c1.044-2.739,3.658-5.395,6.248-6.888c2.759-1.588,5.407-2.506,4.92-6.333
		c-0.025-0.195,0.177-0.472,0.349-0.625c0.171-0.152,0.438-0.198,1.539-0.651c-1.675,7.5,7.196,8.301,7.743,14.776
		c-0.819-0.808-1.725-1.547-2.443-2.437c-2.875-3.564-7.408-4.791-11.406-3.009c-4.065,1.81-6.158,5.853-5.413,10.458
		c0.655,4.055,4.048,6.966,8.661,7.435c7.024,0.712,11.15,4.33,12.099,10.608c0.763,5.049-2.605,9.477-8.807,12.369
		c-1.349,0.629-2.113,2.623-3,4.078C82.325,110.856,82.292,111.725,82.095,112.495z"/>
	<path fill-rule="evenodd" clip-rule="evenodd" d="M88.046,76.562c-1.596-0.021-3.289,0.279-4.754-0.167
		c-1.081-0.329-2.129-1.504-2.644-2.567c-0.192-0.398,1.322-2.298,1.788-2.202c1.103,0.227,2.133,1.142,3.026,1.962
		c0.958,0.878,1.725,1.967,2.575,2.963C88.038,76.55,88.046,76.562,88.046,76.562z"/>
	<path fill-rule="evenodd" clip-rule="evenodd" d="M81.166,91.425c1.421,1.153,2.842,2.306,4.263,3.459
		c-0.802,0.802-1.695,2.36-2.392,2.277c-2.939-0.352-2.839-2.669-2.84-4.767C80.52,92.071,80.843,91.748,81.166,91.425z"/>
</g>
</svg>
