<?xml version="1.0" encoding="utf-8"?>
<!-- Generator: Adobe Illustrator 16.0.0, SVG Export Plug-In . SVG Version: 6.00 Build 0)  -->
<!DOCTYPE svg PUBLIC "-//W3C//DTD SVG 1.1//EN" "http://www.w3.org/Graphics/SVG/1.1/DTD/svg11.dtd">
<svg version="1.1" id="Layer_1" xmlns="http://www.w3.org/2000/svg" xmlns:xlink="http://www.w3.org/1999/xlink" x="0px" y="0px"
	 width="143.607px" height="191.976px" viewBox="0 0 143.607 191.976" enable-background="new 0 0 143.607 191.976"
	 xml:space="preserve">
<g>
	<path fill-rule="evenodd" clip-rule="evenodd" d="M133.294,191.976c-40.995,0-81.99,0-122.984,0
		C1.782,189.063-0.035,182.665,0,174.34c0.219-52.233,0.219-104.467,0-156.699C-0.034,9.317,1.772,2.909,10.31,0
		C34.806,0,59.303,0,83.8,0c-0.1,1.236-0.286,2.472-0.287,3.708c-0.021,14.486-0.026,28.973-0.008,43.458
		c0.01,8.292,4.911,13.114,13.32,13.123c14.111,0.013,28.225,0.113,42.334-0.074c3.438-0.045,4.424,0.883,4.412,4.377
		c-0.127,36.59-0.228,73.182,0.035,109.771C143.665,182.688,141.81,189.067,133.294,191.976z M66.793,47.125
		c-0.496-5.123-3.373-7.363-6.706-8.443c-4.709-1.525-6.752-3.922-6.134-9.099c0.423-3.544-2.661-5.924-6.27-5.873
		c-3.946,0.056-6.383,2.622-6.093,7.249c0.235,3.756-0.762,5.749-4.595,7.043c-5.503,1.858-9.542,5.859-11.944,11.242
		c-5.141,11.515,2.038,24.671,15.492,28.152c3.466,0.897,7.146,0.933,10.68,1.613c4.644,0.894,8.281,4.616,8.203,8.07
		c-0.076,3.366-3.662,6.805-8.004,7.916c-4.566,1.168-8.526-0.014-12.401-2.458c-3.359-2.119-6.799-1.319-8.86,1.67
		c-2.076,3.011-1.496,6.415,1.681,8.889c1.368,1.066,2.856,2.319,4.465,2.665c4.605,0.986,5.64,3.667,5.314,8.044
		c-0.33,4.441,3.362,7.215,7.59,6.396c3.146-0.61,5.115-3.188,4.813-7.348c-0.264-3.626,0.772-5.414,4.396-6.793
		c9.444-3.595,14.369-11.777,13.645-21.371c-0.596-7.901-7.788-15.827-16.808-18.077c-3.598-0.897-7.396-0.958-11.05-1.669
		c-4.408-0.859-7.945-4.484-8.03-7.847c-0.087-3.448,3.616-6.995,8.179-8.143c4.449-1.119,8.362-0.057,12.044,2.41
		c2.275,1.525,4.813,1.997,6.958,0.234C64.965,50.276,65.977,48.228,66.793,47.125z M71.796,131.683
		c-13.495,0-26.99-0.007-40.485,0.005c-5.232,0.004-7.837,2.162-7.791,6.389c0.045,4.059,2.63,6.198,7.609,6.2
		c27.115,0.011,54.229,0.011,81.344,0c4.973-0.002,7.563-2.148,7.606-6.206c0.045-4.205-2.586-6.379-7.8-6.384
		C98.786,131.676,85.291,131.683,71.796,131.683z M71.421,168.275c13.995,0,27.99,0.029,41.984-0.018
		c4.22-0.015,6.716-2.5,6.676-6.371c-0.039-3.696-2.499-6.176-6.482-6.182c-27.865-0.038-55.729-0.039-83.593,0.035
		c-1.394,0.004-2.984,0.528-4.138,1.315c-2.482,1.692-2.943,4.384-2.055,7.031c0.966,2.877,3.22,4.224,6.375,4.211
		C43.932,168.244,57.677,168.275,71.421,168.275z M102.168,83.692c-3.997,0-7.995-0.05-11.992,0.014
		c-4.23,0.066-6.706,2.489-6.663,6.377c0.041,3.694,2.496,6.143,6.481,6.179c7.869,0.071,15.739,0.071,23.608,0
		c3.982-0.037,6.438-2.49,6.479-6.186c0.042-3.88-2.442-6.301-6.672-6.371C109.664,83.644,105.916,83.692,102.168,83.692z
		 M101.696,107.693c-3.997,0-7.996-0.079-11.991,0.023c-3.735,0.096-6.116,2.532-6.192,6.085c-0.08,3.752,2.323,6.399,6.204,6.446
		c7.993,0.096,15.989,0.085,23.982,0.007c3.944-0.039,6.385-2.562,6.382-6.277c-0.002-3.714-2.446-6.185-6.394-6.268
		C109.691,107.626,105.693,107.692,101.696,107.693z"/>
	<path fill-rule="evenodd" clip-rule="evenodd" d="M96.25,2.292c15.027,15.034,30.133,30.148,45.18,45.203
		c-0.238,0.025-1.018,0.186-1.797,0.188c-13.343,0.015-26.686-0.01-40.029,0.032c-2.084,0.006-3.571-0.083-3.55-2.894
		c0.11-14.091,0.059-28.182,0.08-42.273C96.133,2.343,96.328,2.139,96.25,2.292z"/>
</g>
</svg>
