<?xml version="1.0" encoding="utf-8"?>
<!-- Generator: Adobe Illustrator 16.0.0, SVG Export Plug-In . SVG Version: 6.00 Build 0)  -->
<!DOCTYPE svg PUBLIC "-//W3C//DTD SVG 1.1//EN" "http://www.w3.org/Graphics/SVG/1.1/DTD/svg11.dtd">
<svg version="1.1" id="Layer_1" xmlns="http://www.w3.org/2000/svg" xmlns:xlink="http://www.w3.org/1999/xlink" x="0px" y="0px"
	 width="189.848px" height="191.976px" viewBox="0 0 189.848 191.976" enable-background="new 0 0 189.848 191.976"
	 xml:space="preserve">
<g>
	<path fill-rule="evenodd" clip-rule="evenodd" d="M171.927,0c0.667,0.307,1.305,0.738,2.005,0.903
		c11.716,2.759,18.031,12.998,15.273,24.619c-5.663,23.865-14.689,46.314-31.083,64.794c-9.474,10.681-20.698,19.832-31.359,29.42
		c-2.324,2.091-2.672,3.298-1.14,6.085c11.208,20.385,0.227,45.621-22.107,51.049c-1.166,0.283-3.125,0.217-3.646-0.483
		c-0.689-0.925-0.777-2.806-0.337-3.982c3.682-9.844,2.54-19.057-3.066-27.867c-1.469-2.31-2.909-2.838-5.513-1.559
		c-6.059,2.977-6.126,2.841-10.775-1.809c-10.598-10.601-21.113-21.286-31.852-31.742c-2.78-2.707-3.345-5.041-1.583-8.516
		c2.473-4.876,2.283-4.994-2.576-7.601c-7.65-4.106-15.585-4.698-23.884-2.157c-1.737,0.532-3.745,0.181-5.627,0.236
		c0.038-1.905-0.35-3.939,0.18-5.696c6.207-20.589,30.004-30.682,49.296-20.739c3.36,1.731,4.817,1.052,6.942-1.623
		c12.152-15.293,25.006-29.889,41.712-40.531c16.49-10.504,34.416-17.428,53.399-21.8c0.94-0.217,1.828-0.663,2.74-1.002
		C169.927,0,170.927,0,171.927,0z M175.954,49.201c-0.731-0.836-1.479-1.798-2.333-2.654c-9.795-9.815-19.667-19.554-29.364-29.465
		c-2.083-2.128-3.805-2.399-6.502-1.25c-16.876,7.189-31.833,17.134-44.512,30.431c-15.748,16.516-29.906,34.197-40.35,54.642
		c-1.276,2.499-1.101,4.117,0.965,6.139c9.73,9.525,19.423,19.095,28.842,28.924c2.696,2.813,4.767,2.882,7.986,1.196
		c15.708-8.22,29.683-18.86,43.148-30.263c17.71-14.997,32.005-32.54,40.778-54.244C175.03,51.62,175.422,50.573,175.954,49.201z
		 M178.63,42.011c2.349-7.416,5.76-14.947,5.563-23.28c-0.182-7.648-8.453-13.926-15.971-12.421
		c-3.652,0.73-7.274,1.649-10.858,2.667c-3.133,0.89-6.192,2.038-8.731,2.888C158.719,22.001,168.587,31.918,178.63,42.011z
		 M99.404,139.006c6.997,9.306,9.053,19.397,6.902,31.158c9.304-4.271,14.767-10.633,17.134-19.553
		c2.312-8.71,1.097-16.892-4.249-24.615C112.491,130.4,106.165,134.561,99.404,139.006z M51.499,91.182
		c4.368-6.688,8.552-13.091,12.904-19.754c-10.048-6.025-19.885-6.385-29.882-1.317c-6.962,3.529-12.565,10.337-12.3,14.725
		C32.766,82.832,42.507,84.912,51.499,91.182z"/>
	<path fill-rule="evenodd" clip-rule="evenodd" d="M1.698,191.976c-2.348-2.202-2.154-4.233-0.079-6.682
		c16.882-19.908,33.69-39.877,50.477-59.865c2.064-2.458,3.911-2.727,6.161-0.297c2.122,2.289,4.422,4.413,6.602,6.649
		c3.005,3.083,3.029,4.124-0.232,6.979c-14.663,12.84-29.352,25.649-44.067,38.429c-5.739,4.983-11.572,9.86-17.362,14.786
		C2.698,191.976,2.198,191.976,1.698,191.976z M60.247,135.047c-1.875-1.765-3.338-3.141-5.026-4.729
		c-10.081,11.496-19.814,22.595-29.547,33.693c0.288,0.27,0.575,0.54,0.863,0.81c9.911-8.684,19.827-17.363,29.73-26.056
		C57.471,137.707,58.613,136.578,60.247,135.047z"/>
	<path fill-rule="evenodd" clip-rule="evenodd" d="M38.764,178.24c-2.73,0.07-4.021-2.193-2.776-4.47
		c0.463-0.848,1.274-1.52,1.976-2.223c9.867-9.881,19.736-19.759,29.62-29.623c3.182-3.174,4.172-3.171,7.388-0.028
		c2.229,2.18,4.402,4.415,6.615,6.608c2.181,2.163,2.185,4.117-0.589,5.722c-13.479,7.797-26.968,15.575-40.465,23.341
		C39.902,177.93,39.158,178.094,38.764,178.24z M72.406,147.114c-5.016,4.948-9.596,9.468-13.9,13.714
		c5.363-3.116,11.168-6.488,17.189-9.986C74.084,149.016,72.955,147.735,72.406,147.114z"/>
	<path fill-rule="evenodd" clip-rule="evenodd" d="M51.32,119.238c-0.764,1.12-1.315,2.231-2.137,3.082
		c-10.223,10.578-20.446,21.156-30.801,31.604c-0.918,0.925-2.754,0.94-4.165,1.379c-0.173-1.562-1.027-3.487-0.417-4.629
		c7.353-13.722,14.919-27.329,22.438-40.962c1.527-2.769,3.48-2.989,5.7-0.817c2.584,2.529,5.149,5.078,7.654,7.684
		C50.248,117.26,50.649,118.184,51.32,119.238z M30.079,132.341c0.18,0.084,0.36,0.169,0.541,0.254
		c3.506-3.316,7.083-6.562,10.5-9.967c3.748-3.734,3.597-4.3-1.64-7.346C36.343,120.975,33.211,126.657,30.079,132.341z"/>
	<path fill-rule="evenodd" clip-rule="evenodd" d="M117.073,101.845c-15.896-0.029-28.656-12.694-28.666-28.452
		c-0.01-15.779,13.13-28.907,28.882-28.856c15.599,0.05,28.45,12.922,28.652,28.697C146.144,89.028,133.183,101.875,117.073,101.845
		z M117.032,96.288c13.063,0.019,23.522-10.289,23.445-23.106c-0.075-12.514-10.773-23.138-23.297-23.136
		c-12.527,0.001-23.106,10.553-23.244,23.182C93.799,85.815,104.271,96.27,117.032,96.288z"/>
	<path fill-rule="evenodd" clip-rule="evenodd" d="M64.21,100.182c1.297,0.851,2.438,1.36,3.27,2.182
		c6.918,6.829,13.782,13.712,20.654,20.587c1.368,1.369,2.803,2.908,1.059,4.797c-1.977,2.142-3.552,0.503-5.006-0.951
		c-6.961-6.962-13.958-13.891-20.823-20.947c-0.815-0.838-1.183-2.375-1.216-3.602C62.134,101.638,63.352,100.997,64.21,100.182z"/>
	<path fill-rule="evenodd" clip-rule="evenodd" d="M140.434,33.106c0.958,0.622,1.782,0.984,2.382,1.574
		c4.261,4.193,8.597,8.322,12.604,12.747c0.825,0.91,0.367,2.98,0.5,4.516c-1.438-0.248-3.334,0.004-4.236-0.826
		c-4.394-4.046-8.593-8.312-12.677-12.674c-0.736-0.787-0.919-2.429-0.755-3.591C138.346,34.188,139.653,33.693,140.434,33.106z"/>
	<path fill-rule="evenodd" clip-rule="evenodd" d="M167.654,20.23c0.902,0.407,1.697,0.557,2.192,1.025
		c2.166,2.049,4.409,4.058,6.265,6.37c0.646,0.806,0.261,2.44,0.347,3.697c-1.348,0.03-3.128,0.624-3.961-0.016
		c-2.344-1.801-4.435-3.998-6.33-6.283c-0.633-0.764-0.615-2.308-0.425-3.414C165.838,21.054,166.988,20.681,167.654,20.23z"/>
	<path fill-rule="evenodd" clip-rule="evenodd" d="M137.355,73.529c-2.123,4.395-3.832,8.462-6.08,12.206
		c-0.547,0.912-3.26,1.492-4.286,0.939c-2.002-1.078-1.006-2.845,0.143-4.393c4.688-6.315,4.717-11.399,0.185-17.746
		c-1.039-1.455-2.474-3.255-0.361-4.383c1.097-0.586,4.018,0.077,4.597,1.065C133.757,64.984,135.345,69.113,137.355,73.529z"/>
	<path fill-rule="evenodd" clip-rule="evenodd" d="M110.95,85.818c2.927,0.417,5.002,0.389,6.795,1.086
		c1.113,0.433,1.798,1.965,2.676,3.003c-1.023,0.73-2.041,2.058-3.071,2.068c-2.306,0.023-4.714-0.342-6.883-1.108
		c-0.87-0.308-1.82-2.194-1.64-3.157C109,86.781,110.583,86.115,110.95,85.818z"/>
</g>
</svg>
