<?xml version="1.0" encoding="utf-8"?>
<!-- Generator: Adobe Illustrator 16.0.0, SVG Export Plug-In . SVG Version: 6.00 Build 0)  -->
<!DOCTYPE svg PUBLIC "-//W3C//DTD SVG 1.1//EN" "http://www.w3.org/Graphics/SVG/1.1/DTD/svg11.dtd">
<svg version="1.1" id="Layer_1" xmlns="http://www.w3.org/2000/svg" xmlns:xlink="http://www.w3.org/1999/xlink" x="0px" y="0px"
	 width="160.006px" height="191.976px" viewBox="0 0 160.006 191.976" enable-background="new 0 0 160.006 191.976"
	 xml:space="preserve">
<g>
	<path fill-rule="evenodd" clip-rule="evenodd" d="M77.019,191.976c-3.204-0.334-6.4-0.761-9.611-0.986
		c-21.999-1.545-43.101-6.479-62.727-16.794c-1.622-0.853-3.507-2.933-3.648-4.581c-0.665-7.796-1.264-15.659-0.946-23.46
		c0.452-11.139,5.809-17.395,16.471-20.392c12.105-3.402,23.238-8.897,34.413-15.783c5.743,17.969,11.401,35.671,17.314,54.17
		c0.906-1.349,1.459-1.936,1.738-2.633c0.741-1.851,1.181-3.84,2.065-5.612c3.347-6.709,4.123-12.872-0.721-19.656
		c-3.479-4.872-2.316-9.818,0.961-12.156c3.896-2.779,13.092-2.389,16.247,0.736c2.734,2.707,2.261,6.031,1.148,9.101
		c-1.05,2.901-2.94,5.488-4.132,8.351c-0.6,1.443-1.01,3.356-0.576,4.772c1.693,5.521,3.757,10.928,5.684,16.378
		c0.429,0.009,0.858,0.019,1.287,0.028c5.641-17.688,11.282-35.378,16.987-53.269c5.158,2.782,9.922,5.749,15.006,7.994
		c6.599,2.913,13.301,5.803,20.232,7.707c9.696,2.664,14.723,9.226,15.52,18.43c0.734,8.487-0.168,17.144-0.777,25.694
		c-0.108,1.516-2.038,3.403-3.597,4.235c-15.123,8.071-31.362,12.765-48.266,15.175c-6.035,0.86-12.153,1.13-18.227,1.734
		c-1.214,0.12-2.398,0.536-3.597,0.816C82.518,191.976,79.769,191.976,77.019,191.976z"/>
	<path fill-rule="evenodd" clip-rule="evenodd" d="M83.018,0c1.797,0.416,3.6,0.812,5.391,1.252
		c7.241,1.783,13.433,5.271,18.176,11.144c0.608,0.753,1.287,1.682,2.127,1.981c8.012,2.845,10.369,9.544,10.649,16.888
		c0.288,7.529-0.584,15.102-0.969,23.089c4.154,2.585,4.629,3.314,3.402,9.493c-1.252,6.305-2.123,12.833-7.599,17.409
		c-0.891,0.743-0.999,2.477-1.372,3.779c-2.375,8.288-6.92,15.191-13.466,20.733c-14.194,12.018-32.99,9.639-44.758-6.356
		c-3.877-5.27-4.738-12.852-8.851-17.827c-4.616-5.582-6.307-11.688-7.759-18.211c-1.154-5.187-0.23-6.988,4.314-9.245
		c-0.588-3.529-1.377-7.055-1.735-10.624c-1.471-14.642,5.236-25.529,16.253-34.218c5.841-4.608,12.208-8.25,19.974-8.518
		C77.627,0.742,78.444,0.267,79.269,0C80.518,0,81.769,0,83.018,0z"/>
</g>
</svg>
