<?xml version="1.0" encoding="utf-8"?>
<!-- Generator: Adobe Illustrator 16.0.0, SVG Export Plug-In . SVG Version: 6.00 Build 0)  -->
<!DOCTYPE svg PUBLIC "-//W3C//DTD SVG 1.1//EN" "http://www.w3.org/Graphics/SVG/1.1/DTD/svg11.dtd">
<svg version="1.1" id="Layer_1" xmlns="http://www.w3.org/2000/svg" xmlns:xlink="http://www.w3.org/1999/xlink" x="0px" y="0px"
	 width="191.976px" height="191.976px" viewBox="0 0 191.976 191.976" enable-background="new 0 0 191.976 191.976"
	 xml:space="preserve">
<g>
	<path fill-rule="evenodd" clip-rule="evenodd" d="M188.977,191.976c-62.992,0-125.985,0-188.977,0c0-1.25,0-2.499,0-3.75
		c5.189-4.268,10.285-8.658,15.625-12.728c1.54-1.173,3.769-1.955,5.705-2.005c8.348-0.217,16.705-0.072,25.058-0.122
		c1.211-0.008,2.896,0.082,3.552-0.624c3.673-3.956,7.096-8.143,10.605-12.249c-0.177-0.342-0.354-0.685-0.531-1.027
		c-1.301,0-2.602,0-3.903,0c-13.34-0.001-26.681,0.032-40.022-0.019c-7.345-0.028-13.092-4.537-15.098-11.621
		c-0.23-0.812-0.656-1.567-0.992-2.35c0-43.744,0-87.489,0-131.233c1.791-4.267,3.203-8.832,7.642-11.25
		C9.76,1.845,12.041,0.99,14.248,0c54.493,0,108.986,0,163.479,0c0.284,0.236,0.53,0.582,0.858,0.694
		c9.703,3.329,13.084,8.027,13.086,18.272c0.006,16.989,0.002,33.977,0.002,50.966c0,24.109,0.031,48.218-0.015,72.327
		c-0.021,10.771-6.548,17.198-17.306,17.209c-12.867,0.012-25.733-0.003-38.6,0.013c-1.288,0.002-2.576,0.136-4.75,0.258
		c1.383,1.75,2.354,2.695,2.99,3.83c4.604,8.206,11.395,11.131,20.771,9.99c6.261-0.763,13.187-1.435,18.932,0.491
		c5.469,1.832,9.79,7.087,14.615,10.838c0.197,0.153,0.391,0.312,0.583,0.472C192.334,188.217,192.344,188.946,188.977,191.976z
		 M95.608,154.01c26.109,0,52.219,0.006,78.329-0.003c8.264-0.003,12.224-3.868,12.229-12.093c0.023-41.35,0.025-82.7-0.003-124.05
		c-0.005-7.892-4.153-12.048-12.034-12.052c-52.094-0.025-104.187-0.025-156.281,0C9.968,5.815,5.817,9.975,5.812,17.858
		c-0.026,41.35-0.025,82.701-0.002,124.051c0.005,8.224,3.964,12.095,12.22,12.098C43.889,154.016,69.749,154.01,95.608,154.01z
		 M179.101,185.943c0.166-0.383,0.332-0.767,0.498-1.149c-3.522-1.778-5.39-5.937-10.187-5.934
		c-48.968,0.032-97.937,0.004-146.905,0.045c-4.714,0.004-6.97,3.78-10.777,7.038C68.308,185.943,123.704,185.943,179.101,185.943z
		 M134.646,173.04c-3.396-4.14-6.021-7.719-9.073-10.886c-1.29-1.34-3.47-2.546-5.261-2.567
		c-16.223-0.195-32.447-0.123-48.671-0.096c-1.095,0.003-2.637-0.127-3.21,0.501c-3.643,3.979-7.071,8.155-11.235,13.048
		C83.479,173.04,108.521,173.04,134.646,173.04z"/>
	<path fill-rule="evenodd" clip-rule="evenodd" d="M95.993,133.953c-25.738,0-51.477,0.003-77.215-0.003
		c-4.88-0.001-5.669-0.748-5.671-5.609c-0.015-36.483-0.014-72.967-0.001-109.451c0.001-4.754,1.001-5.784,5.657-5.785
		c51.477-0.012,102.954-0.012,154.431,0c4.656,0.001,5.674,1.039,5.676,5.77c0.014,36.484,0.014,72.967,0,109.451
		c-0.002,4.871-0.792,5.622-5.661,5.624C147.47,133.956,121.731,133.953,95.993,133.953z M96.008,128.492
		c24.114,0,48.228,0.002,72.341-0.002c5.021-0.001,5.044-0.013,5.045-4.901c0.007-33.359,0.007-66.719,0-100.078
		c-0.001-4.91-0.024-4.93-5.087-4.931c-48.227-0.005-96.453-0.005-144.68,0c-5.021,0-5.044,0.021-5.045,4.972
		c-0.007,33.359-0.007,66.718,0,100.077c0.001,4.849,0.027,4.859,5.086,4.86C47.781,128.494,71.895,128.492,96.008,128.492z"/>
	<path fill-rule="evenodd" clip-rule="evenodd" d="M96.054,141.258c4.235-0.003,8.475,0.076,12.707-0.035
		c2.192-0.059,2.769,0.904,2.753,2.919c-0.014,1.966-0.813,2.602-2.697,2.589c-8.597-0.056-17.194-0.062-25.791,0
		c-2.01,0.015-2.563-0.881-2.556-2.726c0.007-1.796,0.442-2.813,2.502-2.771C87.331,141.318,91.693,141.259,96.054,141.258z"/>
	<path fill-rule="evenodd" clip-rule="evenodd" d="M62.611,95.687c-10.858,0-21.718,0.049-32.575-0.065
		c-1.246-0.014-2.482-0.939-3.723-1.44c0.633-1.394,1.357-2.754,1.874-4.188c0.519-1.437,1.171-2.947,1.179-4.428
		c0.085-15.851,0.047-31.703,0.058-47.554c0.004-5.305,0.208-5.499,5.494-5.504c8.113-0.007,16.227,0.063,24.338-0.032
		c3.017-0.036,4.223,1.149,4.271,4.202c0.135,8.59,0.22,8.589,8.699,8.589c5.866,0,11.732-0.005,17.599,0.002
		c5.258,0.006,5.855,0.579,5.86,5.724c0.011,11.857-0.055,23.715,0.091,35.571c0.016,1.258,1.357,2.455,1.856,3.766
		c0.488,1.285,1.047,2.736,0.853,4.004c-0.09,0.587-1.891,1.288-2.921,1.297C84.579,95.722,73.595,95.686,62.611,95.687z
		 M34.9,63.734c0,7.732,0.069,15.464-0.041,23.194c-0.035,2.436,0.846,3.328,3.254,3.285c5.61-0.102,11.223-0.08,16.833-0.012
		c2.203,0.026,3.109-0.793,3.1-3.075c-0.062-15.462-0.059-30.926-0.007-46.388c0.007-2.14-0.872-2.817-2.902-2.791
		c-5.735,0.074-11.475,0.129-17.207-0.024c-2.608-0.069-3.099,1.09-3.069,3.366C34.96,48.77,34.9,56.251,34.9,63.734z
		 M76.678,50.726c-3.246,0-6.504-0.163-9.731,0.086c-1.166,0.089-3.043,0.988-3.232,1.824c-0.546,2.426,1.55,2.371,3.173,2.309
		c2.059-0.079,2.943,0.748,2.938,2.844c-0.005,2.208-1.161,2.573-3.071,2.759c-1.119,0.109-2.139,1.227-3.204,1.89
		c1.066,0.727,2.15,1.43,3.193,2.189c1.029,0.75,2.612,1.386,2.896,2.375c0.583,2.031-0.91,2.825-2.84,2.85
		c-1.882,0.025-3.413,0.312-3.344,2.869c0.132,4.866-0.075,9.742,0.138,14.602c0.042,0.948,1.354,1.841,2.081,2.758
		c0.684-0.968,1.864-1.892,1.957-2.913c0.27-2.973,0.2-5.988,0.078-8.98c-0.108-2.653,0.944-4.015,3.646-4.008
		c3.621,0.009,7.241-0.014,10.861,0.013c2.621,0.02,3.836,1.34,3.757,4.001c-0.085,2.869-0.201,5.76,0.079,8.605
		c0.113,1.146,1.242,2.191,1.908,3.282c0.74-1.049,2.06-2.068,2.119-3.154c0.243-4.481-0.003-8.987,0.148-13.477
		c0.086-2.571-0.884-3.711-3.437-3.605c-1.952,0.082-3.365-0.305-3.305-2.852c0.061-2.536,1.73-2.088,3.291-2.458
		c1.199-0.284,3.038-1.197,3.166-2.045c0.392-2.588-1.91-2.101-3.375-1.994c-2.634,0.194-3.583-1.155-2.902-3.326
		c0.297-0.947,1.908-1.499,2.945-2.196c1.145-0.77,2.316-1.5,3.476-2.247c-1.223-0.667-2.406-1.801-3.677-1.909
		C83.187,50.541,79.925,50.725,76.678,50.726z M73.203,84.247c0,0.582,0.024,0.957-0.004,1.33c-0.203,2.723-0.087,4.788,3.754,4.715
		c3.634-0.07,3.702-2.038,3.551-4.603c-0.044-0.746-0.096-1.51,0.007-2.244c0.492-3.489-1.311-4.215-4.383-4.122
		C72.052,79.448,73.527,82.387,73.203,84.247z"/>
	<path fill-rule="evenodd" clip-rule="evenodd" d="M61.088,102.965c6.733-0.001,13.469,0.101,20.199-0.043
		c3.313-0.071,4.884,1.076,4.704,4.54c-0.162,3.108-0.099,6.234-0.017,9.35c0.078,2.94-1.155,4.402-4.186,4.396
		c-13.966-0.031-27.932-0.034-41.897,0.004c-2.952,0.008-4.393-1.285-4.357-4.265c0.039-3.242,0.053-6.485-0.005-9.727
		c-0.053-2.931,1.154-4.331,4.237-4.286C46.872,103.037,53.98,102.966,61.088,102.965z M61.087,108.444
		c-5.607,0-11.218,0.122-16.819-0.051c-2.813-0.087-3.314,1.227-3.286,3.613c0.027,2.307,0.382,3.78,3.233,3.755
		c11.088-0.1,22.178-0.101,33.267-0.003c3.013,0.027,3.009-1.73,3.044-3.889c0.035-2.156-0.277-3.549-2.993-3.471
		C72.055,108.556,66.57,108.446,61.087,108.444z"/>
	<path fill-rule="evenodd" clip-rule="evenodd" d="M137.408,41.019c-6.113,0-12.227-0.024-18.339,0.015
		c-1.901,0.012-3.395-0.032-3.397-2.673c-0.004-2.468,1.136-2.858,3.224-2.848c12.475,0.06,24.95,0.061,37.425-0.001
		c2.106-0.011,3.207,0.418,3.209,2.868c0.002,2.664-1.525,2.664-3.409,2.653C149.883,40.998,143.646,41.019,137.408,41.019z"/>
	<path fill-rule="evenodd" clip-rule="evenodd" d="M148.846,61.089c4.602,0,9.204,0.03,13.807-0.015
		c1.863-0.018,3.113,0.391,3.159,2.633c0.051,2.409-1.214,2.892-3.28,2.88c-9.328-0.051-18.658-0.041-27.986-0.006
		c-1.852,0.006-3.046-0.284-3.074-2.61c-0.029-2.431,1.097-2.943,3.195-2.909C139.391,61.143,144.119,61.088,148.846,61.089z"/>
	<path fill-rule="evenodd" clip-rule="evenodd" d="M146.977,92.155c-5.123,0-10.248-0.017-15.371,0.009
		c-1.797,0.01-3.159-0.188-3.15-2.575c0.008-2.368,1.361-2.601,3.158-2.599c10.248,0.013,20.496,0.016,30.744-0.001
		c1.941-0.003,3.504,0.271,3.41,2.797c-0.09,2.412-1.744,2.366-3.418,2.368C157.226,92.159,152.102,92.156,146.977,92.155z"/>
	<path fill-rule="evenodd" clip-rule="evenodd" d="M126.336,79.358c-4.607,0.001-9.216-0.017-13.824,0.01
		c-1.862,0.01-3.518,0.002-3.453-2.64c0.056-2.311,1.438-2.582,3.225-2.58c9.465,0.012,18.93,0.017,28.395,0.002
		c1.87-0.003,3.045,0.455,3.047,2.724c0.004,2.441-1.455,2.495-3.191,2.489C135.801,79.346,131.068,79.356,126.336,79.358z"/>
	<path fill-rule="evenodd" clip-rule="evenodd" d="M126.63,99.822c4.729,0.001,9.466-0.134,14.183,0.11
		c0.99,0.052,2.452,1.335,2.748,2.333c0.629,2.123-0.885,2.729-2.813,2.723c-9.584-0.029-19.168,0.058-28.748-0.12
		c-0.982-0.018-2.504-1.36-2.787-2.366c-0.594-2.106,0.918-2.72,2.855-2.698C116.922,99.858,121.775,99.821,126.63,99.822z"/>
	<path fill-rule="evenodd" clip-rule="evenodd" d="M137.854,45.268c1.988,0,3.981,0.079,5.965-0.023
		c1.996-0.102,2.947,0.516,2.941,2.719c-0.006,2.141-0.826,2.833-2.881,2.786c-4.225-0.098-8.455-0.109-12.68,0.002
		c-2.189,0.058-2.76-0.91-2.744-2.916c0.016-1.954,0.794-2.666,2.686-2.589C133.375,45.338,135.615,45.27,137.854,45.268z"/>
	<path fill-rule="evenodd" clip-rule="evenodd" d="M116.693,61.09c1.491,0,2.984,0.041,4.473-0.012
		c1.838-0.065,3.07,0.271,3.12,2.588c0.052,2.391-1.005,2.998-3.141,2.926c-3.103-0.104-6.231,0.173-9.304-0.146
		c-0.991-0.104-2.343-1.426-2.645-2.451c-0.559-1.9,0.523-3.016,2.652-2.919C113.461,61.15,115.079,61.091,116.693,61.09z"/>
	<path fill-rule="evenodd" clip-rule="evenodd" d="M158.186,79.342c-1.611-0.002-3.301,0.291-4.807-0.109
		c-0.945-0.251-2.244-1.55-2.236-2.368c0.008-0.896,1.275-2.476,2.101-2.549c3.321-0.294,6.704-0.328,10.017,0.013
		c0.913,0.094,1.66,1.816,2.482,2.791c-0.907,0.742-1.718,1.884-2.744,2.129C161.475,79.614,159.798,79.344,158.186,79.342z"/>
	<path fill-rule="evenodd" clip-rule="evenodd" d="M158.201,104.972c-1.485,0-3.07,0.319-4.426-0.102
		c-1.08-0.335-1.878-1.575-2.801-2.413c0.873-0.876,1.682-2.414,2.632-2.507c3.188-0.313,6.443-0.288,9.637,0.007
		c0.901,0.083,2.321,1.52,2.333,2.353c0.014,0.866-1.257,2.271-2.204,2.515c-1.626,0.418-3.437,0.115-5.171,0.115
		C158.201,104.951,158.201,104.961,158.201,104.972z"/>
	<path fill-rule="evenodd" clip-rule="evenodd" d="M114.994,92.097c-1.361,0-2.801,0.271-4.053-0.1
		c-0.766-0.227-1.764-1.47-1.716-2.194c0.063-0.942,0.983-2.534,1.665-2.606c2.814-0.297,5.694-0.293,8.508-0.002
		c0.678,0.07,1.689,1.694,1.645,2.556c-0.043,0.822-1.131,2-1.996,2.272c-1.239,0.391-2.691,0.1-4.053,0.1
		C114.994,92.114,114.994,92.105,114.994,92.097z"/>
	<path fill-rule="evenodd" clip-rule="evenodd" d="M52.021,41.762c0.586,1.13,1.462,2.204,1.698,3.403
		c0.452,2.303-1.12,2.538-2.976,2.566c-2.08,0.031-2.813-1.046-2.377-2.769c0.297-1.172,1.247-2.18,1.905-3.262
		C50.855,41.721,51.438,41.742,52.021,41.762z"/>
	<path fill-rule="evenodd" clip-rule="evenodd" d="M54.295,64.509c-1.066,0.682-2.054,1.68-3.218,1.972
		c-1.609,0.405-2.854-0.156-2.817-2.291c0.031-1.82,0.229-3.419,2.511-3.032c1.204,0.205,2.295,1.078,3.437,1.648
		C54.236,63.374,54.266,63.941,54.295,64.509z"/>
	<path fill-rule="evenodd" clip-rule="evenodd" d="M50.122,76.709c-0.608-1.104-1.485-2.146-1.762-3.328
		c-0.435-1.856,0.56-2.634,2.507-2.644c1.978-0.009,3.328,0.514,2.848,2.685c-0.261,1.179-1.204,2.207-1.839,3.303
		C51.291,76.719,50.706,76.714,50.122,76.709z"/>
	<path fill-rule="evenodd" clip-rule="evenodd" d="M54.205,84.292c-1.141,0.555-2.231,1.378-3.434,1.605
		c-2.367,0.447-2.464-1.213-2.509-3.011c-0.055-2.144,1.173-2.728,2.816-2.307c1.166,0.299,2.156,1.285,3.224,1.965
		C54.27,83.126,54.237,83.709,54.205,84.292z"/>
	<path fill-rule="evenodd" clip-rule="evenodd" d="M45.707,45.048c-2.072,1.349-3.159,2.61-4.029,2.475
		c-0.983-0.153-2.252-1.424-2.542-2.45c-0.518-1.837,0.468-3.271,2.581-2.778C42.79,42.546,43.675,43.601,45.707,45.048z"/>
	<path fill-rule="evenodd" clip-rule="evenodd" d="M50.692,50.288c1.576,1.967,2.714,2.801,2.993,3.862
		c0.521,1.987-0.683,3.221-2.648,2.714c-1.048-0.27-2.364-1.452-2.574-2.434C48.278,53.571,49.473,52.418,50.692,50.288z"/>
	<path fill-rule="evenodd" clip-rule="evenodd" d="M44.636,64.542c-0.999,0.668-2.101,1.978-2.968,1.837
		c-0.988-0.16-2.446-1.612-2.448-2.505c-0.001-0.924,1.387-2.409,2.376-2.607c0.857-0.172,2.006,1.114,3.026,1.755
		C44.627,63.529,44.632,64.035,44.636,64.542z"/>
	<path fill-rule="evenodd" clip-rule="evenodd" d="M40.693,76.667c-0.554-1.045-1.389-2.037-1.6-3.148
		c-0.382-2.01,0.777-3.243,2.724-2.616c0.972,0.313,2.064,1.748,2.181,2.779c0.104,0.924-1.055,1.99-1.656,2.994
		C41.792,76.672,41.243,76.669,40.693,76.667z"/>
	<path fill-rule="evenodd" clip-rule="evenodd" d="M42.608,80.101c0.513,1.059,1.566,2.218,1.392,3.148
		c-0.189,1.011-1.38,2.324-2.38,2.595c-2.16,0.586-2.909-1.026-2.513-2.828c0.238-1.082,1.224-2,1.874-2.991
		C41.523,80.051,42.065,80.076,42.608,80.101z"/>
	<path fill-rule="evenodd" clip-rule="evenodd" d="M45.557,55c-2.101,0.986-3.349,2.07-4.074,1.792
		c-1.012-0.388-1.632-1.795-2.42-2.766c1.029-0.717,2.022-1.908,3.1-1.99C42.933,51.976,43.817,53.404,45.557,55z"/>
	<path fill-rule="evenodd" clip-rule="evenodd" d="M77.585,54.53c0.586,1.021,1.457,1.981,1.691,3.077
		c0.339,1.584-0.092,2.854-2.253,2.879c-2.088,0.022-3.152-0.823-2.772-2.813c0.213-1.114,1.115-2.097,1.707-3.14
		C76.5,54.532,77.042,54.531,77.585,54.53z"/>
	<path fill-rule="evenodd" clip-rule="evenodd" d="M76.795,63.1c1.318,2.008,2.551,3.074,2.382,3.824
		c-0.242,1.072-1.509,1.914-2.338,2.853c-0.876-0.92-2.199-1.726-2.474-2.8C74.178,66.243,75.453,65.135,76.795,63.1z"/>
</g>
</svg>
