<?xml version="1.0" encoding="utf-8"?>
<!-- Generator: Adobe Illustrator 16.0.0, SVG Export Plug-In . SVG Version: 6.00 Build 0)  -->
<!DOCTYPE svg PUBLIC "-//W3C//DTD SVG 1.1//EN" "http://www.w3.org/Graphics/SVG/1.1/DTD/svg11.dtd">
<svg version="1.1" id="Layer_1" xmlns="http://www.w3.org/2000/svg" xmlns:xlink="http://www.w3.org/1999/xlink" x="0px" y="0px"
	 width="191.976px" height="147.286px" viewBox="0 0 191.976 147.286" enable-background="new 0 0 191.976 147.286"
	 xml:space="preserve">
<g>
	<path fill-rule="evenodd" clip-rule="evenodd" d="M0,132.946c2.304-3.08,5.648-1.978,8.637-2.047
		c5.574-0.127,5.597-0.045,5.599-5.63c0.008-28.619-0.005-57.238,0.025-85.856c0.002-1.984-0.26-4.27,0.607-5.87
		c0.89-1.644,2.989-3.678,4.604-3.717c12.558-0.305,25.126-0.168,38.667-0.168c-4.892,4.017-9.033,7.545-13.345,10.85
		c-0.854,0.655-2.361,0.606-3.57,0.623c-4.864,0.064-9.729,0.026-14.935,0.026c0,28.13,0,56.029,0,84.25c46.4,0,92.799,0,139.506,0
		c0-27.978,0-55.874,0-84.025c-2.295-0.142-4.473-0.277-7.237-0.448c1.451-3.539,2.752-6.728,4.074-9.907
		c0.141-0.34,0.399-0.894,0.615-0.899c3.557-0.086,7.258-0.689,10.613,0.123c1.622,0.393,2.894,3.344,3.757,5.377
		c0.591,1.393,0.248,3.201,0.249,4.823c0.009,27.244-0.011,54.488,0.016,81.732c0.011,10.51-0.676,8.342,8.458,8.773
		c1.907,0.09,3.761,1.297,5.64,1.99c0,0.75,0,1.5,0,2.25c-0.281,0.398-0.675,0.758-0.824,1.201
		c-2.655,7.852-6.42,10.689-14.568,10.772c-6.245,0.064-12.5-0.191-18.733,0.094c-3.952,0.18-6.094-0.615-5.824-5.169
		c0.164-2.761-1.507-4.903-4.578-4.784c-2.832,0.109-4.006,2.197-4.318,4.802c-0.089,0.741-0.114,1.502-0.057,2.246
		c0.191,2.483-1.254,2.938-3.295,2.794c-3.374-0.236-2.154-2.831-2.195-4.545c-0.074-3.087-1.229-5.304-4.452-5.28
		c-2.974,0.023-4.625,2.193-4.31,5.034c0.465,4.201-1.415,4.911-5.127,4.896c-30.228-0.122-60.458-0.064-90.686-0.071
		c-6.495-0.001-12.994,0.091-19.484-0.097c-5.918-0.171-10.385-3.679-12.363-9.227C0.837,136.95,0.39,136.083,0,135.196
		C0,134.446,0,133.696,0,132.946z"/>
	<path fill-rule="evenodd" clip-rule="evenodd" d="M88.931,61.934c-5.303-6.391-10.536-12.719-15.793-19.027
		c-4.465-5.359-3.273-4.582-8.333-1.03c-5.621,3.943-11.124,8.055-16.695,12.068c-0.938,0.676-1.969,1.225-2.957,1.833
		c-0.217-0.299-0.434-0.597-0.651-0.896c8.357-6.913,16.715-13.824,25.381-20.992c5.689,5.459,11.291,10.595,16.589,16.026
		c2.417,2.478,4.066,2.636,6.725,0.289c11.139-9.837,22.406-19.533,33.759-29.122c2.512-2.122,2.748-3.672,0.417-5.983
		c-1.82-1.805-3.297-3.956-5.653-6.841c14.218-2.882,27.48-5.57,40.743-8.258c0.271,0.362,0.542,0.726,0.813,1.088
		c-5.106,12.422-10.211,24.843-15.71,38.22c-2.68-3.097-4.856-5.273-6.619-7.745c-1.818-2.551-3.366-2.401-5.794-0.733
		c-14.61,10.041-29.322,19.934-44.006,29.867C90.545,61.103,89.878,61.409,88.931,61.934z"/>
	<path fill-rule="evenodd" clip-rule="evenodd" d="M48.423,93.19c0.003,5.862,0.151,11.73-0.091,17.583
		c-0.069,1.668-0.856,3.756-2.052,4.827c-1.95,1.745-4.717-0.237-4.767-3.398c-0.102-6.609-0.041-13.22-0.043-19.831
		c-0.001-5.862,0.024-11.724-0.007-17.586c-0.013-2.319,0.351-4.452,3.202-4.513c2.977-0.064,3.698,2.178,3.729,4.585
		C48.472,80.967,48.42,87.079,48.423,93.19z"/>
	<path fill-rule="evenodd" clip-rule="evenodd" d="M62.777,98.459c0,4.482-0.025,8.966,0.011,13.448
		c0.018,2.27-0.791,4.426-3.162,4.036c-1.394-0.23-3.467-2.421-3.511-3.786c-0.304-9.327-0.279-18.672,0.01-28
		c0.038-1.222,2.051-3.151,3.397-3.396c2.475-0.449,3.282,1.574,3.265,3.874C62.752,89.243,62.777,93.851,62.777,98.459z"/>
	<path fill-rule="evenodd" clip-rule="evenodd" d="M92.077,98.257c0.001,4.616-0.011,9.232,0.006,13.848
		c0.008,2.315-0.943,4.311-3.344,3.846c-1.253-0.243-3.006-2.381-3.043-3.704c-0.261-9.349-0.149-18.709-0.124-28.066
		c0.006-2.181,0.977-3.638,3.361-3.561c2.395,0.078,3.148,1.64,3.145,3.788C92.071,89.024,92.076,93.641,92.077,98.257z"/>
	<path fill-rule="evenodd" clip-rule="evenodd" d="M144.324,96.655c-2.613,0.004-5.225,0.012-7.837,0.001
		c-2.342-0.009-4.308-0.639-4.347-3.437c-0.039-2.776,1.776-3.528,4.214-3.514c5.349,0.032,10.698,0.011,16.047,0.014
		c2.27,0.001,3.994,0.811,4.022,3.348c0.028,2.487-1.638,3.496-3.89,3.564C149.799,96.714,147.061,96.651,144.324,96.655z"/>
	<path fill-rule="evenodd" clip-rule="evenodd" d="M144.374,106.949c2.874-0.003,5.787-0.278,8.604,0.123
		c1.252,0.178,3.285,1.773,3.236,2.625c-0.077,1.337-1.564,3.657-2.547,3.707c-6.333,0.318-12.698,0.272-19.032-0.051
		c-0.892-0.045-2.415-2.334-2.296-3.44c0.116-1.082,1.861-2.658,3.058-2.825C138.337,106.677,141.375,106.953,144.374,106.949z"/>
	<path fill-rule="evenodd" clip-rule="evenodd" d="M77.679,106.367c0,1.984,0.483,4.141-0.146,5.899
		c-0.546,1.525-2.352,2.602-3.601,3.876c-1.057-1.299-2.878-2.517-3.026-3.911c-0.417-3.924-0.42-7.95,0.004-11.872
		c0.149-1.378,2.013-2.571,3.094-3.848c1.218,1.177,3.053,2.159,3.505,3.581c0.608,1.914,0.151,4.167,0.151,6.274
		C77.666,106.367,77.673,106.367,77.679,106.367z"/>
	<path fill-rule="evenodd" clip-rule="evenodd" d="M106.932,106.294c0.003,2.11,0.452,4.359-0.146,6.282
		c-0.438,1.41-2.25,2.392-3.451,3.564c-1.097-1.147-3.023-2.215-3.141-3.456c-0.398-4.181-0.431-8.453,0.009-12.625
		c0.136-1.288,2.23-2.37,3.427-3.547c1.1,1.151,2.784,2.14,3.159,3.492C107.332,101.964,106.928,104.185,106.932,106.294z"/>
</g>
</svg>
