<?xml version="1.0" encoding="utf-8"?>
<!-- Generator: Adobe Illustrator 16.0.0, SVG Export Plug-In . SVG Version: 6.00 Build 0)  -->
<!DOCTYPE svg PUBLIC "-//W3C//DTD SVG 1.1//EN" "http://www.w3.org/Graphics/SVG/1.1/DTD/svg11.dtd">
<svg version="1.1" id="Layer_1" xmlns="http://www.w3.org/2000/svg" xmlns:xlink="http://www.w3.org/1999/xlink" x="0px" y="0px"
	 width="191.719px" height="191.976px" viewBox="0 0 191.719 191.976" enable-background="new 0 0 191.719 191.976"
	 xml:space="preserve">
<g>
	<path fill-rule="evenodd" clip-rule="evenodd" d="M69.741,191.976c-0.668-1.77-1.84-3.519-1.913-5.313
		c-0.243-5.987-0.101-11.991-0.09-17.988c0.017-9.028,3.542-14.015,12.107-17.191c0.667-0.247,1.29-0.616,2.455-1.181
		c-7.312-6.234-9.064-14.128-7.713-22.882c0.794-5.147,2.649-9.896,6.756-13.424c7.518-6.458,22.293-6.391,29.545,0.259
		c5.368,4.922,6.588,11.456,6.851,18.393c0.27,7.139-2.824,12.723-7.634,17.414c0.226,0.41,0.261,0.577,0.339,0.601
		c11.323,3.386,14.763,11.51,13.856,22.515c-0.368,4.468,0.126,9.003-0.153,13.483c-0.112,1.805-1.245,3.545-1.913,5.314
		C104.736,191.976,87.239,191.976,69.741,191.976z M91.745,156.438c-3.004,0-5.106-0.023-7.208,0.005
		c-6.788,0.094-11.232,4.471-11.318,11.23c-0.063,4.989,0.085,9.983-0.055,14.97c-0.071,2.521,0.71,3.584,3.374,3.566
		c12.974-0.088,25.95-0.068,38.924-0.013c2.312,0.01,3.412-0.677,3.348-3.203c-0.137-5.361,0.046-10.729-0.081-16.092
		c-0.116-4.915-3.637-9.413-8.36-10.165c-3.098-0.492-6.337-0.093-10.078-0.093c1.388,3.626,2.471,6.784,3.804,9.833
		c1.153,2.637,0.739,4.609-1.335,6.689c-6.813,6.833-6.683,6.83-13.565-0.023c-2.094-2.085-2.47-4.056-1.324-6.686
		C89.199,163.409,90.284,160.254,91.745,156.438z M80.467,137.241c2.365,11.347,15.581,16.586,24.327,9.788
		c1.945-1.512,3.737-3.367,5.157-5.377c3.167-4.481,2.824-5.535-1.918-8.371c-0.964-0.577-1.992-1.074-2.872-1.761
		c-2.847-2.223-5.237-2.728-8.333,0.163c-2.06,1.923-5.232,2.801-8.043,3.731C86.104,136.303,83.245,136.654,80.467,137.241z
		 M80.417,131.185c6.984-0.223,13.244-2.313,15.302-5.903c2.118-3.694,4.303-3.365,7.289-1.414c2.601,1.7,5.363,3.151,8.456,4.945
		c-0.507-11.239-9.155-14.825-17.225-14.071C84.683,115.635,79.012,122.487,80.417,131.185z M96.547,162.642
		c-0.373-0.006-0.747-0.013-1.12-0.02c-0.676,1.663-1.62,3.28-1.922,5.01c-0.166,0.945,0.542,2.274,1.264,3.054
		c0.402,0.434,2.015,0.453,2.417,0.029c0.73-0.772,1.46-2.1,1.296-3.039C98.178,165.938,97.229,164.313,96.547,162.642z"/>
	<path fill-rule="evenodd" clip-rule="evenodd" d="M0,165.729c2.161-3.684,3.877-7.756,6.637-10.917
		c1.881-2.155,5.222-3.035,8.271-4.681c-6.475-5.667-8.907-12.876-7.775-21.187c0.786-5.765,2.526-11.19,7.254-15.151
		c7.559-6.333,22.425-6.035,29.526,0.635c9.034,8.486,8.685,23.191-1.124,36.093c1.165,0.461,2.243,0.877,3.314,1.313
		c6.456,2.63,10.488,7.203,10.731,14.349c0.242,7.108,0.23,14.232,0.031,21.342c-0.042,1.502-1.382,2.968-2.124,4.451
		c-18.164,0-36.327,0-54.743,0C0,183.229,0,174.479,0,165.729z M24.629,156.436c-2.591,0-4.435-0.005-6.28,0.002
		c-8.077,0.026-12.436,4.333-12.539,12.469c-0.057,4.497,0.085,8.997-0.045,13.49c-0.078,2.658,0.772,3.839,3.62,3.817
		c12.991-0.097,25.983-0.073,38.974-0.014c2.333,0.011,3.495-0.767,3.46-3.217c-0.07-4.996,0.109-9.999-0.097-14.987
		c-0.178-4.306-1.522-8.566-5.849-10.085c-3.793-1.331-8.054-1.333-13.21-2.083c1.827,4.574,2.982,7.842,4.432,10.972
		c1.115,2.409,0.634,4.093-1.188,5.967c-7.209,7.414-7.101,7.411-14.279-0.055c-1.851-1.925-2.121-3.663-1.061-6.024
		C21.977,163.549,23.119,160.29,24.629,156.436z M13.397,137.937c1.412,6.144,9.604,12.984,15.793,12.912
		c5.421-0.063,14.462-7.733,15.425-13.148c0.117-0.658,0.125-1.773-0.245-2.013c-3.441-2.22-6.836-4.629-10.575-6.192
		c-1.019-0.426-3.045,2.098-4.798,2.786C23.96,134.259,18.826,135.989,13.397,137.937z M43.853,128.605
		c0.337-0.781,0.533-1.012,0.516-1.227c-0.597-7.849-7.582-13.369-16.447-12.741c-10.424,0.738-14.024,6.094-15.224,14.781
		c-0.077,0.554,1.151,1.896,1.593,1.82c5.491-0.939,11.397-1.288,14.746-6.714c1.594-2.581,3.32-2.647,5.597-1.319
		C37.627,124.952,40.615,126.709,43.853,128.605z M28.814,162.562c-3.619,4.727-3.612,6.414,0.032,8.909
		C32.461,168.95,32.456,167.419,28.814,162.562z"/>
	<path fill-rule="evenodd" clip-rule="evenodd" d="M137.232,191.976c-0.746-1.732-2.056-3.438-2.135-5.2
		c-0.269-5.98-0.139-11.981-0.094-17.974c0.071-9.413,3.417-14.11,12.28-17.398c0.573-0.213,1.119-0.501,2.168-0.975
		c-7.429-6.861-9.6-15.115-7.396-24.583c1.128-4.847,3.078-9.23,7.123-12.392c7.65-5.979,22.026-5.582,28.936,0.852
		c5.328,4.96,6.609,11.454,6.887,18.368c0.287,7.136-2.963,12.664-8.012,17.653c0.854,0.458,1.34,0.856,1.89,0.991
		c7.953,1.938,12.956,8.935,12.81,18.38c-0.081,5.242,0.174,10.497-0.103,15.726c-0.117,2.21-1.21,4.369-1.86,6.552
		C172.228,191.976,154.73,191.976,137.232,191.976z M159.039,156.437c-2.901,0-4.755-0.008-6.608,0.001
		c-7.119,0.037-11.398,3.493-12.03,10.544c-0.489,5.45-0.166,10.973-0.205,16.463c-0.015,2.126,1.191,2.743,3.129,2.738
		c13.233-0.03,26.466-0.036,39.7,0.003c2.194,0.007,3.193-0.839,3.161-3.095c-0.074-5.242,0.136-10.493-0.095-15.727
		c-0.239-5.431-3.56-9.758-8.42-10.602c-3.106-0.539-6.381-0.101-10.187-0.101c1.487,3.877,3.025,7.264,4.024,10.803
		c0.393,1.388,0.109,3.549-0.768,4.622c-6.762,8.279-7.568,8.2-14.93,0.396c-1.584-1.68-2.034-3.181-1.069-5.335
		C156.199,163.896,157.412,160.533,159.039,156.437z M147.26,137.35c2.386,6.617,6.793,10.686,13.017,12.684
		c1.864,0.598,4.245,0.628,6.096,0.021c4.867-1.597,8.703-4.768,11.334-9.227c2.458-4.165,2.287-4.692-1.918-7.24
		c-1.278-0.773-2.648-1.42-3.835-2.311c-2.663-1.997-4.769-2.557-7.675,0.234c-2.102,2.02-5.415,2.923-8.327,3.91
		C153.289,136.324,150.438,136.671,147.26,137.35z M178.588,128.871c0-1.569,0.158-2.445-0.024-3.242
		c-1.668-7.292-8.69-11.825-16.918-10.979c-8.689,0.894-14.638,6.838-14.535,14.687c0.009,0.673,1.079,1.968,1.491,1.904
		c5.403-0.834,11.233-1.238,14.558-6.351c1.986-3.055,3.819-3.001,6.45-1.375C172.426,125.256,175.295,126.912,178.588,128.871z
		 M163.171,171.547c3.528-2.753,3.406-5.262-0.227-8.916C159.505,168.161,159.51,168.804,163.171,171.547z"/>
	<path fill-rule="evenodd" clip-rule="evenodd" d="M98.987,0c-0.097,0.979-0.324,1.966-0.265,2.936
		c0.124,2.021-0.576,2.908-2.742,2.911c-2.165,0.003-2.871-0.882-2.75-2.901C93.288,1.972,93.078,0.982,92.988,0
		C94.988,0,96.988,0,98.987,0z"/>
	<path fill-rule="evenodd" clip-rule="evenodd" d="M65.33,96.367c-4.502-7.085-8.387-13.303-12.378-19.453
		c-5.09-7.844-7.843-16.35-7.685-25.754c0.182-10.72,7.531-20.56,17.889-23.882c10.033-3.217,20.837,0.223,27.299,8.95
		c1.526,2.061,3.167,2.867,5.636,2.807c4.743-0.117,9.493,0.046,14.236-0.049c2.922-0.059,4.259,0.925,4.293,4.108
		c0.094,8.727,0.213,8.725,9.129,8.727c6.12,0,12.241,0.096,18.358-0.032c3.33-0.069,4.693,1.164,4.653,4.615
		c-0.136,11.738-0.082,23.479-0.02,35.218c0.01,1.909-0.941,4.327,2.269,5.11c0.496,0.12,0.71,2.466,0.545,3.716
		c-0.07,0.53-1.413,1.021-2.254,1.281c-0.686,0.211-1.486,0.056-2.235,0.056c-26.477,0-52.954,0.021-79.431-0.048
		c-1.613-0.003-4.052,1.126-4.499-1.842C60.77,97.453,61.272,95.519,65.33,96.367z M70.108,93.91
		c1.201-1.589,1.984-2.497,2.625-3.496c3.308-5.147,6.482-10.384,9.89-15.463c4.042-6.025,6.429-12.567,7.41-19.763
		c1.949-14.293-9.986-26.083-23.646-23.152c-10.743,2.304-17.333,13.341-15.416,25.129C53.284,71.384,63.318,81.333,70.108,93.91z
		 M95.111,44.284c0,1.527-0.117,2.515,0.018,3.467c1.293,9.126-0.491,17.808-5.308,25.44c-3.211,5.089-4.119,10.142-3.922,15.878
		c0.248,7.212,0.06,7.219,7.424,7.219c5.182,0,10.363,0,15.744,0c0-17.018,0.025-33.358-0.079-49.699
		c-0.005-0.772-1.121-2.168-1.775-2.202C103.272,44.179,99.314,44.284,95.111,44.284z M128.009,57.025c0-0.009,0-0.018,0-0.027
		c-3.243,0-6.507-0.204-9.721,0.103c-1.251,0.119-2.394,1.386-3.586,2.129c1.117,0.621,2.201,1.677,3.358,1.764
		c2.075,0.158,3.223,0.544,3.196,2.986c-0.025,2.35-1.297,2.392-3.069,2.696c-1.254,0.215-2.339,1.413-3.5,2.171
		c1.104,0.644,2.172,1.735,3.322,1.832c2.003,0.166,3.253,0.342,3.255,2.871c0.003,2.62-1.41,2.833-3.345,2.696
		c-2.056-0.145-3.376,0.45-3.347,2.849c0.06,4.865-0.095,9.736,0.128,14.591c0.041,0.884,1.464,1.704,2.249,2.554
		c0.605-0.855,1.668-1.679,1.732-2.573c0.22-3.104,0.096-6.232,0.097-9.351c0.001-2.618,1.254-3.875,3.92-3.828
		c3.617,0.064,7.236,0.032,10.854,0.016c2.32-0.01,3.442,1.124,3.442,3.432c0,3.244-0.145,6.502,0.137,9.722
		c0.08,0.918,1.424,1.727,2.188,2.584c0.639-0.836,1.8-1.653,1.832-2.512c0.18-4.859,0.039-9.728,0.114-14.593
		c0.031-2.057-0.759-3.027-2.851-2.887c-1.909,0.128-3.404-0.074-3.447-2.662c-0.047-2.843,1.659-2.726,3.655-2.908
		c0.9-0.083,1.711-1.157,2.563-1.782c-0.881-0.769-1.695-2.076-2.656-2.194c-2.048-0.251-3.651-0.311-3.553-3.064
		c0.095-2.653,1.817-2.375,3.587-2.636c0.936-0.138,1.75-1.112,2.618-1.709c-0.899-0.755-1.753-2.092-2.704-2.164
		C135.007,56.867,131.501,57.025,128.009,57.025z M131.518,95.663c0-2.41,0.172-4.784-0.086-7.112
		c-0.101-0.906-1.154-2.398-1.808-2.417c-1.707-0.049-4.79,0.311-4.915,0.966c-0.519,2.731-0.504,5.719,0.153,8.407
		c0.154,0.633,3.574,0.478,5.495,0.653C130.565,96.18,130.793,95.982,131.518,95.663z M79.815,89.595
		c-1.567,2.555-2.609,4.254-3.75,6.113C80.695,96.566,81.074,96.013,79.815,89.595z"/>
	<path fill-rule="evenodd" clip-rule="evenodd" d="M39.388,30.247c-1.261-1.196-2.328-2.208-3.744-3.55
		c1.388-1.201,2.637-2.282,4.116-3.563c1.007,1.065,2.092,2.212,3.537,3.741C42,27.994,40.89,28.951,39.388,30.247z"/>
	<path fill-rule="evenodd" clip-rule="evenodd" d="M13.522,72.926c1.52-2.042-0.505-5.468,3.465-5.038
		c1.471,0.16,3.355,0.393,2.837,2.861C19.072,74.331,16.604,73.144,13.522,72.926z"/>
	<path fill-rule="evenodd" clip-rule="evenodd" d="M143.377,22.052c-1.408-1.011-2.576-1.849-4.055-2.911
		c0.947-1.457,1.79-2.753,2.882-4.435c1.447,0.991,2.711,1.857,4.408,3.019C145.512,19.197,144.545,20.49,143.377,22.052z"/>
	<path fill-rule="evenodd" clip-rule="evenodd" d="M81.864,7.12c-2.243-5.073-2.232-5.091,3.333-5.777
		C86.908,5.767,86.642,6.266,81.864,7.12z"/>
	<path fill-rule="evenodd" clip-rule="evenodd" d="M110.321,7.347c-1.793-0.424-3.078-0.729-4.656-1.102
		c0.164-1.658,0.316-3.194,0.516-5.207c1.895,0.373,3.487,0.686,5.404,1.063C111.136,3.963,110.774,5.464,110.321,7.347z"/>
	<path fill-rule="evenodd" clip-rule="evenodd" d="M177.84,68.468c-0.378,1.507-0.449,3.227-1.276,4.422
		c-0.368,0.531-2.735,0.467-3.347-0.157c-0.785-0.8-1.347-3.174-0.888-3.569c1.129-0.97,2.898-1.195,4.409-1.72
		C177.105,67.786,177.473,68.127,177.84,68.468z"/>
	<path fill-rule="evenodd" clip-rule="evenodd" d="M17.981,54.907c2.069,0.801,3.498,1.354,5.564,2.155
		c-0.976,1.61-1.473,3.358-2.594,3.976c-0.832,0.459-3.401-0.309-3.565-0.948C17.02,58.659,17.672,56.968,17.981,54.907z"/>
	<path fill-rule="evenodd" clip-rule="evenodd" d="M31.972,39.755c-1.602-1.097-2.803-1.921-4.346-2.978
		c1.085-1.509,1.993-2.771,3.095-4.305c1.47,1.081,2.727,2.004,4.247,3.121C33.942,37.02,33.099,38.191,31.972,39.755z"/>
	<path fill-rule="evenodd" clip-rule="evenodd" d="M152.044,30.382c-1.092-1.457-1.897-2.531-2.952-3.938
		c0.891-0.998,1.917-2.147,3.241-3.631c1.346,1.252,2.544,2.367,4.049,3.766C154.97,27.816,153.813,28.832,152.044,30.382z"/>
	<path fill-rule="evenodd" clip-rule="evenodd" d="M175.708,60.424c-2.335,0.121-3.996,0.497-5.48,0.139
		c-0.591-0.142-1.404-2.377-1.048-2.845c0.926-1.213,2.444-1.973,4.145-3.222C174.16,56.573,174.733,57.997,175.708,60.424z"/>
	<path fill-rule="evenodd" clip-rule="evenodd" d="M170.709,48.068c-1.95,0.834-3.186,1.363-4.709,2.016
		c-0.771-1.435-1.456-2.71-2.324-4.327c1.538-0.873,2.891-1.641,4.607-2.615C169.133,44.868,169.857,46.337,170.709,48.068z"/>
	<path fill-rule="evenodd" clip-rule="evenodd" d="M159.979,39.712c-1.146-1.59-1.984-2.753-2.986-4.144
		c1.415-1.096,2.571-1.991,4.094-3.169c1.047,1.333,1.997,2.543,3.241,4.126C162.889,37.58,161.648,38.489,159.979,39.712z"/>
	<path fill-rule="evenodd" clip-rule="evenodd" d="M123.861,5.575c-0.574,1.625-1.084,3.072-1.669,4.727
		c-1.617-0.463-2.874-0.823-4.069-1.166C117.798,3.769,118.495,3.287,123.861,5.575z"/>
	<path fill-rule="evenodd" clip-rule="evenodd" d="M49.5,14.836c1.101,1.546,1.99,2.793,3.05,4.281
		c-1.44,1.088-2.589,1.956-3.989,3.014c-1.148-1.441-2.119-2.66-3.314-4.161C46.713,16.89,47.955,15.974,49.5,14.836z"/>
	<path fill-rule="evenodd" clip-rule="evenodd" d="M128.764,13.109c0.812-1.685,1.488-3.087,2.32-4.812
		c1.641,0.881,3.005,1.614,4.659,2.502c-0.844,1.585-1.523,2.863-2.401,4.513C131.799,14.57,130.422,13.908,128.764,13.109z"/>
	<path fill-rule="evenodd" clip-rule="evenodd" d="M58.462,15.141c-0.599-1.048-1.109-1.895-1.569-2.766
		c-0.225-0.426-0.357-0.901-0.648-1.655c1.465-0.75,2.858-1.462,4.212-2.156C63.682,12.885,63.536,13.396,58.462,15.141z"/>
	<path fill-rule="evenodd" clip-rule="evenodd" d="M21.338,47.731c0.677-1.366,1.371-2.767,2.235-4.512
		c1.627,0.906,2.98,1.66,4.28,2.384C26.32,50.717,26.005,50.82,21.338,47.731z"/>
	<path fill-rule="evenodd" clip-rule="evenodd" d="M69.6,10.193c-0.55-1.555-1.037-2.93-1.649-4.659
		c1.541-0.591,2.884-1.106,4.17-1.6C75.252,7.928,74.882,8.956,69.6,10.193z"/>
	<path fill-rule="evenodd" clip-rule="evenodd" d="M70.435,39.064c6.84,0.017,12.154,5.165,12.294,11.911
		c0.139,6.704-5.475,12.444-12.223,12.497c-6.787,0.053-12.43-5.479-12.475-12.227C57.987,44.459,63.498,39.048,70.435,39.064z
		 M77.275,51.054c-0.079-3.646-3.471-6.822-7.132-6.677c-3.583,0.141-6.618,3.248-6.617,6.775c0,3.69,3.226,6.882,6.914,6.843
		C74.176,57.956,77.354,54.728,77.275,51.054z"/>
	<path fill-rule="evenodd" clip-rule="evenodd" d="M93.736,76.928c0.649,1.08,1.607,2.087,1.88,3.254
		c0.495,2.118-0.875,3.139-2.757,2.605c-1.038-0.295-2.387-1.557-2.495-2.508c-0.116-1.029,1.049-2.203,1.655-3.313
		C92.592,76.954,93.164,76.941,93.736,76.928z"/>
	<path fill-rule="evenodd" clip-rule="evenodd" d="M101.63,73.658c-0.598-1.013-1.752-2.088-1.646-3.021
		c0.118-1.03,1.221-2.464,2.195-2.772c1.954-0.619,3.1,0.634,2.716,2.633c-0.212,1.109-1.06,2.096-1.621,3.138
		C102.726,73.644,102.178,73.651,101.63,73.658z"/>
	<path fill-rule="evenodd" clip-rule="evenodd" d="M103.239,57.583c0.573,1.034,1.438,2.011,1.655,3.114
		c0.387,1.974-0.707,3.277-2.688,2.659c-0.979-0.305-2.084-1.719-2.222-2.752c-0.122-0.916,1.018-1.999,1.601-3.008
		C102.136,57.592,102.688,57.588,103.239,57.583z"/>
	<path fill-rule="evenodd" clip-rule="evenodd" d="M105.426,80.985c-1.034,0.633-2,1.602-3.116,1.826
		c-1.978,0.396-2.495-0.946-2.502-2.727c-0.007-1.871,0.729-3.03,2.618-2.575c1.096,0.264,2.012,1.277,3.009,1.952
		C105.432,79.97,105.429,80.478,105.426,80.985z"/>
	<path fill-rule="evenodd" clip-rule="evenodd" d="M106.516,51.218c-2.111,1.302-3.059,2.266-4.155,2.484
		c-2.266,0.452-2.93-1.237-2.414-2.925c0.305-0.999,1.669-2.231,2.64-2.308C103.487,48.399,104.497,49.725,106.516,51.218z"/>
	<path fill-rule="evenodd" clip-rule="evenodd" d="M96.114,90.52c-1.044,0.539-2.179,1.625-3.109,1.472
		c-1.029-0.168-2.403-1.321-2.684-2.312c-0.59-2.083,0.901-2.986,2.778-2.592c1.095,0.23,2.042,1.162,3.055,1.777
		C96.14,89.417,96.127,89.969,96.114,90.52z"/>
	<path fill-rule="evenodd" clip-rule="evenodd" d="M105.41,90.181c-0.916,0.645-1.945,1.919-2.72,1.78
		c-1.048-0.189-2.34-1.32-2.669-2.327c-0.188-0.575,1.241-2.305,2.101-2.431c0.982-0.144,2.142,0.916,3.224,1.452
		C105.367,89.165,105.389,89.673,105.41,90.181z"/>
	<path fill-rule="evenodd" clip-rule="evenodd" d="M128.98,70.308c0.634,1.098,1.587,2.129,1.833,3.308
		c0.447,2.142-0.92,2.664-2.865,2.665c-1.968,0.001-2.867-0.89-2.464-2.668c0.264-1.164,1.156-2.185,1.767-3.269
		C127.827,70.331,128.403,70.319,128.98,70.308z"/>
	<path fill-rule="evenodd" clip-rule="evenodd" d="M131.359,64.68c-1.023,0.625-1.977,1.557-3.085,1.809
		c-1.985,0.451-2.946-0.521-2.898-2.685c0.042-1.859,0.664-3.063,2.583-2.64c1.208,0.267,2.263,1.226,3.387,1.875
		C131.35,63.586,131.354,64.133,131.359,64.68z"/>
</g>
</svg>
