<?xml version="1.0" encoding="utf-8"?>
<!-- Generator: Adobe Illustrator 16.0.0, SVG Export Plug-In . SVG Version: 6.00 Build 0)  -->
<!DOCTYPE svg PUBLIC "-//W3C//DTD SVG 1.1//EN" "http://www.w3.org/Graphics/SVG/1.1/DTD/svg11.dtd">
<svg version="1.1" id="Layer_1" xmlns="http://www.w3.org/2000/svg" xmlns:xlink="http://www.w3.org/1999/xlink" x="0px" y="0px"
	 width="143.612px" height="191.976px" viewBox="0 0 143.612 191.976" enable-background="new 0 0 143.612 191.976"
	 xml:space="preserve">
<g>
	<path fill-rule="evenodd" clip-rule="evenodd" d="M133.309,191.976c-40.995,0-81.99,0-122.984,0
		c-8.66-2.802-10.623-9.274-10.29-17.571c0.39-9.728,0.091-19.483,0.091-29.227c0-35.726-0.01-71.451,0.008-107.177
		c0.005-8.749,4.943-13.646,13.69-13.702c0.875-0.006,1.749-0.002,2.624-0.002c6.922,0,6.922,0,7.083,6.804
		c0.211,8.869,7.9,17.06,16.65,17.125c21.109,0.157,42.222,0.152,63.331-0.003c8.243-0.06,15.992-7.864,16.565-16.063
		c0.551-7.87,0.551-7.87,8.67-7.864c10.433,0.009,14.757,4.347,14.758,14.826c0.002,45.095-0.115,90.189,0.106,135.282
		C143.653,182.69,141.966,189.172,133.309,191.976z M66.118,60.699C52.473,61.104,41.015,76.008,41.573,92.26
		c0.514,14.978,14.471,28.951,31.834,28.109c13.396-0.648,27.724-12.761,27.623-24.682c-1.328,0-2.671,0-4.013,0
		c-7.362,0-14.724,0.006-22.086-0.002c-6.921-0.008-8.807-1.924-8.812-8.945C66.113,78.15,66.118,69.561,66.118,60.699z
		 M71.823,144.282c13.495,0,26.99,0.008,40.485-0.005c5.206-0.004,7.838-2.19,7.788-6.399c-0.048-4.054-2.637-6.188-7.619-6.19
		c-27.114-0.01-54.229-0.01-81.344,0c-4.976,0.003-7.557,2.144-7.597,6.208c-0.042,4.22,2.569,6.378,7.803,6.382
		C44.833,144.289,58.328,144.282,71.823,144.282z M53.617,168.277c7.746,0,15.492,0.022,23.238-0.008
		c4.633-0.019,7.195-2.246,7.245-6.187c0.05-4.008-2.491-6.382-7.034-6.391c-15.492-0.029-30.984-0.028-46.476,0
		c-4.561,0.008-7.092,2.356-7.055,6.367c0.037,3.957,2.586,6.19,7.218,6.21C38.375,168.301,45.996,168.277,53.617,168.277z
		 M101.051,84.038c0.496-8.53-11.832-23.531-23.264-23.103c0,7.66,0,15.321,0,23.103C85.73,84.038,93.399,84.038,101.051,84.038z"/>
	<path fill-rule="evenodd" clip-rule="evenodd" d="M73.316,0c0.914,0.346,1.925,0.541,2.722,1.064
		c3.367,2.211,7.583,3.877,9.754,6.963c2.454,3.488,4.801,4.805,8.759,4.314c1.967-0.243,3.992-0.1,5.987-0.026
		c4.413,0.163,6.758,2.35,6.937,6.66c0.14,3.365,0.146,6.746-0.003,10.11c-0.186,4.166-2.457,6.545-6.631,6.564
		c-19.35,0.088-38.701,0.088-58.052,0c-4.176-0.02-6.453-2.408-6.631-6.561c-0.144-3.364-0.136-6.744-0.003-10.11
		c0.165-4.186,2.413-6.386,6.555-6.663c0.87-0.059,1.749-0.053,2.621-0.01c5.466,0.272,10.234,0.448,13.769-5.714
		C60.974,3.324,66.461,2.129,70.316,0C71.316,0,72.316,0,73.316,0z"/>
</g>
</svg>
