<?xml version="1.0" encoding="utf-8"?>
<!-- Generator: Adobe Illustrator 16.0.0, SVG Export Plug-In . SVG Version: 6.00 Build 0)  -->
<!DOCTYPE svg PUBLIC "-//W3C//DTD SVG 1.1//EN" "http://www.w3.org/Graphics/SVG/1.1/DTD/svg11.dtd">
<svg version="1.1" id="Layer_1" xmlns="http://www.w3.org/2000/svg" xmlns:xlink="http://www.w3.org/1999/xlink" x="0px" y="0px"
	 width="143.454px" height="191.976px" viewBox="0 0 143.454 191.976" enable-background="new 0 0 143.454 191.976"
	 xml:space="preserve">
<g>
	<path fill-rule="evenodd" clip-rule="evenodd" d="M140.72,191.976c-45.994,0-91.988,0-137.982,0
		c-0.896-1.56-2.439-3.068-2.569-4.69c-0.468-5.83,1.059-11.025,5.609-15.22c1.328-1.225,2.259-3.485,2.362-5.326
		c0.359-6.477-0.225-13.031,0.463-19.458c1.661-15.515,9.115-27.99,21.047-37.965c4.947-4.137,9.578-8.65,14.755-13.358
		c-5.811-5.244-11.217-10.19-16.698-15.053c-9.349-8.295-16.03-18.331-18.049-30.714C8.403,42.499,8.511,34.563,8.321,26.73
		c-0.077-3.153-0.577-5.475-3.21-7.757C-0.741,13.902-1.618,4.705,2.738,0C48.732,0,94.726,0,140.72,0
		c0.895,1.56,2.444,3.07,2.568,4.689c0.447,5.825-1.072,11.025-5.607,15.227c-1.327,1.229-2.257,3.484-2.363,5.328
		c-0.371,6.473,0.173,13.02-0.496,19.449c-1.631,15.681-9.27,28.182-21.28,38.23c-4.848,4.056-9.394,8.473-15.085,13.642
		c1.535,0.932,2.722,1.44,3.643,2.25c4.691,4.124,9.312,8.327,13.958,12.501c9.086,8.163,15.659,17.997,17.643,30.11
		c1.279,7.812,1.217,15.864,1.433,23.817c0.086,3.159,0.604,5.476,3.223,7.754C144.193,178.071,145.068,187.251,140.72,191.976z
		 M23.435,23.899c0,4.95,0.076,9.438-0.014,13.922c-0.254,12.663,4.637,23.032,13.916,31.45c7.215,6.545,14.49,13.026,21.727,19.548
		c5.68,5.119,5.667,9.232-0.037,14.37c-7.053,6.354-13.98,12.854-21.202,19.012c-14.454,12.322-15.756,28.498-13.947,46.079
		c1.319,0,2.57-0.176,3.756,0.03c4.781,0.83,7.669-1.267,10.457-5.142c9.405-13.075,19.232-25.846,28.897-38.735
		c3.833-5.11,5.684-5.078,9.604,0.15c10.264,13.687,20.514,27.384,30.84,41.023c0.831,1.097,2.133,2.38,3.349,2.534
		c2.908,0.37,5.896,0.12,9.242,0.12c0-4.946-0.088-9.415,0.017-13.879c0.301-12.806-4.616-23.279-14.024-31.78
		c-7.136-6.447-14.282-12.884-21.436-19.313c-5.913-5.314-5.92-9.282-0.02-14.585c7.339-6.596,14.637-13.238,22.005-19.8
		c13.792-12.284,14.713-28.204,13.032-45.005C87.56,23.899,55.754,23.899,23.435,23.899z"/>
	<path fill-rule="evenodd" clip-rule="evenodd" d="M71.976,56.503c8.498-0.001,17-0.125,25.491,0.105
		c1.691,0.046,3.955,1.065,4.794,2.378c0.532,0.832-0.666,3.473-1.8,4.556c-8.319,7.934-16.856,15.637-25.236,23.508
		c-2.529,2.375-4.595,2.244-7.08-0.095c-8.37-7.881-16.902-15.589-25.237-23.506c-1.09-1.035-2.332-3.583-1.856-4.24
		c0.964-1.333,3.035-2.543,4.684-2.59C54.476,56.373,63.228,56.503,71.976,56.503z"/>
</g>
</svg>
