<?xml version="1.0" encoding="utf-8"?>
<!-- Generator: Adobe Illustrator 16.0.0, SVG Export Plug-In . SVG Version: 6.00 Build 0)  -->
<!DOCTYPE svg PUBLIC "-//W3C//DTD SVG 1.1//EN" "http://www.w3.org/Graphics/SVG/1.1/DTD/svg11.dtd">
<svg version="1.1" id="Layer_1" xmlns="http://www.w3.org/2000/svg" xmlns:xlink="http://www.w3.org/1999/xlink" x="0px" y="0px"
	 width="191.787px" height="191.976px" viewBox="0 0 191.787 191.976" enable-background="new 0 0 191.787 191.976"
	 xml:space="preserve">
<g>
	<path fill-rule="evenodd" clip-rule="evenodd" d="M61.492,191.976c-3.778-1.854-4.759-4.937-4.391-8.957
		c0.442-4.83-0.11-9.805,0.774-14.529c3.35-17.904,15.902-29.497,33.911-31.909c0.595-0.079,1.171-0.292,2.679-0.679
		C78.04,131,70.41,121.21,75.853,104.804c3.26-9.827,13.194-14.441,21.59-13.493c12.069,1.364,18.986,8.661,20.596,20.639
		c1.323,9.839-5.308,17.82-20.792,24.09c10.64,1.1,19.201,4.577,26.106,11.48c6.979,6.976,10.619,15.532,11.89,25.468
		c2.943-14.439,11.201-23.312,27.074-25.751c-16.445-4.811-24.234-14.387-19.251-30.52c3.256-10.542,13.118-14.898,21.523-14.21
		c12.025,0.985,19.341,8.627,20.945,20.713c1.302,9.807-5.274,17.712-20.033,23.766c0.743,0.372,1.21,0.752,1.729,0.844
		c14.945,2.667,24.176,13.438,24.437,28.572c0.037,2.123-0.173,4.265,0.045,6.366c0.412,3.969-0.897,7.024-4.237,9.207
		c-15.748,0-31.496,0-47.244,0c-1.693-1.493-3.386-2.987-4.857-4.285c-1.621,1.42-3.256,2.853-4.891,4.285
		C107.486,191.976,84.489,191.976,61.492,191.976z"/>
	<path fill-rule="evenodd" clip-rule="evenodd" d="M0,184.477c0.47-1.654,0.913-3.317,1.416-4.962
		c3.453-11.302,10.926-18.144,22.589-20.327c0.489-0.092,0.984-0.166,1.458-0.31c0.217-0.066,0.389-0.282,0.902-0.677
		c-15.479-4.526-23.265-14.103-18.28-30.237c3.257-10.542,13.121-14.897,21.525-14.207c12.028,0.988,19.341,8.629,20.943,20.714
		c1.299,9.801-5.26,17.686-20.278,23.867c1.374,0.393,2.217,0.73,3.091,0.868c11.714,1.851,21.598,12.473,22.759,24.188
		c0.395,3.979-0.899,6.753-4.382,8.582c-17.248,0-34.496,0-51.743,0C0,189.444,0,186.961,0,184.477z"/>
	<path fill-rule="evenodd" clip-rule="evenodd" d="M96.738,0c3.655,1.755,4.824,4.76,4.281,8.595
		c-0.381,2.696,0.669,4.311,3.156,5.596c1.921,0.993,3.599,2.69,5.01,4.387c2.355,2.829,2.065,6.048-0.372,7.933
		c-2.343,1.812-5.155,1.394-7.481-1.453c-1.961-2.401-4.308-3.488-7.229-2.608c-2.818,0.849-4.366,3.095-4.156,5.974
		c0.218,2.988,1.942,5.049,5.116,5.597c2.2,0.379,4.48,0.575,6.56,1.317c5.75,2.054,9.374,6.303,10.43,12.217
		c1.104,6.186-0.531,12.051-5.915,15.55c-3.932,2.555-5.616,5.183-5.275,9.865c0.261,3.599-3.864,6.066-6.8,4.246
		c-1.436-0.891-3.009-3.105-2.915-4.621c0.271-4.364-0.933-7.284-5.057-9.188c-1.57-0.726-2.79-2.482-3.843-3.997
		c-1.801-2.59-1.307-5.735,1.068-7.273c2.571-1.667,4.97-1.208,7.017,1.059c0.5,0.554,0.91,1.203,1.46,1.699
		c2.2,1.984,4.986,2.572,7.15,0.748c1.566-1.32,2.874-3.871,2.889-5.884c0.02-2.745-2.057-4.649-5.099-5.063
		c-2.088-0.284-4.243-0.511-6.202-1.221c-6.004-2.178-9.785-6.543-10.676-12.845c-0.976-6.903,1.528-12.656,7.612-16.246
		c2.616-1.543,3.973-3.18,3.483-6.165C90.321,4.398,91.887,1.737,95.238,0C95.738,0,96.238,0,96.738,0z"/>
</g>
</svg>
