<?xml version="1.0" encoding="utf-8"?>
<!-- Generator: Adobe Illustrator 16.0.0, SVG Export Plug-In . SVG Version: 6.00 Build 0)  -->
<!DOCTYPE svg PUBLIC "-//W3C//DTD SVG 1.1//EN" "http://www.w3.org/Graphics/SVG/1.1/DTD/svg11.dtd">
<svg version="1.1" id="Layer_1" xmlns="http://www.w3.org/2000/svg" xmlns:xlink="http://www.w3.org/1999/xlink" x="0px" y="0px"
	 width="190.484px" height="193px" viewBox="0 0 190.484 193" enable-background="new 0 0 190.484 193" xml:space="preserve">
<g>
	<path fill-rule="evenodd" clip-rule="evenodd" d="M0,188.356c1.951-6.028,3.32-11.743,5.637-17.043
		c2.844-6.503,8.465-9.947,15.349-11.328c3.904-0.784,7.821-1.508,11.719-2.319c1.02-0.212,1.992-0.647,3.673-1.21
		c-1.763-0.936-2.817-1.536-3.906-2.066c-17.562-8.569-26.163-27.763-20.812-46.463c5.163-18.042,22.945-30.042,41.837-28.124
		c2.958,0.301,5.861,1.114,8.804,1.604c0.577,0.096,1.223-0.199,1.833-0.331c5.813-1.265,11.625-2.533,18.722-4.079
		c-16.938-7.66-26.335-19.707-26.824-37.396c-0.298-10.792,3.804-20.259,11.451-28.005c15.188-15.387,40.23-15.478,55.612-0.177
		c15.235,15.157,14.682,38.565,2.949,51.865c-1.105-0.918-2.22-1.844-3.556-2.955c6.561-9.324,8.699-19.382,5.719-30.266
		c-2.231-8.146-6.983-14.576-14.03-19.244c-13.869-9.186-32.358-6.996-43.733,5.138c-11.451,12.215-12.296,31.042-1.988,44.308
		c11.577,14.9,28.39,16.859,49.13,5.533c0.888,1.061,1.818,2.173,3.248,3.882c-4.063,2.433-7.823,4.686-12.462,7.463
		c5.107,1.043,9.462,1.681,13.665,2.86c4.309,1.21,8.407,1.23,12.815,0.337c20.365-4.127,41.437,10.565,45.051,31.009
		c2.044,11.565-0.338,21.956-7.547,31.786c-1.363-1.062-2.486-1.936-3.91-3.044c6.93-10.027,9.028-20.802,5.106-32.345
		c-2.669-7.856-7.696-13.949-14.868-18.166c-14.693-8.638-33.11-5.279-43.906,7.949c-10.609,13-10.147,31.58,1.231,44.292
		c9.854,11.008,28.764,17.072,47.433,3.503c0.947,1.165,1.912,2.351,3.299,4.058c-4.054,2.406-7.752,4.603-12.321,7.315
		c4.176,0.93,7.642,2.01,11.187,2.436c12.07,1.446,19.681,7.707,22.313,19.758c0.659,3.018,1.607,5.971,2.563,9.466
		C127.049,188.356,63.967,188.356,0,188.356z M76.664,140.261c10.532-20.734,8.09-37.526-6.89-48.702
		c-13.299-9.922-31.91-8.756-43.974,2.755c-11.994,11.444-14.025,30.115-4.625,43.801c4.679,6.814,11.029,11.409,19.058,13.712
		c11.455,3.286,21.619,0.29,31.172-6.404c1.158,1.248,2.131,2.298,3.58,3.859c-4.209,2.516-7.978,4.769-12.359,7.388
		c6.913,1.608,13.283,2.73,19.42,4.615c6.576,2.02,10.491,7.191,13.041,13.95c0.737-0.924,1.121-1.234,1.283-1.635
		c3.309-8.164,9.442-12.523,18.063-13.856c4.479-0.693,8.883-1.875,14.437-3.077c-20.978-9.676-29.26-25.218-26.034-46.997
		c-5.113,0-9.943,0-14.978,0c1.82,12.336,0.441,23.489-7.524,33.399C78.915,141.983,77.765,141.104,76.664,140.261z M91.272,183.828
		c-0.824-10.967-5.508-16.757-14.81-18.841c-4.129-0.925-8.297-1.678-12.448-2.504c-1.975-0.394-3.276-0.075-4.519,2.002
		c-4.927,8.235-15.227,8.295-20.105,0.077c-1.364-2.298-2.822-2.44-4.863-2.027c-4.634,0.938-9.281,1.825-13.879,2.918
		c-7.857,1.869-13.251,9.438-12.846,18.443c2.296,0,4.626-0.001,6.958,0c7.533,0,7.534,0,9.868-7.274
		c0.477-1.486,0.856-2.819,3.061-2.147c2.027,0.618,2.539,1.694,2.035,3.589c-0.438,1.649-0.799,3.32-1.305,5.446
		c14.082,0,27.698,0,41.784,0c-0.511-2.875-0.972-5.476-1.423-8.014c4.586-1.752,4.583-1.751,5.727,2.566
		c0.351,1.324,0.552,2.724,1.136,3.937c0.365,0.757,1.302,1.724,2.013,1.75C82.11,183.906,86.573,183.828,91.272,183.828z
		 M99.579,183.896c3.12,0,5.968,0.025,8.815-0.005c7.283-0.08,6.057,0.777,7.901-5.986c1.188-4.357,1.62-4.527,5.771-1.958
		c-0.221,0.912-0.459,1.866-0.684,2.823c-1.196,5.107-1.195,5.119,4.175,5.124c10.742,0.008,21.483,0.018,32.225-0.018
		c1.405-0.005,2.809-0.276,4.207-0.423c-0.954-8.713-0.954-8.713,3.43-9.013c0.577,2.189,0.951,4.547,1.862,6.675
		c0.481,1.124,1.835,2.531,2.904,2.629c3.592,0.327,7.24,0.249,10.848,0.024c0.775-0.047,2.131-1.383,2.103-2.079
		c-0.321-7.894-5.873-14.536-13.586-16.317c-4.846-1.12-9.842-1.682-14.593-3.093c-3.635-1.081-5.16,0.193-6.531,3.291
		c-2.05,4.628-4.483,9.086-7.085,14.28c-2.857-5.68-5.395-10.637-7.844-15.639c-0.851-1.738-1.773-2.832-4.006-2.33
		c-5.1,1.147-10.265,2.006-15.363,3.158C104.871,167.131,99.878,173.454,99.579,183.896z M71.316,84.803
		c3.373,3.755,7.589,6.76,9.412,10.835c3.697,8.267,9.776,9.776,17.624,8.664c1.1-0.156,2.365,0.284,3.334-0.104
		c1.556-0.622,3.557-1.357,4.271-2.65c3.128-5.669,7.083-10.519,12.282-14.376c0.615-0.457,1.038-1.173,1.958-2.244
		c-4.076-0.79-7.551-1.612-11.075-2.053c-1.004-0.126-2.597,0.554-3.158,1.381c-6.069,8.95-15.171,8.976-21.136,0.013
		c-0.514-0.772-1.709-1.717-2.446-1.61C78.616,83.209,74.897,84.078,71.316,84.803z M43.056,158.193
		c0.493,5.102,3.041,7.44,7.142,7.017c3.649-0.376,5.711-3.102,5.164-7.017C51.356,158.193,47.329,158.193,43.056,158.193z
		 M89.235,78.597c-0.007,4.529,2.622,7.293,6.45,7.096c3.802-0.196,6.061-2.978,5.611-7.096
		C97.389,78.597,93.461,78.597,89.235,78.597z M146.217,158.394c-3.506,0-6.224,0-9.714,0c1.62,3.312,2.978,6.086,4.837,9.887
		C143.229,164.451,144.595,161.681,146.217,158.394z"/>
	<path fill-rule="evenodd" clip-rule="evenodd" d="M107.093,29.337c-2.774,0.495-4.762,0.964-6.035-2.213
		c-1.271-3.174-4.331-4.112-7.55-3.223c-2.746,0.757-4.408,2.746-4.525,5.749c-0.133,3.441,1.428,5.722,4.747,6.704
		c0.948,0.281,1.943,0.435,2.928,0.552c5.056,0.603,9.083,4.132,10.254,9.025c1.081,4.519-0.968,9.855-5.206,12.276
		c-2.487,1.421-4.133,2.793-3.766,5.966c0.075,0.647-1.468,1.884-2.458,2.161c-1.628,0.457-3.12-0.154-2.781-2.283
		c0.472-2.953-0.871-4.428-3.432-5.716c-3.426-1.724-5.095-4.884-5.541-8.882c2.739-0.776,4.711-1.003,6.079,2.199
		c1.267,2.966,4.175,3.948,7.265,3.101c2.893-0.794,4.626-2.802,4.688-6.007c0.063-3.303-1.431-5.468-4.568-6.449
		c-0.939-0.293-1.935-0.447-2.917-0.558c-5.229-0.596-9.414-4.27-10.485-9.25c-1.014-4.713,1.235-9.992,5.708-12.409
		c2.2-1.188,3.646-2.357,3.192-5.069c-0.353-2.106,0.688-2.859,2.788-2.826c1.935,0.031,2.843,0.74,2.59,2.664
		c-0.334,2.545,0.581,4.018,3.041,5.162C104.73,21.694,106.497,24.961,107.093,29.337z"/>
	<path fill-rule="evenodd" clip-rule="evenodd" d="M152.885,108.752c-2.922,0.82-4.619,0.617-5.931-2.085
		c-1.442-2.972-4.301-4.219-7.595-3.096c-3.013,1.028-4.674,3.285-4.489,6.584c0.197,3.515,2.406,5.339,5.587,6.138
		c1.196,0.3,2.519,0.12,3.697,0.458c4.561,1.311,7.672,4.23,8.624,8.932c1.061,5.24-0.995,10.021-5.523,12.468
		c-2.336,1.263-3.723,2.5-3.521,5.365c0.053,0.757-1.479,2.282-2.257,2.266c-0.87-0.018-2.437-1.389-2.436-2.17
		c0.001-2.745-1.078-4.2-3.541-5.436c-3.541-1.776-5.504-4.921-5.721-9.249c2.593-0.753,4.58-0.991,5.88,2.224
		c1.336,3.299,4.431,3.952,7.579,3.163c2.979-0.747,4.671-3.125,4.639-6.096c-0.036-3.276-1.8-5.645-5.243-6.368
		c-1.824-0.383-3.735-0.523-5.463-1.161c-4.692-1.732-7.296-5.442-7.611-10.22c-0.307-4.647,1.818-8.595,6.083-10.804
		c2.277-1.179,3.544-2.507,3.272-5.146c-0.178-1.738,0.421-2.802,2.503-2.809c2.11-0.007,2.671,1.057,2.427,2.807
		c-0.37,2.648,0.847,3.975,3.171,5.132C150.558,101.41,152.545,104.466,152.885,108.752z"/>
	<path fill-rule="evenodd" clip-rule="evenodd" d="M36.631,35.366c0,2.496,0.056,4.992-0.013,7.486
		c-0.098,3.506-0.086,6.464,3.553,8.98c3.9,2.697,3.323,8.978-0.226,12.233c-3.541,3.249-8.752,3.071-12.102-0.414
		c-3.407-3.544-3.456-9.297,0.542-12.239c2.881-2.12,3.344-4.511,3.278-7.642c-0.13-6.236-0.054-12.477-0.025-18.715
		c0.009-1.827-0.384-3.873,2.643-3.832c2.888,0.04,2.313,2.013,2.334,3.661C36.662,28.378,36.63,31.872,36.631,35.366z
		 M39.024,57.523c-2.341-1.48-3.73-3.058-4.925-2.921c-1.241,0.142-2.294,1.938-3.429,3.012c1.21,1.122,2.308,2.926,3.666,3.147
		C35.402,60.937,36.789,59.159,39.024,57.523z"/>
	<path fill-rule="evenodd" clip-rule="evenodd" d="M177.604,35.643c0,2.122,0.058,4.246-0.012,6.366
		c-0.127,3.854-0.13,7.215,3.724,10.033c3.721,2.721,3.069,8.779-0.359,11.964c-3.642,3.383-9.017,3.132-12.36-0.576
		c-3.197-3.544-3.23-9.144,0.675-11.93c3.107-2.217,3.37-4.801,3.317-8.011c-0.103-6.24-0.035-12.483-0.021-18.724
		c0.004-1.78-0.129-3.528,2.585-3.546c2.836-0.02,2.44,1.845,2.446,3.563C177.614,28.403,177.604,32.023,177.604,35.643z
		 M179.962,57.659c-2.296-1.55-3.636-3.167-4.821-3.06c-1.244,0.112-2.339,1.876-3.5,2.918c1.171,1.157,2.21,2.988,3.556,3.252
		C176.25,60.976,177.683,59.236,179.962,57.659z"/>
	<path fill-rule="evenodd" clip-rule="evenodd" d="M154.12,36.372c0-1.995-0.072-3.993,0.015-5.984
		c0.17-3.881,0.051-7.214-3.769-10.017c-3.681-2.701-3.015-8.786,0.414-11.946c3.55-3.271,9.171-2.961,12.381,0.687
		c3.125,3.55,3.069,9.233-0.789,11.962c-2.953,2.09-3.349,4.504-3.283,7.626c0.127,5.982,0.073,11.971,0.013,17.955
		c-0.019,1.869,0.621,4.287-2.631,4.252c-3.107-0.033-2.286-2.358-2.327-4.06C154.062,43.357,154.121,39.864,154.12,36.372z
		 M160.583,15.692c0.011-0.524,0.022-1.049,0.033-1.573c-1.352-0.934-2.733-2.625-4.046-2.573c-1.17,0.046-3.101,1.985-3.15,3.155
		c-0.047,1.119,1.811,3.145,2.987,3.266C157.708,18.102,159.184,16.524,160.583,15.692z"/>
	<path fill-rule="evenodd" clip-rule="evenodd" d="M13.146,36.549c-0.001-2.494-0.115-4.996,0.027-7.482
		c0.19-3.346-0.212-5.965-3.399-8.291c-3.913-2.855-3.571-8.9-0.069-12.241c3.498-3.338,9.127-3.13,12.396,0.458
		c3.291,3.612,3.187,9.39-0.825,12.212c-2.714,1.909-3.156,4.078-3.112,6.951c0.098,6.359,0.039,12.723,0.017,19.084
		c-0.006,1.755,0.16,3.605-2.502,3.681c-2.717,0.079-2.546-1.716-2.538-3.52C13.159,43.784,13.146,40.167,13.146,36.549z
		 M14.968,18.72c0.526-0.006,1.052-0.01,1.579-0.015c0.855-1.382,2.457-2.827,2.345-4.126c-0.1-1.168-2.099-3.039-3.225-3.014
		c-1.162,0.026-3.128,1.919-3.193,3.081C12.401,15.954,14.062,17.357,14.968,18.72z"/>
	<path fill-rule="evenodd" clip-rule="evenodd" d="M165.333,121.908c-0.722-0.954-1.795-1.811-2.088-2.882
		c-0.5-1.826,0.531-2.667,2.461-2.602c1.627,0.056,3.203,0.148,2.792,2.299c-0.211,1.103-1.093,2.078-1.672,3.11
		C166.329,121.859,165.831,121.884,165.333,121.908z"/>
	<path fill-rule="evenodd" clip-rule="evenodd" d="M73.832,40.016c-0.912,0.575-1.89,1.686-2.72,1.584
		c-0.952-0.116-1.772-1.308-2.649-2.032c0.838-0.893,1.541-2.204,2.56-2.534c0.696-0.224,1.835,0.924,2.776,1.458
		C73.81,39,73.821,39.508,73.832,40.016z"/>
	<path fill-rule="evenodd" clip-rule="evenodd" d="M118.833,42.133c-0.484-0.963-1.49-2.039-1.313-2.859
		c0.198-0.916,1.469-1.601,2.273-2.386c0.833,0.899,2.11,1.698,2.342,2.732c0.156,0.696-1.163,1.725-1.822,2.604
		C119.82,42.195,119.327,42.164,118.833,42.133z"/>
	<path fill-rule="evenodd" clip-rule="evenodd" d="M119.714,119.388c-0.893,0.659-1.702,1.66-2.697,1.903
		c-1.751,0.428-3.054-0.504-2.564-2.397c0.243-0.942,1.374-2.106,2.283-2.292c0.835-0.169,1.911,0.837,2.881,1.326
		C119.649,118.414,119.682,118.901,119.714,119.388z"/>
	<path fill-rule="evenodd" clip-rule="evenodd" d="M60.76,109.03c-2.341,0.178-4.244,0.763-5.524-1.977
		c-1.573-3.366-4.77-4.54-7.743-3.544c-2.93,0.981-5.034,4.102-4.672,6.93c0.415,3.243,2.995,5.696,6.705,5.959
		c5.612,0.398,9.383,3.109,11.094,8.454c1.67,5.214-0.459,10.736-5.434,13.364c-2.269,1.198-3.388,2.468-3.462,5.091
		c-0.026,0.906-1.503,2.273-2.546,2.54c-2.115,0.542-2.454-1.14-2.278-2.786c0.247-2.301-0.673-3.546-2.806-4.599
		c-3.774-1.861-6.014-4.988-6.25-9.457c2.871-0.964,4.625-0.752,5.894,2.193c1.377,3.196,4.461,3.944,7.624,3.102
		c2.957-0.789,4.53-3.038,4.514-6.141c-0.018-3.269-1.705-5.384-4.869-6.241c-1.081-0.292-2.196-0.467-3.305-0.637
		c-4.857-0.743-8.751-4.197-9.716-8.65c-1.108-5.116,0.745-10.118,5.188-12.63c2.493-1.41,4.209-2.742,3.849-5.952
		c-0.075-0.667,1.592-2.173,2.373-2.118c0.869,0.062,2.373,1.508,2.328,2.279c-0.175,3.012,1.286,4.397,3.767,5.688
		C59.005,101.729,60.437,104.568,60.76,109.03z"/>
	<path fill-rule="evenodd" clip-rule="evenodd" d="M25.466,115.936c0.706,0.943,2.063,1.975,1.949,2.807
		c-0.133,0.975-1.405,2.225-2.436,2.544c-1.545,0.48-3.131-0.182-2.725-2.26c0.211-1.08,1.109-2.026,1.697-3.033
		C24.456,115.974,24.961,115.955,25.466,115.936z"/>
	<path fill-rule="evenodd" clip-rule="evenodd" d="M76.804,119.788c-0.958,0.529-2.146,1.686-2.82,1.44
		c-1.007-0.369-1.653-1.726-2.453-2.662c0.889-0.701,1.736-1.876,2.68-1.959c0.828-0.073,1.764,1.08,2.652,1.69
		C76.843,118.795,76.824,119.292,76.804,119.788z"/>
</g>
</svg>
