<?xml version="1.0" encoding="utf-8"?>
<!-- Generator: Adobe Illustrator 16.0.0, SVG Export Plug-In . SVG Version: 6.00 Build 0)  -->
<!DOCTYPE svg PUBLIC "-//W3C//DTD SVG 1.1//EN" "http://www.w3.org/Graphics/SVG/1.1/DTD/svg11.dtd">
<svg version="1.1" id="Layer_1" xmlns="http://www.w3.org/2000/svg" xmlns:xlink="http://www.w3.org/1999/xlink" x="0px" y="0px"
	 width="191.573px" height="191.976px" viewBox="0 0 191.573 191.976" enable-background="new 0 0 191.573 191.976"
	 xml:space="preserve">
<g>
	<path fill-rule="evenodd" clip-rule="evenodd" d="M0,161.229c0-48.994,0-97.988,0-146.981C1.81,9.993,3.188,5.406,7.64,2.994
		C9.761,1.845,12.04,0.988,14.248,0c30.496,0,60.992,0,91.488,0c0.797,0.316,1.568,0.767,2.395,0.929
		c11.365,2.229,18.982,11.079,19.169,22.557c0.128,7.872,0.083,15.748,0.024,23.621c-0.04,5.386-2.743,8.258-7.496,8.197
		c-4.527-0.057-7.138-2.935-7.186-8.133c-0.066-7.249,0.075-14.5-0.066-21.746c-0.127-6.575-3.569-9.899-10.047-9.923
		c-10.624-0.039-21.247-0.021-31.871,0.002c-1.007,0.002-2.014,0.207-3.469,0.366c0.752,0.676,0.978,1.018,1.29,1.139
		c8.267,3.209,11.152,9.423,10.962,18.018c-0.311,14.116-0.084,28.244-0.084,42.367c0,23.497,0.064,46.994-0.065,70.49
		c-0.02,3.577,1.038,4.85,4.683,4.678c5.736-0.271,11.495-0.067,17.244-0.073c8.187-0.009,11.357-3.115,11.389-11.254
		c0.037-9.499-0.026-18.998,0.037-28.496c0.033-5.055,2.85-8.162,7.229-8.223c4.408-0.061,7.413,3.044,7.44,8.005
		c0.061,10.873,0.129,21.748-0.046,32.619c-0.178,11.009-8.418,20.46-19.434,21.811c-6.41,0.786-12.947,0.626-19.43,0.702
		c-8.803,0.104-8.804,0.026-9.075,8.732c-0.226,7.262-4.599,12.702-11.705,14.621c-0.822,0.222-1.59,0.642-2.383,0.97
		c-0.75,0-1.5,0-2.25,0c-0.315-0.198-0.606-0.471-0.949-0.582c-16.64-5.428-33.292-10.813-49.92-16.273
		c-4.826-1.585-8.542-4.543-10.466-9.412C1.072,164.229,0.55,162.723,0,161.229z"/>
	<path fill-rule="evenodd" clip-rule="evenodd" d="M144.284,72.291c0-7.999-0.062-15.462,0.02-22.923
		c0.064-5.85,3.595-9.378,8.774-8.563c1.705,0.268,3.556,1.297,4.803,2.523c10.327,10.151,20.57,20.387,30.745,30.69
		c4.005,4.057,3.911,7.952-0.182,12.078c-10.107,10.194-20.286,20.319-30.442,30.465c-2.455,2.454-5.225,3.825-8.743,2.374
		c-3.603-1.486-4.904-4.469-4.951-8.071c-0.086-6.615-0.154-13.236,0.03-19.847c0.08-2.855-0.94-3.626-3.666-3.586
		c-9.111,0.134-18.225,0.065-27.338,0.041c-5.391-0.015-8.821-2.961-8.82-7.499c0-4.424,3.516-7.595,8.839-7.653
		c8.737-0.097,17.477-0.028,26.215-0.029C140.927,72.291,142.284,72.291,144.284,72.291z"/>
</g>
</svg>
