<?xml version="1.0" encoding="utf-8"?>
<!-- Generator: Adobe Illustrator 16.0.0, SVG Export Plug-In . SVG Version: 6.00 Build 0)  -->
<!DOCTYPE svg PUBLIC "-//W3C//DTD SVG 1.1//EN" "http://www.w3.org/Graphics/SVG/1.1/DTD/svg11.dtd">
<svg version="1.1" id="Layer_1" xmlns="http://www.w3.org/2000/svg" xmlns:xlink="http://www.w3.org/1999/xlink" x="0px" y="0px"
	 width="191.976px" height="184.435px" viewBox="0 0 191.976 184.435" enable-background="new 0 0 191.976 184.435"
	 xml:space="preserve">
<g>
	<path fill-rule="evenodd" clip-rule="evenodd" d="M191.976,18.705c0,55.243,0,110.486,0,165.729
		c-29.439-0.026-58.877-0.073-88.316-0.071c-34.553,0.002-69.106,0.045-103.66,0.071c0-52.994,0-105.987,0-158.98
		c6.972,0.486,6.971,0.486,6.976-6.568c0-1.249-0.22-2.561,0.094-3.726c0.231-0.857,1.234-2.216,1.782-2.165
		c4.419,0.414,4.473-2.318,4.262-5.427c-0.093-1.367,0.09-2.756-0.037-4.119C12.83,0.8,14.017-0.008,16.57,0
		c20.108,0.068,40.218-0.015,60.326,0.144c1.53,0.012,3.535,1.151,4.48,2.401c3.083,4.074,5.935,8.348,8.562,12.733
		c1.657,2.766,3.57,3.818,6.898,3.801c30.351-0.146,60.702-0.082,91.053-0.098C189.251,18.98,190.614,18.801,191.976,18.705z
		 M137.443,175.73c13.738,0,27.478-0.099,41.213,0.073c3.229,0.04,4.396-0.836,4.376-4.147c-0.111-18.858-0.102-37.718-0.008-56.575
		c0.016-3.188-0.989-4.376-4.313-4.364c-27.476,0.105-54.953,0.097-82.429,0.009c-3.081-0.01-4.178,1.004-4.163,4.097
		c0.091,18.983,0.098,37.967-0.006,56.95c-0.017,3.11,1.019,4.055,4.115,4.021C109.966,175.646,123.705,175.729,137.443,175.73z
		 M89.567,50.182c0.164,0.906,0.107,1.471,0.354,1.822c3.229,4.597,6.44,9.208,9.821,13.691c0.554,0.735,1.901,1.23,2.884,1.232
		c26.852,0.066,53.703,0.034,80.555,0.087c2.357,0.004,3.062-1.011,3.007-3.157c-0.076-2.995-0.223-6.013,0.044-8.987
		c0.333-3.725-0.936-4.97-4.801-4.951c-29.349,0.146-58.699,0.079-88.048,0.087C92.187,50.008,90.992,50.114,89.567,50.182z
		 M12.932,18.411c-1.272,6.875-1.014,7.211,5.37,7.213c14.864,0.003,29.729,0.101,44.59-0.079c3.17-0.038,5.033,1.009,6.621,3.638
		c2.579,4.271,5.56,8.297,8.206,12.53c1.249,1.999,2.667,2.853,5.13,2.847c33.1-0.087,66.2-0.111,99.299,0.019
		c3.504,0.014,4.189-1.292,4.082-4.378c-0.117-3.362-2.312-2.968-4.419-2.968c-31.351-0.006-62.703-0.045-94.053,0.059
		c-3.062,0.01-5.099-0.693-6.719-3.456c-2.459-4.192-5.508-8.038-7.992-12.217c-1.605-2.702-3.586-3.651-6.688-3.626
		c-16.362,0.126-32.725,0.05-49.087,0.075C15.798,18.07,14.328,18.295,12.932,18.411z M135.625,31.747
		c15.623,0,31.245-0.054,46.867,0.051c2.727,0.018,3.69-0.764,3.768-3.585c0.097-3.468-1.656-3.791-4.409-3.786
		c-29.246,0.055-58.491-0.012-87.736,0.101c-3.083,0.013-5.058-0.748-6.688-3.487c-2.742-4.61-5.8-9.045-8.964-13.38
		c-0.83-1.137-2.533-2.311-3.845-2.323C56.997,5.184,39.375,5.236,21.753,5.225c-2.123-0.002-3.057,0.864-3.224,3.123
		c-0.253,3.448,1.008,4.583,4.472,4.551c15.496-0.144,30.995,0.001,46.492-0.118c2.803-0.021,4.631,0.729,6.121,3.209
		c2.569,4.277,5.612,8.27,8.219,12.526c1.465,2.393,3.169,3.332,6.05,3.303C105.128,31.667,120.377,31.748,135.625,31.747z"/>
	<path fill-rule="evenodd" clip-rule="evenodd" d="M137.584,168.441c-11.364,0-22.729-0.07-34.092,0.051
		c-2.717,0.029-3.747-0.75-3.726-3.583c0.107-14.235,0.111-28.472-0.001-42.707c-0.023-2.963,1.053-3.902,3.933-3.893
		c22.603,0.075,45.206,0.077,67.808-0.001c2.909-0.01,3.917,0.969,3.893,3.912c-0.115,14.235-0.114,28.472,0,42.707
		c0.023,2.855-1.021,3.594-3.725,3.566C160.313,168.372,148.948,168.441,137.584,168.441z M137.306,147.16
		c7.609,0,15.22-0.086,22.827,0.044c2.811,0.048,3.629-1.043,3.664-3.744c0.035-2.779-0.867-3.646-3.656-3.625
		c-14.968,0.117-29.938,0.1-44.906,0.012c-2.551-0.015-3.9,0.378-3.843,3.417c0.055,2.848,0.826,4.017,3.837,3.95
		C122.584,147.052,129.946,147.161,137.306,147.16z M137.853,152.647c-7.736,0-15.475,0.106-23.207-0.056
		c-2.887-0.06-3.217,1.332-3.213,3.66c0.004,2.345,0.414,3.732,3.249,3.715c15.222-0.09,30.445-0.102,45.667,0.009
		c3.055,0.022,3.374-1.481,3.43-3.944c0.059-2.611-0.854-3.482-3.466-3.434C152.828,152.735,145.34,152.646,137.853,152.647z
		 M144.057,127.099c-9.965,0-19.536,0.1-29.104-0.059c-2.907-0.049-3.542,1.065-3.548,3.716c-0.007,2.79,1.014,3.704,3.727,3.67
		c8.466-0.109,16.936-0.133,25.401,0.013c2.929,0.05,4.184-0.918,3.76-3.869C144.154,129.608,144.155,128.626,144.057,127.099z"/>
</g>
</svg>
