<?xml version="1.0" encoding="utf-8"?>
<!-- Generator: Adobe Illustrator 16.0.0, SVG Export Plug-In . SVG Version: 6.00 Build 0)  -->
<!DOCTYPE svg PUBLIC "-//W3C//DTD SVG 1.1//EN" "http://www.w3.org/Graphics/SVG/1.1/DTD/svg11.dtd">
<svg version="1.1" id="Layer_1" xmlns="http://www.w3.org/2000/svg" xmlns:xlink="http://www.w3.org/1999/xlink" x="0px" y="0px"
	 width="191.453px" height="191.976px" viewBox="0 0 191.453 191.976" enable-background="new 0 0 191.453 191.976"
	 xml:space="preserve">
<g>
	<path fill-rule="evenodd" clip-rule="evenodd" d="M0,99.737c0-2.5,0-5,0-7.499c0.55-3.545,1.116-7.088,1.647-10.637
		C7.598,41.816,37.715,10.217,77.202,2.425C82.18,1.442,87.224,0.8,92.238,0c2.5,0,4.999,0,7.499,0
		c1.318,0.31,2.623,0.693,3.956,0.917c5.636,0.95,11.396,1.404,16.902,2.841c46.185,12.063,77.174,57.533,69.763,106.549
		c-6,39.684-36.226,71.598-75.565,79.225c-5.229,1.015-10.535,1.639-15.806,2.443c-2,0-4,0-5.999,0
		c-3.798-0.554-7.595-1.114-11.394-1.661c-39.269-5.649-71.712-36.442-79.114-75.167C1.505,110.039,0.82,104.875,0,99.737z
		 M105.469,96.234c1.494-1.562,2.416-2.564,3.378-3.527c8.739-8.751,17.603-17.383,26.128-26.337
		c1.676-1.761,3.119-4.896,2.823-7.156c-0.741-5.651-7.385-7.084-11.806-2.734c-8.994,8.849-17.863,17.824-26.797,26.734
		c-1.02,1.016-2.125,1.947-3.886,3.551c-1.142-1.542-1.905-2.886-2.956-3.944c-8.711-8.779-17.429-17.552-26.244-26.227
		c-4.482-4.411-10.989-3.172-11.881,2.463c-0.354,2.233,1.007,5.434,2.661,7.173c8.606,9.049,17.562,17.767,26.387,26.608
		c0.949,0.951,1.843,1.959,2.957,3.148c-1.111,1.187-2.004,2.196-2.953,3.146c-8.825,8.842-17.661,17.673-26.491,26.51
		c-2.119,2.121-3.71,4.435-2.637,7.653c1.796,5.388,7.503,6.465,11.961,2.082c8.463-8.32,16.804-16.763,25.208-25.142
		c1.478-1.473,3.015-2.885,4.706-4.499c1.307,1.248,2.396,2.247,3.44,3.29c8.932,8.911,17.809,17.879,26.808,26.722
		c3.31,3.252,7.132,3.213,9.948,0.274c2.719-2.838,2.641-6.384-0.395-9.695c-2.193-2.392-4.543-4.641-6.854-6.923
		C121.251,111.778,113.516,104.165,105.469,96.234z"/>
</g>
</svg>
