<?xml version="1.0" encoding="utf-8"?>
<!-- Generator: Adobe Illustrator 16.0.0, SVG Export Plug-In . SVG Version: 6.00 Build 0)  -->
<!DOCTYPE svg PUBLIC "-//W3C//DTD SVG 1.1//EN" "http://www.w3.org/Graphics/SVG/1.1/DTD/svg11.dtd">
<svg version="1.1" id="Layer_1" xmlns="http://www.w3.org/2000/svg" xmlns:xlink="http://www.w3.org/1999/xlink" x="0px" y="0px"
	 width="191.976px" height="183.549px" viewBox="0 0 191.976 183.549" enable-background="new 0 0 191.976 183.549"
	 xml:space="preserve">
<g>
	<path fill-rule="evenodd" clip-rule="evenodd" d="M191.976,97.075c0,1.25,0,2.5,0,3.75c-0.326,0.926-0.775,1.83-0.958,2.784
		c-1.828,9.474-9.467,17.286-19.038,17.964c-10.568,0.75-21.209,0.48-31.818,0.647c-1.445,0.022-2.892,0.004-5.213,0.004
		c1.363,2.997,2.226,5.297,3.405,7.42c5.155,9.283,7.612,19.071,6.943,29.795c-0.795,12.736-6.929,20.792-18.652,23.369
		c-9.493,2.085-13.699-0.016-17.331-8.972c-1.115-2.75-2.043-5.659-2.495-8.582c-1.635-10.59-5.191-19.969-13.008-27.902
		c-7.074-7.179-12.804-15.664-19.56-23.184c-2.734-3.044-6.344-5.634-10.051-7.38c-4.02-1.895-6.097-3.706-6.172-8.218
		c-0.027-1.625-0.006-3.249-0.006-4.873c0-23.118-0.006-46.236,0.006-69.353c0.002-4.938,2.325-7.836,6.412-8.757
		c5.457-1.229,11.026-2.271,16.24-4.214c22.13-8.249,44.744-12.815,68.511-10.96c16.576,1.293,25.807,10.832,26.065,27.641
		c0.023,1.498,0.473,3.257,1.348,4.431c4.696,6.303,6.927,13.128,5.5,21.031c-0.245,1.356-0.1,3.132,0.602,4.252
		c4.264,6.809,4.693,14.034,2.907,21.618c-0.215,0.913-0.453,2.034-0.124,2.826C187.563,87.202,189.795,92.127,191.976,97.075z"/>
	<path fill-rule="evenodd" clip-rule="evenodd" d="M0,22.084c1.95-5.172,5.638-6.83,11.124-6.615
		c9.975,0.39,19.977,0.089,29.967,0.122c5.64,0.019,8.19,2.566,8.196,8.259c0.025,24.851,0.026,49.702-0.001,74.553
		c-0.006,5.721-2.497,8.167-8.237,8.185c-9.991,0.031-19.992-0.274-29.967,0.123c-5.497,0.219-9.187-1.41-11.083-6.636
		C0,74.078,0,48.082,0,22.084z M23.049,30.053c-4.479-0.01-8.228,3.631-8.215,7.978c0.013,4.292,3.851,8.179,8.129,8.23
		c4.274,0.053,8.034-3.75,8.069-8.161C31.067,33.491,27.667,30.063,23.049,30.053z"/>
</g>
</svg>
