<?xml version="1.0" encoding="utf-8"?>
<!-- Generator: Adobe Illustrator 16.0.0, SVG Export Plug-In . SVG Version: 6.00 Build 0)  -->
<!DOCTYPE svg PUBLIC "-//W3C//DTD SVG 1.1//EN" "http://www.w3.org/Graphics/SVG/1.1/DTD/svg11.dtd">
<svg version="1.1" id="Layer_1" xmlns="http://www.w3.org/2000/svg" xmlns:xlink="http://www.w3.org/1999/xlink" x="0px" y="0px"
	 width="167.804px" height="105.287px" viewBox="0 0 167.804 105.287" enable-background="new 0 0 167.804 105.287"
	 xml:space="preserve">
<g>
	<path fill-rule="evenodd" clip-rule="evenodd" d="M127.479,105.273c-10.621,0-21.241,0.04-31.862-0.015
		c-6.025-0.031-8.355-2.407-8.377-8.426c-0.034-9.121-0.054-18.243,0.007-27.363c0.064-9.635,6.222-16.545,15.732-17.819
		c1.728-0.231,3.552-0.246,5.146-0.849c3.399-1.284,4.297,0.647,5.238,3.291c3.515,9.862,7.105,19.7,10.871,29.467
		c0.58,1.505,2.229,2.598,3.383,3.881c1.057-1.263,2.547-2.361,3.101-3.816c3.813-10.018,7.473-20.096,11.082-30.191
		c0.834-2.333,1.759-3.635,4.595-2.708c2.098,0.686,4.42,0.667,6.635,1.014c8.226,1.288,14.618,8.543,14.707,16.933
		c0.103,9.62,0.072,19.243,0.008,28.863c-0.033,4.907-2.731,7.659-7.654,7.697c-10.87,0.084-21.741,0.026-32.612,0.026
		C127.479,105.263,127.479,105.269,127.479,105.273z"/>
	<path fill-rule="evenodd" clip-rule="evenodd" d="M64.466,31.851c-3.351-3.367-5.955-5.958-8.53-8.577
		c-2.868-2.918-3.301-5.718-1.253-7.833c2.06-2.126,4.994-1.781,7.833,1.031c5.324,5.273,10.633,10.562,15.894,15.899
		c3.29,3.338,3.333,5.357,0.119,8.63c-5.425,5.525-10.934,10.968-16.413,16.439c-2.219,2.214-4.668,2.979-7.269,0.733
		c-2.192-1.893-1.875-4.849,0.708-7.528c2.625-2.72,5.307-5.385,7.68-8.42C51.579,42.4,41.406,46.263,32.31,52.996
		c-10.353,7.661-17.396,17.713-21.338,29.991c-0.398,1.24-1.47,2.578-2.6,3.204c-2.744,1.522-5.706,2.652-8.351,3.837
		c-0.534-10.192,8.9-28.73,20.922-39.934C32.851,38.997,47.201,33.34,64.466,31.851z"/>
	<path fill-rule="evenodd" clip-rule="evenodd" d="M147.761,20.651c-0.01,11.536-8.865,20.365-20.38,20.319
		c-11.324-0.044-20.615-9.273-20.541-20.403C106.914,9.546,116.447,0.039,127.464,0C138.574-0.039,147.771,9.319,147.761,20.651z"/>
	<path fill-rule="evenodd" clip-rule="evenodd" d="M127.555,74.882c-2.438-4.182-3.354-7.977-2.37-12.267
		c0.757-3.302,0.883-6.593-1.558-9.561c-1.651-2.008-0.97-3.501,1.755-3.676c1.243-0.079,2.495-0.036,3.743-0.015
		c2.654,0.044,3.697,1.627,2.124,3.578c-2.548,3.16-2.28,6.639-1.493,9.926C130.779,67.139,129.501,70.683,127.555,74.882z"/>
</g>
</svg>
