<?xml version="1.0" encoding="utf-8"?>
<!-- Generator: Adobe Illustrator 16.0.0, SVG Export Plug-In . SVG Version: 6.00 Build 0)  -->
<!DOCTYPE svg PUBLIC "-//W3C//DTD SVG 1.1//EN" "http://www.w3.org/Graphics/SVG/1.1/DTD/svg11.dtd">
<svg version="1.1" id="Layer_1" xmlns="http://www.w3.org/2000/svg" xmlns:xlink="http://www.w3.org/1999/xlink" x="0px" y="0px"
	 width="173.572px" height="142.199px" viewBox="0 0 173.572 142.199" enable-background="new 0 0 173.572 142.199"
	 xml:space="preserve">
<g>
	<path fill-rule="evenodd" clip-rule="evenodd" d="M88.278,0c2.554,0.471,5.235,0.596,7.638,1.479
		c7.051,2.588,13.993,5.477,21.489,8.451c-0.072,0.087,0.476-0.726,1.165-1.394c2.585-2.508,6.407-1.792,6.938,1.744
		c0.635,4.235,0.402,8.665-0.036,12.951c-0.111,1.088-2.323,2.554-3.745,2.79c-2.799,0.462-5.721,0.193-8.593,0.211
		c-2.543,0.016-5.524,0.124-6.035-3.001c-0.3-1.835,0.974-3.928,1.78-6.744c-0.163-0.125-1.136-1.007-2.231-1.693
		c-15.402-9.642-36.447-6.496-48.355,7.202c-3.641,4.189-5.527,4.863-7.943,2.841c-2.464-2.062-1.992-4.813,1.505-8.66
		c7.856-8.638,17.463-13.919,29.15-15.261c0.947-0.108,1.85-0.602,2.773-0.916C85.278,0,86.778,0,88.278,0z"/>
	<path fill-rule="evenodd" clip-rule="evenodd" d="M135.518,142.187c-9.614,0-19.227,0.017-28.841-0.006
		c-6.158-0.015-8.632-2.403-8.701-8.577c-0.083-7.365,0.228-14.744-0.089-22.097c-0.444-10.287,3.811-18.682,17.014-20.419
		c6.231-0.82,6.194-1.059,8.349,4.88c3.016,8.313,5.948,16.659,9.138,24.904c0.64,1.653,2.275,2.921,3.452,4.365
		c1.146-1.49,2.72-2.817,3.367-4.501c3.396-8.835,6.634-17.733,9.752-26.672c0.952-2.73,1.896-4.396,5.279-3.237
		c2.315,0.794,4.939,0.636,7.338,1.247c6.813,1.734,11.859,8.264,11.937,15.473c0.096,8.863,0.058,17.729,0.024,26.593
		c-0.021,5.375-2.629,8.002-8.053,8.031C155.495,142.224,145.506,142.186,135.518,142.187z"/>
	<path fill-rule="evenodd" clip-rule="evenodd" d="M37.705,142.186c-9.738,0.001-19.476,0.023-29.213-0.007
		c-5.918-0.019-8.454-2.532-8.476-8.366c-0.028-7.491-0.012-14.982-0.008-22.473c0.006-12.844,4.738-18.341,17.449-20.28
		c5.682-0.867,5.677-0.865,7.733,4.747c3.127,8.538,6.191,17.1,9.459,25.583c0.562,1.458,2.006,2.575,3.042,3.851
		c1.147-1.317,2.775-2.448,3.364-3.979c3.44-8.951,6.718-17.968,9.869-27.025c0.989-2.843,1.963-4.646,5.508-3.389
		c2.186,0.774,4.686,0.604,6.979,1.139c6.177,1.439,11.636,7.417,11.88,13.875c0.373,9.847,0.317,19.717,0.158,29.571
		c-0.071,4.382-2.997,6.708-7.782,6.736C57.681,142.227,47.693,142.186,37.705,142.186z"/>
	<path fill-rule="evenodd" clip-rule="evenodd" d="M154.816,62.609c-0.046,10.785-8.419,18.966-19.348,18.904
		c-10.413-0.059-18.94-8.634-18.998-19.105c-0.057-10.306,9.107-19.453,19.383-19.347C146.37,43.169,154.861,51.923,154.816,62.609z
		"/>
	<path fill-rule="evenodd" clip-rule="evenodd" d="M37.591,81.515c-10.733-0.039-18.908-8.458-18.847-19.409
		c0.057-10.35,8.823-19.093,19.092-19.044c10.357,0.05,19.461,9.254,19.263,19.475C56.891,73.221,48.326,81.554,37.591,81.515z"/>
	<path fill-rule="evenodd" clip-rule="evenodd" d="M37.551,115.298c-2.502-3.718-2.845-7.854-1.96-12.094
		c0.666-3.194,0.574-6.016-1.465-8.812c-1.789-2.453-0.958-3.873,2.021-4.101c1.114-0.086,2.241-0.043,3.36-0.009
		c2.555,0.078,3.824,1.686,2.215,3.574c-3.074,3.611-1.557,7.479-1.654,11.331c-0.086,3.422-0.672,6.833-1.038,10.247
		C38.538,115.389,38.044,115.343,37.551,115.298z"/>
	<path fill-rule="evenodd" clip-rule="evenodd" d="M135.86,115.591c-3.728-4.597-2.48-9.446-2.276-14.232
		c0.088-2.06-0.681-4.163-1.113-6.235c-0.264-1.268-1.243-2.875-0.776-3.669c0.479-0.814,2.31-0.913,3.582-1.154
		c0.84-0.159,1.751-0.116,2.605,0.012c2.166,0.323,3.459,1.569,1.898,3.531c-2.542,3.195-2.396,6.5-1.673,10.198
		C138.883,108.017,138.293,111.915,135.86,115.591z"/>
</g>
</svg>
