<?xml version="1.0" encoding="utf-8"?>
<!-- Generator: Adobe Illustrator 16.0.0, SVG Export Plug-In . SVG Version: 6.00 Build 0)  -->
<!DOCTYPE svg PUBLIC "-//W3C//DTD SVG 1.1//EN" "http://www.w3.org/Graphics/SVG/1.1/DTD/svg11.dtd">
<svg version="1.1" id="Layer_1" xmlns="http://www.w3.org/2000/svg" xmlns:xlink="http://www.w3.org/1999/xlink" x="0px" y="0px"
	 width="191.976px" height="190.208px" viewBox="0 0 191.976 190.208" enable-background="new 0 0 191.976 190.208"
	 xml:space="preserve">
<g>
	<path fill-rule="evenodd" clip-rule="evenodd" d="M191.976,110.986c-3.505,1.552-6.645,0.713-9.953-0.977
		c-48.152-24.597-106.033,2.041-118.837,54.484c-1.695,6.943,1.838,12.345,9.477,12.169c18.238-0.418,36.492-0.156,54.74-0.121
		c6.008,0.011,9.381,3.202,8.807,8.142c-0.377,3.248-2.682,5.468-5.982,5.473c-21.122,0.033-42.245,0.111-63.366-0.034
		c-7.723-0.054-16.626-8.356-17.682-16.914c-0.562-4.557-0.29-9.531,0.944-13.943c8.936-31.934,28.889-54.135,59.778-66.399
		c1.138-0.453,2.26-0.947,4.012-1.683c-1.598-1.487-2.831-2.641-4.07-3.787C98.865,77.244,93.142,64.49,93.44,49.74
		c0.51-25.175,17.334-43.243,38.828-48.698c0.933-0.236,1.812-0.69,2.715-1.042c6,0,11.999,0,17.998,0
		c0.774,0.337,1.519,0.788,2.327,0.993c15.742,3.993,27.23,13.221,34.382,27.827c0.697,1.423,1.521,2.785,2.287,4.175
		c0,11.499,0,22.998,0,34.496c-0.394,0.61-0.885,1.181-1.168,1.839c-3.264,7.577-7.972,14.088-14.217,19.49
		c-0.723,0.626-1.328,1.388-2.187,2.298c6.063,2.716,11.817,5.292,17.572,7.868C191.976,102.987,191.976,106.987,191.976,110.986z
		 M107.688,50.07c-0.02,20.229,15.855,36.114,35.746,36.547c20.497,0.445,37.148-17.065,36.904-36.202
		c-0.261-20.417-15.918-36.445-36.183-36.465C123.747,13.93,107.708,29.816,107.688,50.07z"/>
	<path fill-rule="evenodd" clip-rule="evenodd" d="M0,89.239c1.957-3.018,3.623-6.28,5.926-9.005
		c5.697-6.74,13.093-10.228,21.989-10.251c12.622-0.033,25.243-0.014,37.864-0.016c1.316-0.001,2.631,0,3.947,0
		c0.166-0.355,0.332-0.71,0.499-1.065c-1.866-1.886-3.843-3.676-5.563-5.688c-1.43-1.672-2.797-3.485-3.759-5.448
		c-1.381-2.818-1.15-5.613,1.552-7.698c2.677-2.066,5.794-2.458,8.241-0.163c5.913,5.548,11.964,11.06,17.096,17.297
		c5.127,6.23,4.287,15.696-1.228,21.726c-4.717,5.159-9.76,10.031-14.823,14.857c-3.172,3.025-7.23,2.863-9.994-0.015
		c-2.788-2.904-2.708-6.702,0.38-10.01c2.785-2.982,5.708-5.834,9.241-9.425c-1.963-0.267-2.983-0.524-4.004-0.526
		c-12.871-0.026-25.743-0.111-38.613,0.018c-8.623,0.086-14.968,5.868-16.111,14.287c-0.93,6.846,4.003,14.16,11.064,16.343
		c0.94,0.291,1.936,0.463,2.918,0.549c5.815,0.504,8.724,3.227,8.362,7.887c-0.331,4.262-4.191,6.674-9.828,6.096
		c-10.523-1.08-18.074-6.583-23.23-15.646c-0.602-1.058-1.283-2.072-1.927-3.107C0,103.237,0,96.238,0,89.239z"/>
</g>
</svg>
