<?xml version="1.0" encoding="utf-8"?>
<!-- Generator: Adobe Illustrator 16.0.0, SVG Export Plug-In . SVG Version: 6.00 Build 0)  -->
<!DOCTYPE svg PUBLIC "-//W3C//DTD SVG 1.1//EN" "http://www.w3.org/Graphics/SVG/1.1/DTD/svg11.dtd">
<svg version="1.1" id="Layer_1" xmlns="http://www.w3.org/2000/svg" xmlns:xlink="http://www.w3.org/1999/xlink" x="0px" y="0px"
	 width="191.129px" height="191.976px" viewBox="0 0 191.129 191.976" enable-background="new 0 0 191.129 191.976"
	 xml:space="preserve">
<g>
	<path fill-rule="evenodd" clip-rule="evenodd" d="M46.494,191.976c0.079-7.364,0.175-14.729,0.233-22.093
		c0.104-13.112,9.53-22.543,22.717-22.688c2.498-0.028,5.018,0.185,7.488-0.081c1.662-0.179,4.59-0.9,4.642-1.559
		c0.2-2.566,0.447-6.359-1.061-7.623c-8.511-7.128-11.135-16.209-10.494-26.753c0.279-4.595-0.029-9.289,0.807-13.774
		c3.411-18.309,26.473-26.596,40.932-14.888c0.578,0.468,1.236,0.836,2.466,1.656c-1.551,1.338-2.547,2.197-3.661,3.157
		c-8.673-6.6-17.673-7.899-26.774-1.662c-6.667,4.569-9.433,11.24-8.933,19.356c0.544-0.029,0.915,0.048,0.991-0.067
		c3.718-5.677,9.123-7.244,15.571-6.688c3.101,0.267,6.255,0.223,9.363,0.009c6.412-0.441,11.939,0.899,15.216,7.493
		c0.469-0.286,0.938-0.571,1.408-0.857c-0.792-4.193-1.583-8.387-2.455-13.009c0.585-0.38,1.592-1.035,3.47-2.255
		c1.038,3.29,2.574,6.104,2.709,8.985c0.356,7.58,0.51,15.216-0.033,22.775c-0.445,6.202-3.833,11.38-8.735,15.171
		c-3.438,2.659-2.294,5.994-2.125,9.2c0.026,0.507,1.697,1.274,2.638,1.323c3.365,0.173,6.754-0.063,10.108,0.197
		c0.945,0.073,1.799,1.314,2.695,2.019c-0.956,0.869-1.848,2.389-2.877,2.488c-3.342,0.322-6.755-0.088-10.098,0.234
		c-1.24,0.12-2.957,1.227-3.433,2.327c-2.548,5.882-6.948,9.361-13.206,9.436c-6.445,0.076-10.932-3.443-13.527-9.481
		c-0.47-1.093-2.24-2.183-3.489-2.283c-3.724-0.297-7.489-0.174-11.234-0.083c-7.939,0.193-15.75,6.992-16.174,14.953
		c-0.444,8.33,0.032,16.709,0.105,25.066C49.993,191.976,48.244,191.976,46.494,191.976z M94.435,102.684
		c-8.857-2.463-14.6,2.717-18.027,11.753c-0.264,0.695-0.759,1.317-0.946,2.026c-0.278,1.052-0.644,2.187-0.508,3.225
		c1.316,10.05,9.748,17.712,20.142,18.417c9.151,0.62,18.474-6.123,21.008-15.436c0.53-1.946,1.05-4.546,0.209-6.113
		C109.096,103.104,111.335,102.413,94.435,102.684z M105.14,142.183c-6.329,0-12.107,0-18.447,0c0,2.251-0.049,4.949,0.011,7.646
		c0.11,4.973,3.644,8.819,8.479,9.31c4.525,0.459,9.273-3.107,9.884-7.877C105.457,148.219,105.14,145.086,105.14,142.183z"/>
	<path fill-rule="evenodd" clip-rule="evenodd" d="M0,35.246c5.022-0.127,5.028-0.127,5.035,4.761
		C5.043,45.75,5,51.494,5.051,57.236c0.045,5.122,1.762,7.282,6.65,6.745c9.528-1.047,17.467,1.621,24.643,7.928
		c4.288,3.769,9.302,6.711,14.012,9.993c0.971,0.677,2.038,1.214,3.873,2.292c0-2.421-0.051-3.981,0.009-5.536
		c0.181-4.686,0.404-9.37,0.611-14.055c4.706-0.17,9.412-0.484,14.118-0.49c36.584-0.042,73.168-0.021,109.752-0.025
		c6.613-0.001,8.04-1.418,8.052-8.156c0.026-14.233,0.034-28.468-0.006-42.702c-0.018-6.514-1.733-8.169-8.236-8.179
		c-8.491-0.013-16.981-0.003-25.472-0.004c-5.441,0-5.441-0.001-6.075-5.047c11.748,0,23.497,0,35.245,0
		c0.782,0.349,1.552,0.729,2.349,1.043c3.958,1.559,6.474,4.287,6.489,8.684c0.059,16.605,0.122,33.213-0.025,49.817
		c-0.052,5.867-4.032,9.241-10.404,9.252c-24.723,0.042-49.447,0.022-74.17,0.024c-14.235,0.001-28.471,0.107-42.704-0.072
		c-3.646-0.045-5.112,0.805-4.904,4.76c0.338,6.418,0.091,12.868,0.091,19.968c-1.643-1.034-2.689-1.628-3.667-2.318
		C45.796,84.47,36.386,77.67,26.789,71.145c-1.918-1.304-4.498-1.774-6.849-2.256c-1.677-0.345-3.501-0.235-5.227-0.039
		C7.5,69.674,2.267,67.327,0,59.992C0,51.743,0,43.494,0,35.246z"/>
	<path fill-rule="evenodd" clip-rule="evenodd" d="M140.982,0c-0.544,5.044-0.544,5.047-5.67,5.047
		c-40.408,0.001-80.816,0-121.225,0.002c-7.69,0-9.044,1.383-9.05,9.202c-0.002,2.869,0,5.737,0,8.605
		C5.034,28.109,5.033,28.109,0,28.496c0-6.249,0-12.499,0-18.748C1.389,4.639,4.65,1.4,9.749,0C53.493,0,97.237,0,140.982,0z"/>
	<path fill-rule="evenodd" clip-rule="evenodd" d="M140.232,191.976c0.059-8.094,0.507-16.209,0.047-24.273
		c-0.342-6.001-3.729-10.722-9.293-13.921c0.575-1.366,1.083-2.574,1.573-3.737c6.591,1.353,12.616,11.446,12.65,19.15
		c0.035,7.594,0.178,15.187,0.273,22.781C143.731,191.976,141.982,191.976,140.232,191.976z"/>
	<path fill-rule="evenodd" clip-rule="evenodd" d="M62.992,191.976c0.12-3.439,0.069-6.897,0.462-10.306
		c0.12-1.034,1.47-1.927,2.256-2.884c0.783,0.943,2.146,1.83,2.245,2.839c0.336,3.427,0.226,6.896,0.287,10.351
		C66.491,191.976,64.742,191.976,62.992,191.976z"/>
	<path fill-rule="evenodd" clip-rule="evenodd" d="M123.734,191.976c-0.013-3.495-0.183-7,0.064-10.477
		c0.067-0.946,1.389-1.803,2.135-2.701c0.721,0.899,1.985,1.753,2.065,2.706c0.292,3.473,0.189,6.979,0.234,10.472
		C126.734,191.976,125.234,191.976,123.734,191.976z"/>
	<path fill-rule="evenodd" clip-rule="evenodd" d="M58.291,168.788c0.178-5.781,4.146-9.787,9.931-10.042
		c0.998,2.345,0.795,4.033-1.992,5.134c-1.138,0.45-2.339,1.654-2.771,2.796C62.479,169.265,60.872,169.667,58.291,168.788z"/>
	<path fill-rule="evenodd" clip-rule="evenodd" d="M84.508,179.001c1.138,1.505,2.257,2.364,2.135,2.973
		c-0.176,0.882-1.138,1.969-1.986,2.219c-0.511,0.151-1.999-1.083-2.042-1.76C82.56,181.579,83.528,180.659,84.508,179.001z"/>
	<path fill-rule="evenodd" clip-rule="evenodd" d="M99.001,182.223c-1.388,1.013-2.27,2.12-2.866,1.983
		c-0.903-0.207-1.608-1.28-2.397-1.985c0.79-0.707,1.494-1.782,2.398-1.991C96.73,180.092,97.613,181.204,99.001,182.223z"/>
	<path fill-rule="evenodd" clip-rule="evenodd" d="M110.25,182.09c-1.349,1.077-2.189,2.229-2.787,2.114
		c-0.908-0.175-1.646-1.228-2.457-1.907c0.76-0.732,1.422-1.83,2.313-2.068C107.913,180.07,108.833,181.14,110.25,182.09z"/>
	<path fill-rule="evenodd" clip-rule="evenodd" d="M23.638,29.07c3.964-0.663,7.242-1.447,10.559-1.687
		c2.41-0.174,3.493-1.352,4.396-3.328c1.38-3.023,2.968-5.952,4.771-9.522c1.831,3.652,3.164,6.86,5.006,9.743
		c0.853,1.334,2.573,2.511,4.122,2.92c3.309,0.872,6.762,1.197,11.109,1.9c-2.882,2.702-5.117,5.01-7.58,7.045
		c-2.234,1.846-2.627,3.97-2.041,6.647c0.625,2.858,0.974,5.776,1.594,9.597c-3.801-1.975-6.656-3.745-9.735-4.935
		c-1.488-0.575-3.587-0.532-5.078,0.063c-3.161,1.262-6.104,3.07-9.754,4.977c0.708-4.197,1.494-7.575,1.755-10.992
		c0.114-1.494-0.449-3.396-1.396-4.541C29.159,34.291,26.533,31.969,23.638,29.07z M33.549,32.133
		c3.788,3.354,5.636,6.534,4.007,11.083c3.916-2.19,7.463-2.87,11.287,0.093c-1.004-4.502,0.249-7.934,3.565-10.954
		c-4.851,0.159-7.16-2.793-9.361-7.257C41.695,30.345,38.713,32.121,33.549,32.133z"/>
	<path fill-rule="evenodd" clip-rule="evenodd" d="M128.731,29.016c9.491-0.195,16.527-2.971,18.797-12.627
		c0.079-0.334,0.399-0.613,1.066-1.59c1.619,3.269,3.034,5.959,4.295,8.721c1.047,2.291,2.248,3.854,5.204,3.929
		c3.184,0.082,6.346,0.952,10.164,1.585c-2.478,2.47-4.528,4.745-6.824,6.736c-2.316,2.009-3.167,4.112-2.279,7.21
		c0.809,2.822,0.96,5.833,1.488,9.336c-2.578-1.302-4.845-2.093-6.694-3.453c-3.854-2.835-7.369-2.689-11.153,0.116
		c-1.761,1.306-3.926,2.067-6.604,3.429c0.607-3.8,0.944-7.05,1.691-10.202c0.555-2.338,0.156-4.027-1.636-5.66
		C133.775,34.293,131.506,31.819,128.731,29.016z M153.817,43.314c-0.859-4.481,0.35-7.939,3.624-11.003
		c-4.896,0.296-7.05-2.865-9.395-7.203c-1.23,5.412-4.418,6.892-9.691,7.133c4.615,3.163,5.369,6.68,3.903,11.772
		C146.576,41.178,149.996,40.118,153.817,43.314z"/>
	<path fill-rule="evenodd" clip-rule="evenodd" d="M97.744,14.525c1.785,3.548,3.375,6.468,4.732,9.493
		c0.966,2.152,2.245,3.242,4.765,3.387c3.201,0.184,6.366,0.977,10.478,1.663c-2.792,2.719-5.073,5.065-7.494,7.258
		c-1.702,1.541-2.562,3.026-1.906,5.522c0.836,3.182,1.085,6.518,1.707,10.57c-3.591-1.877-6.595-3.317-9.459-4.992
		c-1.943-1.136-3.584-1.12-5.529,0.024c-2.772,1.63-5.708,2.981-9.409,4.881c0.457-3.217,0.536-5.765,1.221-8.139
		c1.097-3.801,0.354-6.675-2.835-9.169c-2.107-1.647-3.804-3.821-5.891-5.971c3.684-0.611,7.15-0.92,10.444-1.844
		c1.646-0.461,3.424-1.755,4.353-3.185C94.723,21.252,95.968,18.116,97.744,14.525z M107.786,31.938
		c-5.755,0.611-8.067-2.442-10.551-6.906c-1.027,5.75-4.372,6.989-8.645,7.517c3.793,2.828,4.582,6.384,3.719,10.825
		c3.858-3.148,7.413-2.182,11.338-0.214C101.729,38.556,103.847,35.482,107.786,31.938z"/>
	<path fill-rule="evenodd" clip-rule="evenodd" d="M179.685,18.081c0,1.496,0.282,3.071-0.104,4.46
		c-0.238,0.856-1.51,1.989-2.292,1.97c-0.776-0.02-2.24-1.413-2.164-2.056c0.569-4.784-1.064-7.009-6.117-6.211
		c-2.148,0.34-2.593-1.238-2.208-2.86c0.168-0.709,1.114-1.596,1.834-1.734c1.445-0.275,2.979-0.113,4.475-0.095
		C180.591,11.646,179.615,10.554,179.685,18.081z"/>
	<path fill-rule="evenodd" clip-rule="evenodd" d="M18.169,57.41c-7.568-0.052-6.526,0.979-6.615-6.469
		c-0.013-1.123,0.032-2.248-0.009-3.369c-0.063-1.755,0.01-3.249,2.448-3.212c2.534,0.039,2.277,1.745,2.297,3.371
		c0.004,0.375,0.042,0.753,0,1.122c-0.332,2.882,0.842,4.224,3.823,3.893c0.983-0.109,2.174-0.299,2.939,0.133
		c0.755,0.426,1.446,1.575,1.495,2.444c0.038,0.665-0.879,1.868-1.53,1.991C21.45,57.609,19.791,57.41,18.169,57.41z"/>
</g>
</svg>
