<?xml version="1.0" encoding="utf-8"?>
<!-- Generator: Adobe Illustrator 16.0.0, SVG Export Plug-In . SVG Version: 6.00 Build 0)  -->
<!DOCTYPE svg PUBLIC "-//W3C//DTD SVG 1.1//EN" "http://www.w3.org/Graphics/SVG/1.1/DTD/svg11.dtd">
<svg version="1.1" id="Layer_1" xmlns="http://www.w3.org/2000/svg" xmlns:xlink="http://www.w3.org/1999/xlink" x="0px" y="0px"
	 width="191.976px" height="191.976px" viewBox="0 0 191.976 191.976" enable-background="new 0 0 191.976 191.976"
	 xml:space="preserve">
<g>
	<path fill-rule="evenodd" clip-rule="evenodd" d="M191.976,0c-0.743,5.797-0.743,5.797-6.843,5.797
		c-10.368,0.001-20.738,0.106-31.104-0.059c-3.277-0.053-4.349,1.021-4.309,4.303c0.152,12.491,0.15,24.985,0,37.475
		c-0.039,3.255,1.002,4.401,4.286,4.356c10.866-0.147,21.736-0.128,32.603,0.021c1.833,0.025,4.944-1.546,5.048,2.407
		c0.104,3.953-2.982,2.611-4.873,2.628c-11.991,0.112-23.984,0.062-35.977,0.055c-5.88-0.004-5.88-0.015-6.909-5.748
		c-7.068-1.572-8.655-0.99-12.529,4.727c-5.063,7.47-7.227,15.773-7.142,24.745c0.044,4.69-1.247,5.789-5.795,5.203
		c-9.007-1.158-15.356-8.269-15.458-17.333c-0.031-2.748-0.122-5.502,0.015-8.243c0.122-2.466-0.983-3.362-3.313-3.346
		c-5.246,0.037-10.495,0.076-15.739-0.043c-6.717-0.154-9.61-3.394-9.692-10.11c-0.015-1.266-0.993-2.926-2.044-3.696
		c-3.23-2.365-4.992-5.341-4.346-9.285c0.634-3.875,2.888-6.654,6.942-7.376c2.191-0.39,2.729-1.433,2.715-3.565
		c-0.034-5.33,1.996-7.673,7.238-9.425c0.938-0.314,2.345-1.542,2.272-2.21C86.324,4.919,90.028,1.95,95.238,0
		c4.999,0,9.999,0,14.998,0c1.063,0.308,2.117,0.649,3.19,0.917c6.256,1.562,12.492,3.212,18.783,4.617
		c3.778,0.844,7.644,1.295,10.892,1.828c1.339-3.148,2.235-5.255,3.131-7.362C161.479,0,176.728,0,191.976,0z M144.256,12.826
		c-4.235-0.361-8.208,0.238-11.309-1.134c-10.9-4.822-22.216-6.312-33.945-5.903c-2.888,0.101-6.378-0.288-6.432,3.807
		c-0.054,4.083,3.43,3.493,6.124,3.482c1.854-0.007,3.082,0.296,3.132,2.617c0.054,2.442-1.097,2.94-3.202,2.905
		c-3.994-0.066-7.997-0.104-11.981,0.119c-2.167,0.122-4.185,1.4-3.523,3.805c0.376,1.371,2.167,3.031,3.564,3.3
		c2.899,0.559,5.959,0.305,8.954,0.33c1.832,0.015,3.103,0.362,3.117,2.675c0.016,2.413-1.38,2.546-3.16,2.54
		c-5.619-0.022-11.239-0.031-16.858,0.016c-2.621,0.022-5.346,0.385-5.415,3.747c-0.071,3.451,2.747,3.757,5.315,3.821
		c4.243,0.105,8.493-0.036,12.735,0.088c1.768,0.052,4.254-0.922,4.337,2.474c0.083,3.386-2.334,2.541-4.166,2.633
		c-1.869,0.093-3.746-0.013-5.619,0.033c-2.777,0.067-6.146-0.058-6.187,3.716c-0.044,4.063,3.49,3.808,6.369,3.916
		c0.998,0.037,1.998,0.008,2.997,0.008c7.243,0.001,14.486-0.02,21.729,0.02c1.658,0.009,3.624-0.472,3.741,2.34
		c0.106,2.561-1.376,2.811-3.315,2.858c-0.838,0.021-1.668,0.349-2.436,0.523c-2.121,13.917,1.543,22.243,9.831,21.998
		c0.372-9.187,2.557-17.867,7.551-25.788c3.517-5.577,7.343-10.163,14.883-8.522c0.356,0.078,0.868,0.143,1.099-0.043
		c0.742-0.599,1.972-1.312,1.98-1.994C144.296,33.132,144.256,23.049,144.256,12.826z"/>
	<path fill-rule="evenodd" clip-rule="evenodd" d="M0,134.983c13.611,0.002,27.223,0.002,40.834,0.009
		c6.163,0.003,6.163,0.009,7.276,5.77c7.107,1.504,8.649,0.937,12.509-4.785c5.042-7.473,7.214-15.774,7.131-24.742
		c-0.044-4.685,1.234-5.761,5.816-5.169c9.006,1.163,15.334,8.264,15.436,17.345c0.031,2.747,0.122,5.5-0.015,8.24
		c-0.123,2.473,1,3.352,3.321,3.337c5.244-0.037,10.491-0.076,15.733,0.043c6.712,0.153,9.588,3.379,9.684,10.112
		c0.018,1.265,1,2.921,2.054,3.691c3.231,2.365,4.982,5.347,4.339,9.285c-0.633,3.875-2.891,6.651-6.943,7.374
		c-2.193,0.391-2.723,1.441-2.711,3.568c0.029,5.322-1.994,7.658-7.241,9.422c-0.938,0.316-2.343,1.545-2.269,2.215
		c0.698,6.36-3.051,9.296-8.217,11.278c-4.75,0-9.499,0-14.249,0c-1.198-0.303-2.395-0.613-3.595-0.907
		c-6.377-1.561-12.733-3.219-19.143-4.636c-3.777-0.836-7.64-1.286-11.464-1.909c0.045,0.382,0.091,0.766,0.136,1.147
		c-0.893,2.102-1.787,4.203-2.68,6.305c-15.248,0-30.496,0-45.744,0c0-2.028,0-4.014,0-5.999c13.097,0.061,26.195,0.1,39.292,0.199
		c3.056,0.023,2.905-2.02,2.905-4.08c-0.005-12.604-0.077-25.207,0.051-37.809c0.031-3.059-0.958-4.206-4.066-4.173
		c-12.726,0.135-25.454,0.094-38.181,0.118C0,138.482,0,136.732,0,134.983z M47.704,179.041c4.282,0.455,8.152,0.497,11.84,1.335
		c7.241,1.646,14.306,4.148,21.591,5.492c4.594,0.848,9.459,0.317,14.2,0.244c2.386-0.036,4.195-1.223,4.118-3.854
		c-0.081-2.726-2.005-3.477-4.425-3.376c-0.498,0.021-1-0.026-1.498,0.001c-1.947,0.104-3.374-0.145-3.387-2.729
		c-0.013-2.562,1.354-2.794,3.331-2.771c3.87,0.045,7.785,0.307,11.587-0.211c1.449-0.198,3.384-2.092,3.78-3.566
		c0.647-2.407-1.42-3.486-3.656-3.601c-2.865-0.147-5.738-0.165-8.607-0.176c-1.939-0.006-3.404-0.251-3.357-2.815
		c0.045-2.505,1.617-2.397,3.29-2.398c5.618-0.003,11.237,0.027,16.855-0.028c2.646-0.026,5.293-0.511,5.289-3.878
		c-0.004-3.202-2.623-3.619-5.08-3.675c-4.617-0.105-9.239-0.055-13.858-0.063c-1.825-0.003-3.491,0.048-3.474-2.644
		c0.018-2.778,1.828-2.484,3.569-2.514c2.871-0.047,5.834,0.336,8.574-0.28c1.516-0.34,2.657-2.343,3.967-3.596
		c-1.337-1.228-2.544-2.669-4.064-3.599c-0.832-0.508-2.193-0.177-3.315-0.178c-7.991-0.009-15.982,0.001-23.973-0.014
		c-1.741-0.003-3.584,0.264-3.608-2.491c-0.02-2.307,1.248-2.759,3.085-2.668c2.495,0.122,3.206-1.135,3.089-3.46
		c-0.155-3.114,0.092-6.25-0.096-9.36c-0.339-5.608-5.101-10.119-10.126-9.644c-0.445,9.058-2.504,17.665-7.452,25.465
		c-3.558,5.608-7.366,10.531-15.133,8.731c-0.118-0.027-0.25,0.011-0.374,0.001c-1.844-0.155-2.723,0.538-2.71,2.542
		C47.736,159.116,47.704,168.97,47.704,179.041z"/>
	<path fill-rule="evenodd" clip-rule="evenodd" d="M47.309,42.082c-3.539,2.921-7.176,5.733-10.581,8.801
		c-2.37,2.136-4.865,3.049-8.094,2.976c-7.653-0.173-10.047,2.351-10.052,10.037c-0.012,19.87,0.021,39.74-0.069,59.609
		c-0.006,1.249-0.639,3.292-1.471,3.588c-2.263,0.806-4.081,0.244-3.989-2.963c0.165-5.744,0.045-11.496,0.045-17.244
		c0-14.371-0.011-28.742,0.004-43.113c0.012-10.573,4.715-15.249,15.254-15.557c1.709-0.05,3.681-0.757,5.028-1.807
		c5.025-3.913,9.791-8.156,14.774-12.126c1.053-0.838,3.17-1.824,3.807-1.366c1.037,0.746,1.592,2.589,1.75,4.036
		c0.271,2.47,0.207,4.999,0.046,7.487c-0.183,2.822,0.664,4.237,3.776,3.897c2.099-0.229,4.247,0.036,6.367-0.063
		c1.931-0.089,2.663,0.696,2.691,2.622c0.029,2.043-0.645,2.973-2.801,2.917c-3.871-0.102-7.748-0.084-11.62-0.015
		c-2.736,0.049-3.847-1.367-3.868-3.906c-0.022-2.469-0.005-4.938-0.005-7.408C47.97,42.351,47.639,42.216,47.309,42.082z"/>
	<path fill-rule="evenodd" clip-rule="evenodd" d="M144.65,149.979c3.704-3.081,7.249-6.387,11.177-9.148
		c1.978-1.391,4.624-2.434,7.013-2.53c8.356-0.34,10.554-2.375,10.557-10.853c0.006-19.618-0.014-39.235,0.034-58.853
		c0.004-1.558-0.781-3.654,2.066-3.965c3.121-0.341,3.423,1.358,3.414,3.839c-0.061,16.869-0.016,33.737-0.042,50.606
		c-0.007,4.367,0.231,8.782-0.317,13.089c-0.92,7.231-5.708,11.488-12.935,11.405c-3.696-0.043-6.386,1.151-9.023,3.512
		c-4.093,3.664-8.35,7.156-12.689,10.526c-1.124,0.873-3.238,1.786-4.127,1.293c-0.989-0.548-1.397-2.657-1.524-4.133
		c-0.233-2.729-0.134-5.494-0.066-8.241c0.051-2.051-0.76-2.961-2.874-2.865c-2.369,0.107-4.752-0.077-7.12,0.046
		c-2.168,0.114-2.836-0.838-2.811-2.885c0.024-1.921,0.76-2.687,2.68-2.65c3.997,0.076,7.997,0.05,11.996,0.019
		c2.579-0.021,3.562,1.449,3.606,3.771c0.048,2.482,0.011,4.964,0.011,7.446C143.999,149.599,144.325,149.788,144.65,149.979z"/>
	<path fill-rule="evenodd" clip-rule="evenodd" d="M59.371,80.499c7.732,0,15.464,0.013,23.196-0.01
		c1.841-0.005,3.406-0.106,3.458,2.596c0.055,2.822-1.461,2.9-3.545,2.895c-15.464-0.041-30.928-0.032-46.392-0.01
		c-1.982,0.003-3.662,0.133-3.649-2.784c0.013-2.995,1.838-2.693,3.737-2.691C43.907,80.504,51.639,80.499,59.371,80.499z"/>
	<path fill-rule="evenodd" clip-rule="evenodd" d="M59.059,98.716c-7.607,0-15.214,0.003-22.821-0.002
		c-1.846-0.001-3.764,0.421-3.798-2.621c-0.032-2.859,1.544-2.856,3.587-2.853c15.464,0.033,30.927,0.031,46.391,0.002
		c2.017-0.003,3.635-0.061,3.61,2.827c-0.026,3.03-1.91,2.646-3.773,2.646C74.522,98.716,66.791,98.716,59.059,98.716z"/>
	<path fill-rule="evenodd" clip-rule="evenodd" d="M132.54,98.716c-7.732,0-15.464-0.021-23.195,0.015
		c-1.901,0.01-3.388-0.012-3.392-2.664c-0.003-2.492,1.168-2.84,3.233-2.833c15.713,0.049,31.426,0.051,47.139-0.002
		c2.098-0.008,3.209,0.408,3.205,2.864c-0.005,2.672-1.543,2.642-3.42,2.634C148.253,98.697,140.396,98.716,132.54,98.716z"/>
	<path fill-rule="evenodd" clip-rule="evenodd" d="M132.54,111.476c-7.732,0-15.464-0.021-23.196,0.016
		c-1.901,0.009-3.388-0.016-3.391-2.667c-0.002-2.489,1.165-2.841,3.232-2.834c15.713,0.05,31.427,0.052,47.14-0.002
		c2.101-0.007,3.209,0.41,3.205,2.864c-0.004,2.671-1.542,2.644-3.419,2.636C148.253,111.458,140.397,111.477,132.54,111.476z"/>
	<path fill-rule="evenodd" clip-rule="evenodd" d="M124.6,124.235c-5.229,0-10.459-0.052-15.688,0.027
		c-1.989,0.029-2.956-0.515-2.946-2.729c0.009-2.143,0.826-2.801,2.884-2.789c10.707,0.065,21.416,0.07,32.123-0.002
		c2.183-0.015,2.766,0.892,2.752,2.914c-0.014,1.971-0.812,2.621-2.69,2.6C135.557,124.193,130.078,124.233,124.6,124.235z"/>
	<path fill-rule="evenodd" clip-rule="evenodd" d="M68.73,73.201c-4.623,0-9.248-0.054-13.869,0.025
		c-1.942,0.033-3.063-0.417-3.059-2.666c0.004-2.092,0.794-2.863,2.888-2.849c9.496,0.066,18.993,0.069,28.488-0.003
		c2.124-0.016,2.815,0.774,2.83,2.865c0.016,2.297-1.11,2.682-3.034,2.651C78.228,73.151,73.479,73.201,68.73,73.201z"/>
	<path fill-rule="evenodd" clip-rule="evenodd" d="M146.99,80.5c3.109,0,6.221,0.075,9.326-0.026
		c2.078-0.068,3.218,0.375,3.214,2.841c-0.004,2.635-1.48,2.673-3.383,2.659c-5.969-0.045-11.939-0.068-17.908,0.011
		c-2.07,0.027-3.286-0.403-3.271-2.839c0.016-2.577,1.527-2.701,3.441-2.662C141.269,80.543,144.129,80.5,146.99,80.5z"/>
	<path fill-rule="evenodd" clip-rule="evenodd" d="M44.985,111.475c-3.109,0-6.221-0.075-9.327,0.026
		c-2.077,0.068-3.218-0.375-3.214-2.841c0.004-2.635,1.48-2.673,3.383-2.659c5.969,0.044,11.939,0.068,17.908-0.011
		c2.071-0.027,3.286,0.404,3.271,2.839c-0.015,2.576-1.527,2.701-3.441,2.661C50.707,111.433,47.846,111.476,44.985,111.475z"/>
	<path fill-rule="evenodd" clip-rule="evenodd" d="M44.945,118.777c3.109,0.001,6.24-0.203,9.316,0.121
		c0.976,0.103,2.303,1.473,2.591,2.507c0.538,1.928-0.581,2.884-2.703,2.857c-6.342-0.081-12.687-0.07-19.029-0.004
		c-1.918,0.02-2.632-0.705-2.654-2.63c-0.023-2.039,0.614-2.964,2.778-2.883C38.474,118.864,41.711,118.775,44.945,118.777z"/>
	<path fill-rule="evenodd" clip-rule="evenodd" d="M148.662,73.201c-2.493,0-4.989-0.07-7.479,0.022
		c-1.927,0.071-3.051-0.37-3.037-2.644c0.013-2.065,0.694-2.91,2.824-2.871c5.234,0.096,10.472,0.094,15.706,0
		c2.105-0.038,2.83,0.747,2.841,2.844c0.013,2.261-1.054,2.742-3.003,2.671C153.899,73.129,151.279,73.201,148.662,73.201z"/>
	<path fill-rule="evenodd" clip-rule="evenodd" d="M163.054,16.537c-1.087,0.675-2.097,1.662-3.279,1.954
		c-1.794,0.444-2.718-0.505-2.731-2.482c-0.014-2.037,0.724-3.259,2.817-2.843c1.115,0.221,2.098,1.113,3.14,1.702
		C163.019,15.423,163.037,15.98,163.054,16.537z"/>
	<path fill-rule="evenodd" clip-rule="evenodd" d="M45.717,70.62c-2.1,1.32-3.203,2.561-4.07,2.413
		c-0.984-0.167-2.234-1.444-2.519-2.474c-0.519-1.875,0.54-3.235,2.618-2.73C42.813,68.088,43.688,69.147,45.717,70.62z"/>
	<path fill-rule="evenodd" clip-rule="evenodd" d="M33.097,172.951c0.599,1.038,1.504,2.013,1.731,3.126
		c0.422,2.073-0.763,2.853-2.819,2.836c-1.96-0.016-2.945-0.9-2.506-2.713c0.286-1.183,1.262-2.2,1.928-3.292
		C31.986,172.923,32.542,172.937,33.097,172.951z"/>
</g>
</svg>
