<?xml version="1.0" encoding="utf-8"?>
<!-- Generator: Adobe Illustrator 16.0.0, SVG Export Plug-In . SVG Version: 6.00 Build 0)  -->
<!DOCTYPE svg PUBLIC "-//W3C//DTD SVG 1.1//EN" "http://www.w3.org/Graphics/SVG/1.1/DTD/svg11.dtd">
<svg version="1.1" id="Layer_1" xmlns="http://www.w3.org/2000/svg" xmlns:xlink="http://www.w3.org/1999/xlink" x="0px" y="0px"
	 width="191.768px" height="191.976px" viewBox="0 0 191.768 191.976" enable-background="new 0 0 191.768 191.976"
	 xml:space="preserve">
<g>
	<path fill-rule="evenodd" clip-rule="evenodd" d="M0,176.228c0-23.247,0-46.494,0-69.741c0.276-0.554,0.737-1.087,0.802-1.665
		c0.86-7.597,8.574-13.591,14.58-13.975c8.832-0.564,14.343,2.705,18.44,11.036c0.587,1.192,2.501,2.375,3.853,2.437
		c5.854,0.267,11.732-0.009,17.594,0.168c3.052,0.092,4.227-0.918,4.175-4.058c-0.146-8.985-0.12-17.975-0.005-26.961
		c0.031-2.456-0.71-3.797-3.098-4.761c-5.696-2.299-9.441-6.501-10.369-12.705c-1.738-11.609,5.952-20.268,18.108-20.436
		c7.488-0.103,14.982-0.145,22.467,0.04c3.001,0.074,4.303-0.719,4.194-3.918c-0.188-5.486-0.153-10.986-0.013-16.475
		c0.077-3.038-1.027-4.229-4.141-4.144c-5.986,0.164-11.998,0.262-17.963-0.135c-1.736-0.115-4.066-1.654-4.815-3.183
		c-0.669-1.365,0.205-3.722,0.906-5.433C65.12,1.333,66.532,0.759,67.491,0c18.998,0,37.995,0,56.993,0
		c0.142,0.201,0.239,0.494,0.433,0.588c2.936,1.417,4.578,3.635,3.554,6.915c-0.981,3.145-3.628,3.697-6.622,3.641
		c-5.493-0.103-10.992,0.076-16.483-0.064c-2.794-0.071-4.172,0.772-4.108,3.786c0.121,5.742,0.116,11.49,0.003,17.232
		c-0.055,2.822,1.141,3.56,3.83,3.504c7.74-0.158,15.487-0.168,23.227-0.022c8.9,0.169,16.149,5.795,17.631,13.41
		c1.734,8.909-2.09,15.872-10.648,20.022c-1.225,0.594-2.563,2.461-2.593,3.769c-0.222,9.361-0.054,18.73-0.158,28.096
		c-0.032,2.859,1.219,3.656,3.858,3.595c5.367-0.123,10.746-0.191,16.107,0.025c3.235,0.13,4.989-0.708,6.45-3.979
		c5.081-11.382,20.106-13.328,28.33-3.953c3.314,3.778,4.368,8.326,4.373,13.186c0.021,20.106-0.197,40.216,0.098,60.317
		c0.143,9.724-3.362,18.881-15.005,21.401c-0.204,0.044-0.355,0.331-0.531,0.506c-1.25,0-2.5,0-3.75,0
		c-0.772-0.341-1.516-0.78-2.321-1.006c-5.233-1.464-9.329-4.516-11.283-9.552c-1.252-3.228-3.112-3.83-6.192-3.82
		c-29.439,0.09-58.878,0.054-88.317,0.054c-8.732,0-17.465,0.064-26.195-0.037c-2.446-0.028-3.794,0.731-4.744,3.127
		c-2.155,5.438-6.228,8.888-11.981,10.283c-0.686,0.166-1.3,0.627-1.947,0.951c-1.25,0-2.5,0-3.75,0
		c-0.882-0.36-1.744-0.783-2.648-1.07c-5.798-1.842-9.745-5.594-11.811-11.322C0.882,178.456,0.431,177.346,0,176.228z
		 M156.822,115.197c-9.194,0-18.034,0.006-26.875-0.001c-6.308-0.006-8.157-1.886-8.163-8.305
		c-0.008-10.62-0.002-21.239-0.002-31.858c0-1.458,0-2.917,0-4.567c-17.381,0-34.281,0-51.589,0c0,1.607,0,2.951,0,4.293
		c0,11.119,0.035,22.238-0.019,33.357c-0.023,4.868-2.267,7.033-7.14,7.073c-4.497,0.037-8.995,0.008-13.493,0.008
		c-4.708,0-9.416,0-14.349,0c0,17.387,0,34.291,0,51.37c40.64,0,81.031,0,121.629,0
		C156.822,149.492,156.822,132.677,156.822,115.197z M95.8,59.412c10.115,0,20.229,0.023,30.343-0.025
		c1.602-0.007,3.236-0.187,4.794-0.55c3.124-0.731,4.599-3.026,4.56-6.039c-0.04-3.021-1.603-5.233-4.74-5.897
		c-1.449-0.307-2.951-0.512-4.429-0.514c-20.229-0.033-40.458-0.039-60.687,0.007c-1.722,0.004-3.899-0.146-5.058,0.783
		c-1.761,1.412-3.851,3.69-3.879,5.628c-0.029,1.937,1.992,4.28,3.715,5.733c1.125,0.948,3.319,0.828,5.038,0.84
		C75.571,59.445,85.685,59.411,95.8,59.412z M24.13,140.971c0-10.488,0.057-20.977-0.022-31.464
		c-0.043-5.621-2.928-8.475-7.594-7.831c-3.486,0.482-5.366,3.219-5.374,8.193c-0.034,20.726-0.027,41.453,0.012,62.179
		c0.003,1.474-0.107,3.385,0.713,4.325c1.513,1.732,3.517,3.653,5.614,4.103c2.666,0.572,5.111-1.137,5.966-4.012
		c0.488-1.641,0.653-3.43,0.664-5.152C24.167,161.198,24.137,151.084,24.13,140.971z M167.846,140.822
		c0,10.613-0.053,21.226,0.023,31.838c0.036,4.992,2.648,8.057,6.52,8.021c3.888-0.036,6.29-3.051,6.457-8.108
		c0.008-0.249,0.006-0.5,0.006-0.749c0-20.477,0.009-40.954-0.019-61.431c-0.002-1.356-0.126-2.754-0.477-4.057
		c-0.977-3.635-3.681-5.274-7.365-4.634c-3.195,0.555-5.095,3.222-5.124,7.655C167.801,119.845,167.846,130.333,167.846,140.822z"/>
</g>
</svg>
