<?xml version="1.0" encoding="utf-8"?>
<!-- Generator: Adobe Illustrator 16.0.0, SVG Export Plug-In . SVG Version: 6.00 Build 0)  -->
<!DOCTYPE svg PUBLIC "-//W3C//DTD SVG 1.1//EN" "http://www.w3.org/Graphics/SVG/1.1/DTD/svg11.dtd">
<svg version="1.1" id="Layer_1" xmlns="http://www.w3.org/2000/svg" xmlns:xlink="http://www.w3.org/1999/xlink" x="0px" y="0px"
	 width="191.552px" height="178.906px" viewBox="0 0 191.552 178.906" enable-background="new 0 0 191.552 178.906"
	 xml:space="preserve">
<g>
	<path fill-rule="evenodd" clip-rule="evenodd" d="M0,88.369c1.935-3.986,5.17-5.391,9.472-4.983
		c2.103,0.199,4.238,0.017,6.359,0.038c5.657,0.06,7.84,2.255,7.857,8.015c0.029,9.854,0.008,19.709,0.008,29.563
		c0,16.467,0.009,32.933-0.005,49.399c-0.005,6.257-2.091,8.365-8.229,8.403c-1.996,0.013-4.006-0.153-5.984,0.034
		c-4.295,0.404-7.536-1.004-9.479-4.98C0,145.361,0,116.865,0,88.369z"/>
	<path fill-rule="evenodd" clip-rule="evenodd" d="M69.112,131.414c5.85,0,11.699,0,17.548,0c6.871,0,13.745-0.105,20.613,0.035
		c4.599,0.095,8.563-1.328,12.133-4.103c14.299-11.111,28.58-22.248,42.909-33.32c11.989-9.264,27.115-3.256,29.092,11.742
		c0.757,5.738-1.463,10.971-6.073,14.593c-17.578,13.811-35.247,27.506-52.97,41.131c-5.024,3.862-11.073,5.235-17.268,5.265
		c-25.11,0.117-50.221,0.007-75.332,0.11c-2.922,0.012-3.528-1.058-3.517-3.727c0.088-21.362,0.091-42.726-0.002-64.089
		c-0.012-2.711,0.673-3.714,3.553-3.692c16.115,0.123,32.231,0.031,48.347,0.076c5.591,0.016,7.9,2.876,7.168,8.315
		C93.226,119.275,83.991,127.764,69.112,131.414z"/>
	<path fill-rule="evenodd" clip-rule="evenodd" d="M121.094,62.66c-0.851-5.414-5.661-9.482-11.73-9.818
		c-5.409-0.299-10.657-1.153-15.308-4.218c-6.176-4.069-9.913-9.793-9.586-17.167c0.355-8.003,4.8-14.078,12.194-16.982
		c4.456-1.751,6.254-3.86,5.741-8.602c-0.296-2.729,1.138-5.408,4.161-5.824c1.701-0.234,4.038,0.396,5.262,1.53
		c1.174,1.088,1.916,3.4,1.73,5.048c-0.474,4.207,0.947,6.498,5.12,7.413c1.508,0.331,2.915,1.417,4.21,2.371
		c3.04,2.238,3.739,5.116,2.053,7.778c-1.737,2.743-4.995,3.436-8.175,1.291c-3.658-2.467-7.6-3.124-11.78-2.5
		c-5.547,0.828-9.487,5.028-9.287,9.58c0.192,4.343,4.753,8.226,10.152,8.846c3.577,0.41,7.259,0.631,10.661,1.685
		c8.87,2.75,15.042,10.749,15.143,18.952c0.095,7.708-5.477,15.414-14.038,18.548c-3.148,1.152-4.507,2.643-3.958,5.91
		c0.142,0.846,0.077,1.759-0.065,2.612c-0.531,3.191-2.332,5.492-5.631,5.478c-3.294-0.015-5.843-2.43-5.448-5.493
		c0.748-5.805-1.914-8.371-6.927-9.692c-0.697-0.184-1.322-0.699-1.936-1.123c-3.499-2.414-4.444-5.406-2.631-8.246
		c1.811-2.836,4.962-3.296,8.522-1.104c5.656,3.481,11.416,3.701,16.826-0.107C118.39,67.403,119.545,64.751,121.094,62.66z"/>
</g>
</svg>
