<?xml version="1.0" encoding="utf-8"?>
<!-- Generator: Adobe Illustrator 16.0.0, SVG Export Plug-In . SVG Version: 6.00 Build 0)  -->
<!DOCTYPE svg PUBLIC "-//W3C//DTD SVG 1.1//EN" "http://www.w3.org/Graphics/SVG/1.1/DTD/svg11.dtd">
<svg version="1.1" id="Layer_1" xmlns="http://www.w3.org/2000/svg" xmlns:xlink="http://www.w3.org/1999/xlink" x="0px" y="0px"
	 width="188.029px" height="191.976px" viewBox="0 0 188.029 191.976" enable-background="new 0 0 188.029 191.976"
	 xml:space="preserve">
<g>
	<path fill-rule="evenodd" clip-rule="evenodd" d="M144.007,191.976c-5.957-2.436-7.367-6.995-7.322-13.152
		c0.237-32.579,0.109-65.16,0.113-97.741c0.001-7.72,3.131-10.921,10.853-10.98c7.115-0.054,14.231-0.065,21.346,0.003
		c7.479,0.073,10.701,3.35,10.704,10.803c0.012,32.705-0.097,65.411,0.093,98.115c0.037,6.346-1.568,10.981-8.041,12.952
		C162.505,191.976,153.256,191.976,144.007,191.976z"/>
	<path fill-rule="evenodd" clip-rule="evenodd" d="M76.516,191.976c-5.902-2.219-7.455-6.542-7.367-12.65
		c0.308-21.354,0.113-42.715,0.123-64.075c0.004-7.076,2.916-9.992,9.958-10.003c7.869-0.011,15.738-0.033,23.607,0.011
		c5.57,0.031,8.818,2.904,8.844,8.388c0.107,23.106,0.004,46.214,0.086,69.32c0.019,5.277-3.44,7.312-7.503,9.009
		C95.013,191.976,85.765,191.976,76.516,191.976z"/>
	<path fill-rule="evenodd" clip-rule="evenodd" d="M9.024,191.976c-6.029-2.073-7.64-6.414-7.432-12.519
		c0.386-11.351,0.089-22.723,0.122-34.086c0.02-6.782,2.705-9.447,9.576-9.49c7.741-0.049,15.484-0.049,23.225,0
		c6.856,0.044,9.545,2.717,9.565,9.5c0.035,11.364-0.251,22.735,0.118,34.086c0.198,6.082-1.337,10.478-7.427,12.51
		C27.521,191.976,18.273,191.976,9.024,191.976z"/>
	<path fill-rule="evenodd" clip-rule="evenodd" d="M159.755,0c1.679,0.396,3.353,0.813,5.038,1.182
		c14.433,3.155,24.054,16.407,23.182,31.944c-0.754,13.417-12.17,24.981-26.071,26.766c-16.755,2.149-31.096-9.783-33.281-25.336
		c-2.316-16.489,8.839-31.116,25.32-33.65c0.961-0.148,1.876-0.597,2.813-0.905C157.755,0,158.755,0,159.755,0z M160.455,18.201
		c0.307-0.19,0.614-0.38,0.921-0.57c1.335,1.113,2.792,2.112,3.976,3.367c1.669,1.77,3.565,2.704,5.533,1.005
		c2.104-1.815,1.659-4.43-0.191-5.909c-2.262-1.807-5.183-2.768-7.722-4.261c-1.09-0.641-1.946-1.686-2.889-2.567
		c-0.651-0.608-1.271-1.252-1.904-1.88c-0.551,0.587-1.578,1.181-1.57,1.76c0.029,2.292-1.417,2.391-3.105,2.805
		c-6.192,1.521-9.619,5.95-8.971,11.52c0.613,5.272,4.536,7.332,8.925,8.975c1.114,0.417,2.707,1.344,2.847,2.231
		c0.391,2.476,0.136,5.053,0.136,7.591c-0.513,0.239-1.026,0.477-1.539,0.715c-1.282-1.552-2.872-2.947-3.774-4.695
		c-1.299-2.514-3.208-3.291-5.512-2.265c-2.426,1.08-2.21,3.356-1.364,5.495c1.52,3.84,4.663,5.739,8.443,6.676
		c1.978,0.49,4,0.56,3.926,3.438c-0.014,0.56,1.01,1.557,1.613,1.603c0.563,0.042,1.663-0.857,1.729-1.433
		c0.306-2.678,2.005-3.204,4.291-3.768c7.184-1.772,10.572-8.725,7.554-15.062c-1.722-3.615-5.187-4.767-8.583-6.11
		c-1.075-0.425-2.443-1.476-2.646-2.453C160.166,22.416,160.455,20.278,160.455,18.201z"/>
	<path fill-rule="evenodd" clip-rule="evenodd" d="M97.874,55.736c-1.552-2.98-3.192-5.633-4.313-8.491
		c-0.558-1.423-0.825-3.805-0.033-4.698c0.986-1.11,3.313-1.779,4.865-1.509c6.495,1.131,12.93,2.626,19.36,4.105
		c4.007,0.921,4.972,2.74,3.484,6.485c-2.395,6.025-4.773,12.065-7.45,17.965c-0.669,1.477-2.473,3.424-3.72,3.399
		c-1.525-0.03-3.542-1.587-4.428-3.044c-4.307-7.077-4.19-7.129-11.614-3.299C65.294,81.474,36.559,96.287,7.823,111.099
		c-0.998,0.514-2.073,1.475-3.017,1.37c-1.65-0.184-4.006-0.609-4.613-1.724c-0.597-1.098,0.315-3.348,1.131-4.767
		c0.532-0.925,2.06-1.298,3.167-1.871c29.83-15.396,59.663-30.785,89.492-46.183C95.18,57.305,96.334,56.604,97.874,55.736z"/>
	<path fill-rule="evenodd" clip-rule="evenodd" d="M161.952,33.594c1.167,1.624,3.172,3.211,3.248,4.884
		c0.064,1.434-2.081,2.965-3.25,4.454c-0.427-0.195-0.854-0.391-1.281-0.586c0-2.649,0-5.297,0-7.945
		C161.098,34.132,161.525,33.863,161.952,33.594z"/>
	<path fill-rule="evenodd" clip-rule="evenodd" d="M156.232,18.027c0,2.254,0,4.508,0,6.981c-2.555-0.071-4.59-1.05-4.266-3.468
		c0.205-1.526,2.106-2.825,3.247-4.227C155.553,17.551,155.893,17.789,156.232,18.027z"/>
</g>
</svg>
