<?xml version="1.0" encoding="utf-8"?>
<!-- Generator: Adobe Illustrator 16.0.0, SVG Export Plug-In . SVG Version: 6.00 Build 0)  -->
<!DOCTYPE svg PUBLIC "-//W3C//DTD SVG 1.1//EN" "http://www.w3.org/Graphics/SVG/1.1/DTD/svg11.dtd">
<svg version="1.1" id="Layer_1" xmlns="http://www.w3.org/2000/svg" xmlns:xlink="http://www.w3.org/1999/xlink" x="0px" y="0px"
	 width="167.979px" height="191.976px" viewBox="0 0 167.979 191.976" enable-background="new 0 0 167.979 191.976"
	 xml:space="preserve">
<g>
	<path fill-rule="evenodd" clip-rule="evenodd" d="M91.267,191.976c-9.729-2.565-19.466-5.106-29.187-7.707
		c-5.055-1.352-10.128-2.66-15.107-4.252c-6.126-1.958-10.9,0.954-15.712,3.925c-0.386,0.238-0.854,0.783-0.837,1.166
		c0.205,4.822-3.026,4.56-6.316,4.444c-6.739-0.236-13.48-0.402-20.222-0.529c-2.829-0.054-3.973-1.306-3.881-4.186
		c0.563-17.476,1.038-34.955,1.512-52.434c0.058-2.135,0.962-3.289,3.162-3.254c7.244,0.115,14.498,0.047,21.729,0.416
		c5.207,0.266,5.19,0.527,5.347,5.833c0.018,0.606,0.102,1.211,0.205,2.378c1.495-0.502,2.731-0.868,3.93-1.329
		c11.317-4.357,22.527-4.067,33.342,1.382c5.852,2.949,11.804,4.348,18.336,4.259c6.484-0.088,12.989,0.25,19.463,0.711
		c5.356,0.382,9.995,2.801,13.001,7.22c2.014,2.959,3.709,2.736,6.429,1.375c6.917-3.461,13.917-6.765,20.958-9.967
		c7.135-3.244,14.617-1.38,19.18,4.415c1.928,2.449,2.008,4.292-0.832,6.121c-18.169,11.693-36.204,23.597-54.514,35.062
		c-3.458,2.166-7.948,2.684-11.968,3.946c-1.163,0.364-2.345,0.671-3.518,1.005C94.267,191.976,92.767,191.976,91.267,191.976z
		 M118.256,159.736c-0.469-6.088-5.291-10.994-11.369-11.481c-6.338-0.508-12.715-0.77-19.072-0.739
		c-7.392,0.034-14.243-1.458-20.878-4.846c-10.433-5.326-21.073-5.119-31.687-0.143c-2.809,1.316-4.109,3.147-4.134,6.346
		c-0.064,8.613-0.418,17.223-0.614,25.835c-0.019,0.799,0.271,1.605,0.447,2.571c0.743-0.143,1.287-0.107,1.663-0.34
		c5.896-3.663,11.971-3.239,18.36-1.337c10.979,3.27,22.054,6.217,33.101,9.255c9.792,2.692,18.964,1.338,27.524-4.229
		c15.28-9.937,30.604-19.805,45.899-29.719c1.218-0.79,2.354-1.704,3.801-2.76c-3.563-3.221-7.196-3.802-11.033-2.059
		c-7.95,3.613-15.854,7.335-23.663,11.241c-1.102,0.551-2.178,2.373-2.201,3.626c-0.065,3.467-1.59,4.634-4.88,4.491
		c-11.224-0.487-22.452-0.852-33.678-1.282c-1.891-0.073-4.289-0.085-3.81-2.732c0.176-0.968,2.509-2.189,3.86-2.192
		c7.737-0.019,15.474,0.315,23.212,0.485C112.074,159.792,115.045,159.736,118.256,159.736z M25.052,183.931
		c0.412-15.738,0.861-31.181,1.098-46.627c0.014-0.834-1.698-2.362-2.687-2.432c-4.723-0.33-9.479-0.413-14.209-0.224
		c-0.931,0.038-2.55,1.633-2.581,2.555c-0.51,14.711-0.853,29.429-1.059,44.147c-0.012,0.85,1.44,2.433,2.261,2.466
		C13.337,184.038,18.813,183.931,25.052,183.931z"/>
	<path fill-rule="evenodd" clip-rule="evenodd" d="M86.768,0c0.655,1.907,1.831,3.801,1.878,5.724
		c0.207,8.47,0.079,16.948,0.096,25.423c0.004,2.086-0.04,4.421-2.737,4.42c-2.716-0.001-2.716-2.357-2.712-4.43
		c0.014-8.6-0.104-17.202,0.095-25.797C83.428,3.546,84.61,1.779,85.268,0C85.768,0,86.268,0,86.768,0z"/>
	<path fill-rule="evenodd" clip-rule="evenodd" d="M40.932,87.526c0.033-24.958,20.436-45.321,45.321-45.236
		c24.677,0.084,44.872,20.508,44.826,45.33c-0.048,25.212-20.037,45.056-45.302,44.971C60.765,132.506,40.897,112.542,40.932,87.526
		z M86.183,47.74c-21.974-0.042-40.359,18.078-40.045,39.958c0.315,21.886,17.07,39.552,39.899,39.716
		c21.989,0.159,39.888-18.035,39.91-39.768C125.97,65.887,107.928,47.781,86.183,47.74z"/>
	<path fill-rule="evenodd" clip-rule="evenodd" d="M64.868,25.612c-0.002,2.365,0.231,4.764-0.106,7.08
		c-0.155,1.067-1.429,1.971-2.195,2.949c-0.882-0.987-2.458-1.929-2.523-2.967c-0.283-4.463-0.26-8.962-0.017-13.431
		c0.056-1.016,1.431-1.961,2.198-2.938c0.882,0.986,2.301,1.864,2.528,2.983C65.166,21.319,64.87,23.496,64.868,25.612z"/>
	<path fill-rule="evenodd" clip-rule="evenodd" d="M112.104,26.244c0.005,2.117,0.294,4.29-0.108,6.326
		c-0.226,1.144-1.595,2.061-2.448,3.081c-0.795-0.953-2.224-1.872-2.275-2.862c-0.242-4.592-0.241-9.212,0.017-13.803
		c0.053-0.942,1.58-1.801,2.427-2.699c0.795,0.954,2.118,1.83,2.276,2.88C112.339,21.479,112.1,23.879,112.104,26.244z"/>
	<path fill-rule="evenodd" clip-rule="evenodd" d="M98.89,77.355c-0.465,0.449-1.702,2.179-2.166,1.991
		c-1.195-0.483-2.582-1.65-2.943-2.834c-1.317-4.308-3.62-6.771-7.233-7.019c-3.515-0.24-6.479,1.799-7.699,5.299
		c-1.304,3.739,0.782,8.037,4.628,9.338c1.17,0.396,2.43,0.569,3.663,0.731c6.063,0.795,10.525,4.723,11.432,10.113
		c1.089,6.478-1.504,11.74-7.379,14.44c-1.868,0.858-3.064,1.693-3.208,3.99c-0.06,0.951-1.508,1.815-2.323,2.719
		c-0.839-0.883-2.332-1.726-2.389-2.656c-0.143-2.361-1.241-3.445-3.233-4.456c-4.048-2.054-6.54-5.476-6.688-10.086
		c-0.04-1.271,1.26-2.584,1.945-3.879c1.009,0.991,2.591,1.817,2.93,3c1.677,5.842,6.032,8.604,10.754,6.464
		c3.036-1.376,4.739-3.839,4.606-7.075c-0.138-3.353-1.914-5.9-5.313-6.944c-1.065-0.328-2.183-0.53-3.291-0.664
		c-6.278-0.753-10.425-4.455-11.593-10.406c-1.095-5.577,1.408-11.071,6.632-13.793c1.968-1.025,3.119-2.05,3.261-4.423
		c0.055-0.898,1.591-1.707,2.451-2.557c0.794,0.92,1.609,1.821,2.376,2.763c0.985,1.211,1.68,2.927,2.94,3.6
		C95.736,67.515,98.538,71.103,98.89,77.355z"/>
</g>
</svg>
