<?xml version="1.0" encoding="utf-8"?>
<!-- Generator: Adobe Illustrator 16.0.0, SVG Export Plug-In . SVG Version: 6.00 Build 0)  -->
<!DOCTYPE svg PUBLIC "-//W3C//DTD SVG 1.1//EN" "http://www.w3.org/Graphics/SVG/1.1/DTD/svg11.dtd">
<svg version="1.1" id="Layer_1" xmlns="http://www.w3.org/2000/svg" xmlns:xlink="http://www.w3.org/1999/xlink" x="0px" y="0px"
	 width="191.976px" height="186.063px" viewBox="0 0 191.976 186.063" enable-background="new 0 0 191.976 186.063"
	 xml:space="preserve">
<g>
	<path fill-rule="evenodd" clip-rule="evenodd" d="M0,67.301c1.616-0.722,3.216-2.019,4.852-2.068
		c7.491-0.222,14.993-0.059,22.491-0.114c2.498-0.018,4.176,0.637,4.04,3.54c-0.118,2.512,1.522,2.697,3.47,2.687
		c8.873-0.042,17.745-0.043,26.618-0.007c5.522,0.023,11.501-1.356,14.651,4.755c0.813-0.174,1.16-0.141,1.268-0.287
		c3.325-4.446,7.948-4.604,13.005-4.56c21.868,0.19,43.738,0.046,65.606,0.124c2.847,0.01,4.849-0.198,4.847-3.837
		c0-0.79,1.957-2.243,3.039-2.269c8.118-0.192,16.245-0.193,24.363-0.006c1.257,0.029,2.486,1.328,3.727,2.04
		c0,30.246,0,60.493,0,90.739c-1.53,0.659-3.046,1.848-4.591,1.887c-7.61,0.197-15.228,0.044-22.843,0.112
		c-2.652,0.024-4.064-1.043-3.908-3.741c0.137-2.368-1.052-3.375-3.237-3.684c-3.818-0.54-7.612-1.29-11.444-1.658
		c-1.045-0.1-2.451,0.583-3.247,1.361c-4.136,4.036-9.759,6.629-12.151,12.381c-0.121,0.292-0.56,0.534-0.899,0.638
		c-3.198,0.98-5.282,2.721-6.489,6.17c-0.643,1.836-3.421,2.928-5.243,4.346c-1.009,0.784-2.511,1.33-2.978,2.354
		c-4.129,9.074-10.649,10.389-17.716,3.423c-2.796-2.756-5.581-5.522-8.592-8.504c-1.026,1.397-1.688,2.272-2.324,3.167
		c-4.778,6.717-12.358,6.478-16.883-0.395c-0.673-1.021-2.206-1.921-3.429-2.052c-3.535-0.377-6.005-2.012-7.919-4.946
		c-0.627-0.96-1.938-1.954-3.017-2.054c-3.951-0.366-6.758-2.112-8.708-5.578c-0.495-0.88-1.799-1.828-2.741-1.838
		c-3.436-0.037-5.916-1.506-8.009-4.093c-0.616-0.761-1.82-1.601-2.621-1.484c-0.643,0.093-1.501,1.56-1.538,2.447
		c-0.123,2.989-1.692,3.781-4.39,3.749c-7.239-0.087-14.485,0.099-21.719-0.12C3.543,159.874,1.779,158.7,0,158.04
		C0,127.794,0,97.547,0,67.301z M89.551,97.376c-2.978,2.86-5.629,5.666-8.552,8.156c-4.674,3.982-11.33,3.603-15.644-0.658
		c-4.457-4.403-4.805-11.143-0.704-15.927c1.622-1.893,3.599-3.484,5.199-5.393c0.932-1.111,2.3-3.417,1.987-3.738
		c-1.277-1.309-3.108-2.852-4.768-2.89c-10.867-0.248-21.742-0.09-32.614-0.156c-2.305-0.014-3.09,0.998-3.088,3.152
		c0.022,21.745-0.004,43.49,0.067,65.234c0.003,0.919,0.828,1.834,1.271,2.751c0.763-0.663,1.735-1.193,2.257-2.01
		c3.427-5.367,6.584-10.913,10.165-16.173c4.372-6.422,12.218-6.046,16.433,0.412c0.735,1.126,2.324,2.225,3.618,2.356
		c3.569,0.363,5.961,2.076,7.944,4.93c0.703,1.012,2.149,1.878,3.377,2.084c3.42,0.573,5.951,2.146,7.998,4.968
		c0.854,1.177,2.511,2.25,3.931,2.447c3.546,0.492,6.007,2.194,7.708,5.227c0.664,1.184,1.179,2.529,2.096,3.477
		c4.344,4.49,8.797,8.875,13.226,13.283c1.966,1.957,4.194,3.086,6.496,0.719c2.265-2.328,1.194-4.529-0.797-6.509
		c-4.429-4.407-8.844-8.829-13.254-13.255c-3.343-3.356-3.235-3.984,1.914-6.82c0.707,0.991,1.438,2.354,2.479,3.416
		c4.461,4.549,8.991,9.033,13.544,13.491c1.781,1.744,4.211,2.132,5.527,0.087c0.878-1.364,0.465-3.816,0.054-5.652
		c-0.232-1.037-1.625-1.818-2.508-2.702c-4.747-4.749-9.497-9.494-14.198-14.192c1.225-1.515,2.214-2.738,3.376-4.174
		c1.445,1.381,2.53,2.383,3.578,3.426c4.52,4.494,8.986,9.042,13.56,13.479c1.851,1.795,4.411,2.276,5.848,0.056
		c0.856-1.322,0.146-3.751-0.111-5.647c-0.081-0.597-0.973-1.088-1.503-1.618c-14.227-14.227-28.453-28.455-42.689-42.673
		C91.821,99.387,90.792,98.513,89.551,97.376z M159.924,147.483c0.309-0.948,0.589-1.411,0.59-1.873
		c0.038-21.984,0.043-43.969,0.083-65.953c0.004-2.365-1.252-2.888-3.34-2.884c-23.484,0.037-46.968,0.003-70.452,0.078
		c-1.245,0.003-2.806,0.474-3.676,1.3c-4.708,4.472-9.328,9.044-13.807,13.744c-2.81,2.947-2.713,6.497-0.132,9.021
		c2.576,2.52,6.054,2.527,9.059-0.208c2.583-2.353,4.979-4.91,7.461-7.375c3.67-3.644,4.123-3.65,7.854,0.078
		c16.345,16.336,32.672,32.691,49.05,48.995c1.201,1.196,2.628,2.585,4.167,2.938C150.997,146.312,155.329,146.774,159.924,147.483z
		 M5.8,112.276c0,12.735,0.068,25.472-0.05,38.205c-0.028,2.996,0.796,4.327,4.009,4.133c3.856-0.233,7.765-0.338,11.601,0.025
		c3.929,0.372,4.881-1.178,4.854-4.835c-0.138-17.978-0.061-35.958-0.062-53.937c0-7.117-0.127-14.236,0.049-21.349
		c0.082-3.311-1.178-4.435-4.39-4.269c-3.861,0.2-7.747,0.196-11.607,0.004c-3.416-0.169-4.523,1.132-4.474,4.567
		C5.905,87.304,5.798,99.791,5.8,112.276z M186.174,112.68c0-12.86-0.055-25.721,0.044-38.58c0.021-2.729-0.93-3.889-3.667-3.814
		c-3.493,0.095-6.991,0.007-10.487,0.009c-6.227,0.003-6.237,0.006-6.239,6.066c-0.004,18.604-0.003,37.208-0.001,55.811
		c0,6.242,0.056,12.485-0.012,18.728c-0.028,2.582,0.727,3.879,3.647,3.717c4.107-0.228,8.252-0.278,12.353,0.01
		c3.552,0.249,4.469-1.134,4.427-4.492C186.083,137.652,186.177,125.166,186.174,112.68z M61.568,164.17
		c1.523,1.764,2.26,3.387,3.369,3.703c1.305,0.371,3.686,0.13,4.294-0.749c3.739-5.396,7.237-10.976,10.472-16.688
		c0.537-0.949-0.201-3.249-1.109-4.192c-0.773-0.803-3.499-1.192-3.893-0.666C70.227,151.558,66.036,157.748,61.568,164.17z
		 M44.442,153.804c0.508-0.363,1.89-0.898,2.555-1.906c3.282-4.973,6.398-10.057,9.523-15.132c1.356-2.202,0.852-4.498-1.359-5.317
		c-1.44-0.533-4.333-0.044-5.115,1.041c-3.625,5.023-6.894,10.328-9.975,15.71C38.468,151,40.498,153.879,44.442,153.804z
		 M69.632,142.105c-1.562-1.748-2.327-3.355-3.446-3.659c-1.309-0.355-3.671-0.089-4.288,0.8
		c-3.74,5.402-7.241,10.987-10.477,16.705c-0.525,0.927,0.264,3.229,1.188,4.153c0.791,0.792,3.498,1.157,3.897,0.622
		C60.975,154.742,65.161,148.545,69.632,142.105z M78.9,175.53c0.53-0.388,1.897-0.942,2.568-1.958
		c3.283-4.972,6.581-9.959,9.396-15.197c0.659-1.227,0.037-4.016-1.014-5.083c-1.615-1.639-4.088-1.259-5.468,0.836
		c-3.411,5.184-6.788,10.402-9.863,15.788C72.961,172.645,75.086,175.63,78.9,175.53z M95.829,161.506
		c-1.205,1.832-2.409,3.384-3.27,5.106c-0.344,0.689-0.289,2.094,0.19,2.596c3.421,3.591,6.838,7.228,10.641,10.384
		c0.932,0.774,3.884,0.429,4.825-0.499c0.918-0.904,1.237-3.92,0.458-4.788C104.74,169.92,100.361,165.934,95.829,161.506z"/>
	<path fill-rule="evenodd" clip-rule="evenodd" d="M96.024,64.025c-13.821,0.007-25.332-11.522-25.239-25.279
		c0.091-13.555,11.633-25.396,25.168-25.021c15.514,0.431,25.058,12.045,25.186,25.335C121.27,52.697,109.677,64.019,96.024,64.025z
		 M104.413,32.623c-2.286-1.012-4.259-1.583-5.875-2.679c-2.005-1.358-4.036-1.635-5.139,0.412
		c-0.655,1.216-0.055,3.367,0.542,4.875c0.245,0.615,1.966,0.682,3.032,0.929c3.775,0.877,6.814,2.759,7.671,6.744
		c0.877,4.08-0.21,7.552-3.854,10.16c-1.189,0.851-1.718,2.625-2.838,4.446c9.215,0.571,17.529-8.6,17.756-18.184
		c0.232-9.83-7.99-19.412-17.679-19.146c1.046,1.838,1.557,3.517,2.673,4.528C102.755,26.567,104.832,28.221,104.413,32.623z
		 M86.635,47.027c0.445-0.539,0.89-1.077,1.334-1.616c1.625,0.552,3.237,1.146,4.879,1.642c1.618,0.49,3.299,1.265,4.886,1.131
		c0.663-0.056,1.933-2.691,1.576-3.191c-1.008-1.415-2.573-2.962-4.175-3.322c-3.908-0.881-6.815-2.735-7.766-6.63
		c-0.991-4.062-0.052-7.784,3.792-10.106c2.122-1.282,2.627-2.771,1.553-4.901c-9.274,0.315-17.499,10.713-16.395,20.616
		c1.056,9.465,9.475,17.936,17.803,16.577c-1.23-1.726-2.151-3.054-3.11-4.354C89.568,50.913,88.096,48.975,86.635,47.027z"/>
	<path fill-rule="evenodd" clip-rule="evenodd" d="M73.078,5.791c1.868-0.711,3.423-1.303,5.235-1.993
		c0.628,1.706,1.133,3.074,1.807,4.904c-1.62,0.657-3.137,1.273-4.985,2.024C74.409,8.983,73.812,7.552,73.078,5.791z"/>
	<path fill-rule="evenodd" clip-rule="evenodd" d="M123.186,14.066c1.005-1.626,1.768-2.862,2.734-4.426
		c1.664,1.05,3.151,1.988,4.928,3.109c-1.213,1.542-2.171,2.76-3.326,4.228C126.068,16.001,124.783,15.138,123.186,14.066z"/>
	<path fill-rule="evenodd" clip-rule="evenodd" d="M113.468,3.734c1.957,0.728,3.435,1.277,5.341,1.986
		c-0.649,1.615-1.222,3.041-1.95,4.85c-1.668-0.56-3.132-1.05-5.001-1.676C112.385,7.206,112.842,5.741,113.468,3.734z"/>
	<path fill-rule="evenodd" clip-rule="evenodd" d="M68.736,14.183c-1.685,1.109-2.801,1.843-4.223,2.779
		c-1.107-1.358-2.139-2.624-3.41-4.182c1.71-1.118,3.108-2.031,4.836-3.16C66.921,11.222,67.776,12.616,68.736,14.183z"/>
	<path fill-rule="evenodd" clip-rule="evenodd" d="M51.337,22.56c1.425-1.663,2.511-2.93,3.968-4.631
		c1.325,1.43,2.384,2.574,3.645,3.936c-1.148,1.372-2.14,2.557-3.312,3.958C54.213,24.74,52.974,23.8,51.337,22.56z"/>
	<path fill-rule="evenodd" clip-rule="evenodd" d="M136.894,18.157c1.244,1.468,2.322,2.742,3.643,4.302
		c-1.39,1.153-2.574,2.137-4.047,3.36c-1.138-1.263-2.168-2.406-3.714-4.121C134.138,20.526,135.382,19.456,136.894,18.157z"/>
	<path fill-rule="evenodd" clip-rule="evenodd" d="M51.434,31.83c-0.925,1.693-1.625,2.975-2.485,4.548
		c-1.591-0.709-2.995-1.333-4.803-2.139c0.934-1.807,1.696-3.283,2.66-5.147C48.429,30.052,49.758,30.838,51.434,31.83z"/>
	<path fill-rule="evenodd" clip-rule="evenodd" d="M45.625,48.598c-2.422-0.599-3.817-0.943-5.946-1.47
		c0.778-1.793,1.173-3.61,2.265-4.773c0.436-0.465,3.175,0.164,3.513,0.91C46.056,44.586,45.625,46.378,45.625,48.598z"/>
	<path fill-rule="evenodd" clip-rule="evenodd" d="M152.598,47.055c-2.46,0.56-3.866,0.88-5.964,1.358
		c-0.122-1.939-0.543-3.695-0.166-5.257c0.139-0.574,2.761-1.323,3.22-0.893C150.874,43.375,151.486,45.099,152.598,47.055z"/>
	<path fill-rule="evenodd" clip-rule="evenodd" d="M142.964,36.418c-0.938-1.845-1.595-3.139-2.36-4.646
		c1.525-0.916,2.856-1.714,4.473-2.684c0.959,1.756,1.751,3.208,2.732,5.004C146.037,34.942,144.649,35.609,142.964,36.418z"/>
	<path fill-rule="evenodd" clip-rule="evenodd" d="M89.829,0c1.114,2.091,2.339,3.383,2.064,4.102
		c-0.445,1.163-1.875,1.949-2.89,2.893c-0.831-1.112-2.13-2.151-2.321-3.365C86.563,2.882,88.134,1.867,89.829,0z"/>
	<path fill-rule="evenodd" clip-rule="evenodd" d="M106.084,2.816c-1.049,1.395-1.835,3.493-3.214,4.01
		c-1.79,0.672-3.229-0.647-2.997-2.98c0.403-4.048,3.181-1.728,4.937-2.149C105.235,2.07,105.66,2.443,106.084,2.816z"/>
</g>
</svg>
