<svg id="Capa_1" enable-background="new 0 0 492.006 492.006" height="512" viewBox="0 0 492.006 492.006" width="512" xmlns="http://www.w3.org/2000/svg"><path d="m213.603 330.14c.597 1.275 1.623 2.3 2.9 2.894v.006l101.108 47.183c3.003 1.402 6.573.104 7.975-2.899.751-1.608.751-3.467 0-5.075l-47.183-101.108c-.595-1.276-1.62-2.303-2.895-2.9l-101.114-47.184c-3.003-1.402-6.573-.104-7.975 2.899-.751 1.608-.751 3.467 0 5.075zm15.736-4.352 41.81-41.81 36.584 78.394zm33.325-50.3-41.808 41.818-36.584-78.4z"/><path d="m246.003 464.206c90.188 0 163.561-73.373 163.561-163.561s-73.373-163.566-163.561-163.566-163.561 73.373-163.561 163.561 73.373 163.566 163.561 163.566zm0-315.122c83.57 0 151.561 67.99 151.561 151.561s-67.991 151.561-151.561 151.561-151.561-67.994-151.561-151.566 67.991-151.561 151.561-151.561z"/><path d="m246.003 492.006c105.52 0 191.366-85.846 191.366-191.366 0-89.4-61.623-164.666-144.62-185.581v-15.285c-.01-8.698-7.059-15.747-15.757-15.756h-24.989v-13.986c19.195-3.313 32.07-21.56 28.757-40.755s-21.56-32.07-40.755-28.757c-16.914 2.919-29.27 17.59-29.271 34.754 0 3.314 2.686 6 6 6s6-2.686 6-6c0-12.851 10.418-23.269 23.269-23.269s23.269 10.418 23.269 23.269-10.418 23.269-23.269 23.269c-3.314 0-6 2.686-6 6v19.475h-21.547c-8.697.012-15.743 7.059-15.753 15.756v14.443c-84.735 19.675-148.066 95.789-148.066 186.423 0 105.52 85.846 191.366 191.366 191.366zm-31.3-392.232c.002-2.073 1.683-3.754 3.756-3.756h58.536c2.074.002 3.754 1.682 3.757 3.756v12.67c-21.816-4.017-44.164-4.22-66.049-.6zm31.3 21.5c98.9 0 179.366 80.463 179.366 179.366s-80.466 179.366-179.366 179.366-179.366-80.463-179.366-179.366 80.466-179.366 179.366-179.366z"/><path d="m246.003 195.421c3.314 0 6-2.686 6-6v-27.8c0-3.314-2.686-6-6-6s-6 2.686-6 6v27.8c0 3.314 2.686 6 6 6z"/><path d="m246.003 404.728c-3.314 0-6 2.686-6 6v27.805c0 3.314 2.686 6 6 6s6-2.686 6-6v-27.805c0-3.314-2.686-6-6-6z"/><path d="m141.35 300.074c0-3.314-2.686-6-6-6h-27.806c-3.314 0-6 2.686-6 6s2.686 6 6 6h27.806c3.314 0 6-2.686 6-6z"/><path d="m356.656 306.074h27.806c3.314 0 6-2.686 6-6s-2.686-6-6-6h-27.806c-3.314 0-6 2.686-6 6s2.686 6 6 6z"/></svg>